TwilioSansMono-HeavyItalic.ufo
<glyph name="exclam" format="2">
	<unicode hex="0021"/>
	<advance width="600"/>
	<outline>
		<contour>
			<point x="229" y="255" type="line"/>
			<point x="369" y="255" type="line"/>
			<point x="450" y="574" type="line"/>
			<point x="466" y="684" type="line"/>
			<point x="253" y="684" type="line"/>
			<point x="237" y="574" type="line"/>
		</contour>
		<contour>
			<point x="269" y="-12" type="curve" smooth="yes"/>
			<point x="343" y="-12"/>
			<point x="381" y="15"/>
			<point x="391" y="81" type="curve" smooth="yes"/>
			<point x="404" y="164"/>
			<point x="360" y="195"/>
			<point x="284" y="195" type="curve" smooth="yes"/>
			<point x="210" y="195"/>
			<point x="172" y="168"/>
			<point x="162" y="103" type="curve" smooth="yes"/>
			<point x="149" y="19"/>
			<point x="193" y="-12"/>
		</contour>
	</outline>
	<guideline x="316" y="720" angle="82"/>
</glyph>
<glyph name="numbersign" format="2">
	<unicode hex="0023"/>
	<advance width="600"/>
	<outline>
		<contour>
			<point x="15" y="289" type="line"/>
			<point x="-5" y="148" type="line"/>
			<point x="77" y="148" type="line"/>
			<point x="42" y="0" type="line"/>
			<point x="187" y="0" type="line"/>
			<point x="222" y="148" type="line"/>
			<point x="310" y="148" type="line"/>
			<point x="275" y="0" type="line"/>
			<point x="419" y="0" type="line"/>
			<point x="454" y="148" type="line"/>
			<point x="549" y="148" type="line"/>
			<point x="569" y="289" type="line"/>
			<point x="487" y="289" type="line"/>
			<point x="514" y="399" type="line"/>
			<point x="608" y="399" type="line"/>
			<point x="627" y="540" type="line"/>
			<point x="547" y="540" type="line"/>
			<point x="581" y="684" type="line"/>
			<point x="436" y="684" type="line"/>
			<point x="402" y="540" type="line"/>
			<point x="314" y="540" type="line"/>
			<point x="348" y="684" type="line"/>
			<point x="204" y="684" type="line"/>
			<point x="170" y="540" type="line"/>
			<point x="74" y="540" type="line"/>
			<point x="55" y="399" type="line"/>
			<point x="137" y="399" type="line"/>
			<point x="110" y="289" type="line"/>
		</contour>
		<contour>
			<point x="255" y="289" type="line"/>
			<point x="281" y="399" type="line"/>
			<point x="369" y="399" type="line"/>
			<point x="343" y="289" type="line"/>
		</contour>
	</outline>
</glyph>
<glyph name="dollar" format="2">
	<unicode hex="0024"/>
	<advance width="600"/>
	<outline>
		<contour>
			<point x="110" y="-93" type="line"/>
			<point x="230" y="-93" type="line"/>
			<point x="256" y="-10" type="line"/>
			<point x="263" y="-11"/>
			<point x="271" y="-11"/>
			<point x="278" y="-11" type="curve" smooth="yes"/>
			<point x="454" y="-11"/>
			<point x="561" y="84"/>
			<point x="561" y="243" type="curve" smooth="yes"/>
			<point x="561" y="351"/>
			<point x="503" y="390"/>
			<point x="382" y="423" type="curve"/>
			<point x="418" y="536" type="line"/>
			<point x="477" y="526"/>
			<point x="538" y="506"/>
			<point x="579" y="478" type="curve"/>
			<point x="601" y="636" type="line"/>
			<point x="575" y="651"/>
			<point x="532" y="667"/>
			<point x="482" y="679" type="curve"/>
			<point x="512" y="774" type="line"/>
			<point x="391" y="774" type="line"/>
			<point x="365" y="695" type="line"/>
			<point x="346" y="695" type="line" smooth="yes"/>
			<point x="164" y="695"/>
			<point x="64" y="601"/>
			<point x="64" y="449" type="curve" smooth="yes"/>
			<point x="64" y="333"/>
			<point x="134" y="293"/>
			<point x="243" y="266" type="curve"/>
			<point x="207" y="154" type="line"/>
			<point x="154" y="165"/>
			<point x="94" y="187"/>
			<point x="42" y="222" type="curve"/>
			<point x="19" y="59" type="line"/>
			<point x="49" y="39"/>
			<point x="92" y="21"/>
			<point x="141" y="8" type="curve"/>
		</contour>
		<contour>
			<point x="254" y="490" type="curve" smooth="yes"/>
			<point x="254" y="526"/>
			<point x="280" y="541"/>
			<point x="334" y="543" type="curve"/>
			<point x="301" y="444" type="line"/>
			<point x="263" y="456"/>
			<point x="254" y="467"/>
		</contour>
		<contour>
			<point x="372" y="198" type="curve" smooth="yes"/>
			<point x="372" y="159"/>
			<point x="341" y="146"/>
			<point x="291" y="145" type="curve"/>
			<point x="324" y="247" type="line"/>
			<point x="358" y="238"/>
			<point x="372" y="226"/>
		</contour>
	</outline>
	<guideline x="291" y="-55" angle="0"/>
	<guideline x="601" y="638" angle="82"/>
</glyph>
<glyph name="percent" format="2">
	<unicode hex="0025"/>
	<advance width="600"/>
	<outline>
		<contour>
			<point x="186" y="338" type="curve" smooth="yes"/>
			<point x="282" y="338"/>
			<point x="343" y="395"/>
			<point x="359" y="513" type="curve" smooth="yes"/>
			<point x="373" y="619"/>
			<point x="331" y="696"/>
			<point x="221" y="696" type="curve" smooth="yes"/>
			<point x="122" y="696"/>
			<point x="62" y="634"/>
			<point x="48" y="521" type="curve" smooth="yes"/>
			<point x="33" y="404"/>
			<point x="84" y="338"/>
		</contour>
		<contour>
			<point x="384" y="407" type="line"/>
			<point x="522" y="407" type="line"/>
			<point x="649" y="684" type="line"/>
			<point x="472" y="684" type="line"/>
		</contour>
		<contour>
			<point x="191" y="429" type="curve" smooth="yes"/>
			<point x="169" y="429"/>
			<point x="162" y="455"/>
			<point x="170" y="516" type="curve" smooth="yes"/>
			<point x="179" y="583"/>
			<point x="191" y="605"/>
			<point x="214" y="605" type="curve" smooth="yes"/>
			<point x="239" y="605"/>
			<point x="244" y="575"/>
			<point x="236" y="517" type="curve" smooth="yes"/>
			<point x="227" y="453"/>
			<point x="216" y="429"/>
		</contour>
		<contour>
			<point x="402" y="-12" type="curve" smooth="yes"/>
			<point x="498" y="-12"/>
			<point x="560" y="45"/>
			<point x="575" y="163" type="curve" smooth="yes"/>
			<point x="589" y="269"/>
			<point x="547" y="346"/>
			<point x="437" y="346" type="curve" smooth="yes"/>
			<point x="338" y="346"/>
			<point x="278" y="284"/>
			<point x="264" y="171" type="curve" smooth="yes"/>
			<point x="249" y="54"/>
			<point x="300" y="-12"/>
		</contour>
		<contour>
			<point x="-25" y="0" type="line"/>
			<point x="152" y="0" type="line"/>
			<point x="241" y="278" type="line"/>
			<point x="102" y="278" type="line"/>
		</contour>
		<contour>
			<point x="407" y="79" type="curve" smooth="yes"/>
			<point x="385" y="79"/>
			<point x="378" y="105"/>
			<point x="386" y="166" type="curve" smooth="yes"/>
			<point x="395" y="232"/>
			<point x="407" y="255"/>
			<point x="430" y="255" type="curve" smooth="yes"/>
			<point x="455" y="255"/>
			<point x="460" y="225"/>
			<point x="452" y="167" type="curve" smooth="yes"/>
			<point x="443" y="103"/>
			<point x="432" y="79"/>
		</contour>
	</outline>
</glyph>
<glyph name="parenright" format="2">
	<unicode hex="0029"/>
	<advance width="600"/>
	<outline>
		<contour>
			<point x="32" y="-10" type="curve"/>
			<point x="65" y="-169" type="line"/>
			<point x="337" y="-110"/>
			<point x="447" y="53"/>
			<point x="477" y="277" type="curve" smooth="yes"/>
			<point x="510" y="527"/>
			<point x="427" y="705"/>
			<point x="200" y="798" type="curve"/>
			<point x="126" y="639" type="line"/>
			<point x="298" y="570"/>
			<point x="324" y="446"/>
			<point x="301" y="288" type="curve" smooth="yes"/>
			<point x="278" y="125"/>
			<point x="208" y="32"/>
		</contour>
	</outline>
</glyph>
<glyph name="comma" format="2">
	<unicode hex="002C"/>
	<advance width="600"/>
	<outline>
		<contour>
			<point x="200" y="207" type="line"/>
			<point x="103" y="-175" type="line"/>
			<point x="242" y="-175" type="line"/>
			<point x="444" y="207" type="line"/>
		</contour>
	</outline>
</glyph>
<glyph name="slash" format="2">
	<unicode hex="002F"/>
	<advance width="600"/>
	<outline>
		<contour>
			<point x="435" y="792" type="line"/>
			<point x="-16" y="-163" type="line"/>
			<point x="179" y="-163" type="line"/>
			<point x="631" y="792" type="line"/>
		</contour>
	</outline>
</glyph>
<glyph name="one" format="2">
	<unicode hex="0031"/>
	<advance width="600"/>
	<outline>
		<contour>
			<point x="8" y="0" type="line"/>
			<point x="538" y="0" type="line"/>
			<point x="562" y="172" type="line"/>
			<point x="407" y="172" type="line"/>
			<point x="479" y="684" type="line"/>
			<point x="282" y="684" type="line"/>
			<point x="95" y="549" type="line"/>
			<point x="69" y="358" type="line"/>
			<point x="255" y="488" type="line"/>
			<point x="210" y="172" type="line"/>
			<point x="32" y="172" type="line"/>
		</contour>
	</outline>
</glyph>
<glyph name="four" format="2">
	<unicode hex="0034"/>
	<advance width="600"/>
	<outline>
		<contour>
			<point x="278" y="0" type="line"/>
			<point x="472" y="0" type="line"/>
			<point x="489" y="127" type="line"/>
			<point x="545" y="127" type="line"/>
			<point x="566" y="282" type="line"/>
			<point x="511" y="282" type="line"/>
			<point x="568" y="685" type="line"/>
			<point x="259" y="685" type="line"/>
			<point x="26" y="285" type="line"/>
			<point x="4" y="128" type="line"/>
			<point x="295" y="128" type="line"/>
		</contour>
		<contour>
			<point x="202" y="282" type="line"/>
			<point x="354" y="544" type="line"/>
			<point x="317" y="282" type="line"/>
		</contour>
	</outline>
</glyph>
<glyph name="seven" format="2">
	<unicode hex="0037"/>
	<advance width="600"/>
	<outline>
		<contour>
			<point x="83" y="0" type="line"/>
			<point x="304" y="0" type="line"/>
			<point x="592" y="491" type="line"/>
			<point x="619" y="684" type="line"/>
			<point x="98" y="684" type="line"/>
			<point x="60" y="419" type="line"/>
			<point x="234" y="419" type="line"/>
			<point x="251" y="538" type="line"/>
			<point x="409" y="538" type="line"/>
		</contour>
	</outline>
</glyph>
<glyph name="eight" format="2">
	<unicode hex="0038"/>
	<advance width="600"/>
	<outline>
		<contour>
			<point x="279" y="-14" type="curve" smooth="yes"/>
			<point x="474" y="-14"/>
			<point x="561" y="75"/>
			<point x="561" y="199" type="curve" smooth="yes"/>
			<point x="561" y="278"/>
			<point x="521" y="322"/>
			<point x="439" y="343" type="curve"/>
			<point x="521" y="359"/>
			<point x="596" y="420"/>
			<point x="596" y="526" type="curve" smooth="yes"/>
			<point x="596" y="636"/>
			<point x="506" y="698"/>
			<point x="345" y="698" type="curve" smooth="yes"/>
			<point x="182" y="698"/>
			<point x="76" y="629"/>
			<point x="76" y="493" type="curve" smooth="yes"/>
			<point x="76" y="421"/>
			<point x="111" y="371"/>
			<point x="181" y="353" type="curve"/>
			<point x="87" y="336"/>
			<point x="17" y="276"/>
			<point x="17" y="165" type="curve" smooth="yes"/>
			<point x="17" y="39"/>
			<point x="123" y="-14"/>
		</contour>
		<contour>
			<point x="329" y="406" type="curve" smooth="yes"/>
			<point x="282" y="406"/>
			<point x="259" y="428"/>
			<point x="259" y="471" type="curve" smooth="yes"/>
			<point x="259" y="523"/>
			<point x="286" y="553"/>
			<point x="334" y="553" type="curve" smooth="yes"/>
			<point x="381" y="553"/>
			<point x="404" y="531"/>
			<point x="404" y="489" type="curve" smooth="yes"/>
			<point x="404" y="436"/>
			<point x="377" y="406"/>
		</contour>
		<contour>
			<point x="287" y="134" type="curve" smooth="yes"/>
			<point x="238" y="134"/>
			<point x="214" y="157"/>
			<point x="214" y="203" type="curve" smooth="yes"/>
			<point x="214" y="257"/>
			<point x="242" y="288"/>
			<point x="292" y="288" type="curve" smooth="yes"/>
			<point x="341" y="288"/>
			<point x="365" y="265"/>
			<point x="365" y="221" type="curve" smooth="yes"/>
			<point x="365" y="165"/>
			<point x="337" y="134"/>
		</contour>
	</outline>
	<guideline x="212" y="226" angle="90"/>
	<guideline x="399" y="226" angle="90"/>
</glyph>
<glyph name="at" format="2">
	<unicode hex="0040"/>
	<advance width="600"/>
	<outline>
		<contour>
			<point x="330" y="-135" type="curve" smooth="yes"/>
			<point x="423" y="-135"/>
			<point x="482" y="-114"/>
			<point x="513" y="-100" type="curve"/>
			<point x="529" y="26" type="line"/>
			<point x="485" y="5"/>
			<point x="421" y="-10"/>
			<point x="344" y="-10" type="curve" smooth="yes"/>
			<point x="185" y="-10"/>
			<point x="127" y="85"/>
			<point x="156" y="291" type="curve" smooth="yes"/>
			<point x="157" y="298" type="line" smooth="yes"/>
			<point x="184" y="486"/>
			<point x="232" y="572"/>
			<point x="349" y="572" type="curve" smooth="yes"/>
			<point x="433" y="572"/>
			<point x="460" y="531"/>
			<point x="451" y="447" type="curve" smooth="yes"/>
			<point x="445" y="394" type="line"/>
			<point x="427" y="455"/>
			<point x="395" y="492"/>
			<point x="341" y="492" type="curve" smooth="yes"/>
			<point x="270" y="492"/>
			<point x="214" y="418"/>
			<point x="197" y="296" type="curve" smooth="yes"/>
			<point x="176" y="144"/>
			<point x="207" y="61"/>
			<point x="288" y="61" type="curve" smooth="yes"/>
			<point x="337" y="61"/>
			<point x="378" y="94"/>
			<point x="410" y="153" type="curve"/>
			<point x="397" y="67" type="line"/>
			<point x="536" y="67" type="line"/>
			<point x="590" y="447" type="line" smooth="yes"/>
			<point x="614" y="613"/>
			<point x="537" y="698"/>
			<point x="364" y="698" type="curve" smooth="yes"/>
			<point x="163" y="698"/>
			<point x="62" y="567"/>
			<point x="26" y="313" type="curve" smooth="yes"/>
			<point x="24" y="299" type="line" smooth="yes"/>
			<point x="-21" y="-14"/>
			<point x="111" y="-135"/>
		</contour>
		<contour>
			<point x="372" y="177" type="curve" smooth="yes"/>
			<point x="342" y="177"/>
			<point x="326" y="206"/>
			<point x="337" y="282" type="curve" smooth="yes"/>
			<point x="346" y="345"/>
			<point x="363" y="376"/>
			<point x="394" y="376" type="curve" smooth="yes"/>
			<point x="424" y="376"/>
			<point x="442" y="350"/>
			<point x="430" y="271" type="curve" smooth="yes"/>
			<point x="420" y="204"/>
			<point x="403" y="177"/>
		</contour>
	</outline>
	<guideline x="215" y="304" angle="82"/>
	<guideline x="157" y="298" angle="82"/>
</glyph>
<glyph name="A" format="2">
	<unicode hex="0041"/>
	<advance width="600"/>
	<outline>
		<contour>
			<point x="-37" y="0" type="line"/>
			<point x="167" y="0" type="line"/>
			<point x="204" y="115" type="line"/>
			<point x="358" y="115" type="line"/>
			<point x="363" y="0" type="line"/>
			<point x="563" y="0" type="line"/>
			<point x="503" y="684" type="line"/>
			<point x="217" y="684" type="line"/>
		</contour>
		<contour>
			<point x="255" y="270" type="line"/>
			<point x="341" y="533" type="line"/>
			<point x="352" y="270" type="line"/>
		</contour>
	</outline>
	<anchor name="bottom" x="322" y="0"/>
	<anchor name="ogonek" x="563" y="0"/>
	<anchor name="top" x="360" y="684"/>
	<guideline x="568" y="580" angle="180"/>
	<guideline x="591" y="422" angle="90"/>
	<guideline x="437" y="279" angle="0"/>
</glyph>
<glyph name="C" format="2">
	<unicode hex="0043"/>
	<advance width="600"/>
	<outline>
		<contour>
			<point x="381" y="-12" type="curve" smooth="yes"/>
			<point x="437" y="-12"/>
			<point x="486" y="-2"/>
			<point x="520" y="10" type="curve"/>
			<point x="543" y="171" type="line"/>
			<point x="501" y="158"/>
			<point x="464" y="152"/>
			<point x="421" y="152" type="curve" smooth="yes"/>
			<point x="284" y="152"/>
			<point x="235" y="235"/>
			<point x="254" y="368" type="curve" smooth="yes"/>
			<point x="255" y="375" type="line" smooth="yes"/>
			<point x="272" y="491"/>
			<point x="339" y="533"/>
			<point x="444" y="533" type="curve" smooth="yes"/>
			<point x="495" y="533"/>
			<point x="545" y="523"/>
			<point x="590" y="500" type="curve"/>
			<point x="613" y="658" type="line"/>
			<point x="576" y="676"/>
			<point x="513" y="695"/>
			<point x="429" y="695" type="curve" smooth="yes"/>
			<point x="209" y="695"/>
			<point x="79" y="572"/>
			<point x="54" y="396" type="curve" smooth="yes"/>
			<point x="52" y="382" type="line" smooth="yes"/>
			<point x="21" y="163"/>
			<point x="116" y="-12"/>
		</contour>
	</outline>
	<anchor name="bottom" x="344" y="0"/>
	<anchor name="top" x="432" y="684"/>
	<guideline x="76" y="409" angle="82"/>
</glyph>
<glyph name="D" format="2">
	<unicode hex="0044"/>
	<advance width="600"/>
	<outline>
		<contour>
			<point x="5" y="0" type="line"/>
			<point x="285" y="0" type="line" smooth="yes"/>
			<point x="486" y="0"/>
			<point x="564" y="113"/>
			<point x="590" y="305" type="curve" smooth="yes"/>
			<point x="592" y="320" type="line" smooth="yes"/>
			<point x="620" y="533"/>
			<point x="558" y="684"/>
			<point x="353" y="684" type="curve" smooth="yes"/>
			<point x="101" y="684" type="line"/>
		</contour>
		<contour>
			<point x="311" y="527" type="line" smooth="yes"/>
			<point x="386" y="527"/>
			<point x="408" y="485"/>
			<point x="393" y="349" type="curve" smooth="yes"/>
			<point x="392" y="340" type="line" smooth="yes"/>
			<point x="377" y="208"/>
			<point x="346" y="159"/>
			<point x="279" y="159" type="curve" smooth="yes"/>
			<point x="225" y="159" type="line"/>
			<point x="277" y="527" type="line"/>
		</contour>
	</outline>
	<anchor name="bottom" x="270" y="0"/>
	<anchor name="center" x="169" y="342"/>
	<anchor name="top" x="336" y="684"/>
	<guideline x="510" y="367" angle="82"/>
</glyph>
<glyph name="F" format="2">
	<unicode hex="0046"/>
	<advance width="600"/>
	<outline>
		<contour>
			<point x="29" y="0" type="line"/>
			<point x="227" y="0" type="line"/>
			<point x="261" y="245" type="line"/>
			<point x="513" y="245" type="line"/>
			<point x="535" y="402" type="line"/>
			<point x="283" y="402" type="line"/>
			<point x="301" y="525" type="line"/>
			<point x="599" y="525" type="line"/>
			<point x="622" y="684" type="line"/>
			<point x="125" y="684" type="line"/>
		</contour>
	</outline>
	<anchor name="bottom" x="294" y="0"/>
	<anchor name="ogonek" x="538" y="0"/>
	<anchor name="top" x="379" y="684"/>
</glyph>
<glyph name="J" format="2">
	<unicode hex="004A"/>
	<advance width="600"/>
	<outline>
		<contour>
			<point x="223" y="-12" type="curve" smooth="yes"/>
			<point x="393" y="-12"/>
			<point x="502" y="54"/>
			<point x="525" y="220" type="curve" smooth="yes"/>
			<point x="589" y="684" type="line"/>
			<point x="127" y="684" type="line"/>
			<point x="103" y="515" type="line"/>
			<point x="367" y="515" type="line"/>
			<point x="333" y="272" type="line" smooth="yes"/>
			<point x="320" y="183"/>
			<point x="277" y="151"/>
			<point x="197" y="151" type="curve" smooth="yes"/>
			<point x="144" y="151"/>
			<point x="94" y="164"/>
			<point x="59" y="176" type="curve"/>
			<point x="36" y="24" type="line"/>
			<point x="77" y="4"/>
			<point x="144" y="-12"/>
		</contour>
	</outline>
	<anchor name="bottom" x="76" y="0"/>
	<anchor name="top" x="366" y="684"/>
	<guideline x="158" y="836" angle="82"/>
</glyph>
<glyph name="L" format="2">
	<unicode hex="004C"/>
	<advance width="600"/>
	<outline>
		<contour>
			<point x="35" y="0" type="line"/>
			<point x="529" y="0" type="line"/>
			<point x="554" y="181" type="line"/>
			<point x="259" y="181" type="line"/>
			<point x="329" y="684" type="line"/>
			<point x="131" y="684" type="line"/>
		</contour>
	</outline>
	<anchor name="bottom" x="282" y="0"/>
	<anchor name="caron" x="407" y="684"/>
	<anchor name="center" x="191" y="353"/>
	<anchor name="top" x="230" y="684"/>
	<guideline x="244" y="256" angle="90"/>
	<guideline x="32" y="0" angle="82"/>
</glyph>
<glyph name="M" format="2">
	<unicode hex="004D"/>
	<advance width="600"/>
	<outline>
		<contour>
			<point x="-15" y="0" type="line"/>
			<point x="144" y="0" type="line"/>
			<point x="162" y="130" type="line" smooth="yes"/>
			<point x="182" y="273"/>
			<point x="184" y="379"/>
			<point x="185" y="491" type="curve"/>
			<point x="196" y="491" type="line"/>
			<point x="219" y="147" type="line"/>
			<point x="349" y="147" type="line"/>
			<point x="466" y="491" type="line"/>
			<point x="479" y="491" type="line"/>
			<point x="444" y="373"/>
			<point x="418" y="264"/>
			<point x="400" y="131" type="curve" smooth="yes"/>
			<point x="382" y="0" type="line"/>
			<point x="541" y="0" type="line"/>
			<point x="637" y="684" type="line"/>
			<point x="416" y="684" type="line"/>
			<point x="311" y="336" type="line"/>
			<point x="305" y="336" type="line"/>
			<point x="297" y="684" type="line"/>
			<point x="81" y="684" type="line"/>
		</contour>
	</outline>
	<guideline x="1052" y="720" angle="90"/>
	<guideline x="1123" y="229" angle="90"/>
	<guideline x="389" y="383" angle="90"/>
</glyph>
<glyph name="O" format="2">
	<unicode hex="004F"/>
	<advance width="600"/>
	<outline>
		<contour>
			<point x="280" y="-14" type="curve" smooth="yes"/>
			<point x="463" y="-14"/>
			<point x="546" y="115"/>
			<point x="574" y="311" type="curve" smooth="yes"/>
			<point x="576" y="325" type="line" smooth="yes"/>
			<point x="611" y="567"/>
			<point x="539" y="698"/>
			<point x="346" y="698" type="curve" smooth="yes"/>
			<point x="167" y="698"/>
			<point x="77" y="566"/>
			<point x="49" y="373" type="curve" smooth="yes"/>
			<point x="47" y="359" type="line" smooth="yes"/>
			<point x="12" y="117"/>
			<point x="83" y="-14"/>
		</contour>
		<contour>
			<point x="288" y="145" type="curve" smooth="yes"/>
			<point x="239" y="145"/>
			<point x="219" y="181"/>
			<point x="242" y="343" type="curve" smooth="yes"/>
			<point x="243" y="350" type="line" smooth="yes"/>
			<point x="265" y="502"/>
			<point x="289" y="539"/>
			<point x="336" y="539" type="curve" smooth="yes"/>
			<point x="384" y="539"/>
			<point x="404" y="504"/>
			<point x="381" y="343" type="curve" smooth="yes"/>
			<point x="380" y="336" type="line" smooth="yes"/>
			<point x="358" y="183"/>
			<point x="334" y="145"/>
		</contour>
	</outline>
	<anchor name="bottom" x="262" y="0"/>
	<anchor name="center" x="310" y="342"/>
	<anchor name="top" x="351" y="684"/>
</glyph>
<glyph name="P" format="2">
	<unicode hex="0050"/>
	<advance width="600"/>
	<outline>
		<contour>
			<point x="14" y="0" type="line"/>
			<point x="212" y="0" type="line"/>
			<point x="238" y="183" type="line"/>
			<point x="348" y="183" type="line" smooth="yes"/>
			<point x="498" y="183"/>
			<point x="617" y="284"/>
			<point x="617" y="466" type="curve" smooth="yes"/>
			<point x="617" y="606"/>
			<point x="537" y="684"/>
			<point x="379" y="684" type="curve" smooth="yes"/>
			<point x="110" y="684" type="line"/>
		</contour>
		<contour>
			<point x="338" y="528" type="line" smooth="yes"/>
			<point x="401" y="528"/>
			<point x="418" y="495"/>
			<point x="418" y="447" type="curve" smooth="yes"/>
			<point x="418" y="375"/>
			<point x="386" y="339"/>
			<point x="331" y="339" type="curve" smooth="yes"/>
			<point x="260" y="339" type="line"/>
			<point x="286" y="528" type="line"/>
		</contour>
	</outline>
	<anchor name="bottom" x="134" y="0"/>
	<anchor name="top" x="384" y="684"/>
	<guideline x="482" y="551" angle="0"/>
</glyph>
<glyph name="R" format="2">
	<unicode hex="0052"/>
	<advance width="600"/>
	<outline>
		<contour>
			<point x="7" y="0" type="line"/>
			<point x="205" y="0" type="line"/>
			<point x="235" y="214" type="line"/>
			<point x="258" y="214" type="line" smooth="yes"/>
			<point x="302" y="214"/>
			<point x="315" y="202"/>
			<point x="322" y="163" type="curve" smooth="yes"/>
			<point x="350" y="0" type="line"/>
			<point x="557" y="0" type="line"/>
			<point x="521" y="192" type="line" smooth="yes"/>
			<point x="509" y="255"/>
			<point x="480" y="286"/>
			<point x="426" y="298" type="curve"/>
			<point x="529" y="315"/>
			<point x="602" y="376"/>
			<point x="601" y="499" type="curve" smooth="yes"/>
			<point x="600" y="614"/>
			<point x="522" y="684"/>
			<point x="384" y="684" type="curve" smooth="yes"/>
			<point x="103" y="684" type="line"/>
		</contour>
		<contour>
			<point x="324" y="530" type="line" smooth="yes"/>
			<point x="382" y="530"/>
			<point x="400" y="501"/>
			<point x="400" y="461" type="curve" smooth="yes"/>
			<point x="400" y="396"/>
			<point x="369" y="366"/>
			<point x="321" y="366" type="curve" smooth="yes"/>
			<point x="257" y="366" type="line"/>
			<point x="279" y="530" type="line"/>
		</contour>
	</outline>
	<anchor name="bottom" x="281" y="0"/>
	<anchor name="top" x="341" y="684"/>
</glyph>
<glyph name="S" format="2">
	<unicode hex="0053"/>
	<advance width="600"/>
	<outline>
		<contour>
			<point x="283" y="-13" type="curve" smooth="yes"/>
			<point x="463" y="-13"/>
			<point x="561" y="87"/>
			<point x="561" y="240" type="curve" smooth="yes"/>
			<point x="561" y="364"/>
			<point x="495" y="401"/>
			<point x="351" y="435" type="curve" smooth="yes"/>
			<point x="280" y="452"/>
			<point x="261" y="464"/>
			<point x="261" y="492" type="curve" smooth="yes"/>
			<point x="261" y="524"/>
			<point x="285" y="541"/>
			<point x="341" y="541" type="curve" smooth="yes"/>
			<point x="412" y="541"/>
			<point x="517" y="514"/>
			<point x="576" y="474" type="curve"/>
			<point x="600" y="638" type="line"/>
			<point x="555" y="664"/>
			<point x="451" y="698"/>
			<point x="343" y="698" type="curve" smooth="yes"/>
			<point x="158" y="698"/>
			<point x="64" y="599"/>
			<point x="64" y="454" type="curve" smooth="yes"/>
			<point x="64" y="315"/>
			<point x="151" y="281"/>
			<point x="280" y="252" type="curve" smooth="yes"/>
			<point x="337" y="239"/>
			<point x="364" y="233"/>
			<point x="364" y="199" type="curve" smooth="yes"/>
			<point x="364" y="163"/>
			<point x="337" y="146"/>
			<point x="285" y="146" type="curve" smooth="yes"/>
			<point x="208" y="146"/>
			<point x="111" y="180"/>
			<point x="47" y="225" type="curve"/>
			<point x="23" y="59" type="line"/>
			<point x="86" y="17"/>
			<point x="183" y="-13"/>
		</contour>
	</outline>
	<anchor name="bottom" x="278" y="0"/>
	<anchor name="top" x="364" y="684"/>
	<guideline x="308" y="147" angle="0"/>
</glyph>
<glyph name="T" format="2">
	<unicode hex="0054"/>
	<advance width="600"/>
	<outline>
		<contour>
			<point x="164" y="0" type="line"/>
			<point x="362" y="0" type="line"/>
			<point x="435" y="515" type="line"/>
			<point x="618" y="515" type="line"/>
			<point x="641" y="684" type="line"/>
			<point x="78" y="684" type="line"/>
			<point x="54" y="515" type="line"/>
			<point x="237" y="515" type="line"/>
		</contour>
	</outline>
	<anchor name="bottom" x="264" y="0"/>
	<anchor name="center" x="309" y="324"/>
	<anchor name="top" x="360" y="684"/>
</glyph>
<glyph name="U" format="2">
	<unicode hex="0055"/>
	<advance width="600"/>
	<outline>
		<contour>
			<point x="271" y="-14" type="curve" smooth="yes"/>
			<point x="434" y="-14"/>
			<point x="530" y="60"/>
			<point x="554" y="229" type="curve" smooth="yes"/>
			<point x="619" y="684" type="line"/>
			<point x="421" y="684" type="line"/>
			<point x="357" y="229" type="line" smooth="yes"/>
			<point x="350" y="178"/>
			<point x="325" y="149"/>
			<point x="289" y="149" type="curve" smooth="yes"/>
			<point x="249" y="149"/>
			<point x="227" y="176"/>
			<point x="234" y="228" type="curve" smooth="yes"/>
			<point x="298" y="684" type="line"/>
			<point x="100" y="684" type="line"/>
			<point x="37" y="240" type="line" smooth="yes"/>
			<point x="12" y="64"/>
			<point x="106" y="-14"/>
		</contour>
	</outline>
	<anchor name="bottom" x="236" y="0"/>
	<anchor name="ogonek" x="380" y="0"/>
	<anchor name="top" x="360" y="684"/>
	<guideline x="648" y="507" angle="0"/>
</glyph>
<glyph name="W" format="2">
	<unicode hex="0057"/>
	<advance width="600"/>
	<outline>
		<contour>
			<point x="25" y="0" type="line"/>
			<point x="224" y="0" type="line"/>
			<point x="304" y="339" type="line"/>
			<point x="314" y="339" type="line"/>
			<point x="298" y="0" type="line"/>
			<point x="499" y="0" type="line"/>
			<point x="647" y="684" type="line"/>
			<point x="486" y="685" type="line"/>
			<point x="401" y="183" type="line"/>
			<point x="391" y="183" type="line"/>
			<point x="406" y="554" type="line"/>
			<point x="271" y="554" type="line"/>
			<point x="178" y="183" type="line"/>
			<point x="170" y="183" type="line"/>
			<point x="228" y="684" type="line"/>
			<point x="71" y="684" type="line"/>
		</contour>
	</outline>
	<anchor name="top" x="358" y="684"/>
</glyph>
<glyph name="X" format="2">
	<unicode hex="0058"/>
	<advance width="600"/>
	<outline>
		<contour>
			<point x="-37" y="0" type="line"/>
			<point x="186" y="0" type="line"/>
			<point x="293" y="199" type="line"/>
			<point x="349" y="0" type="line"/>
			<point x="563" y="0" type="line"/>
			<point x="441" y="359" type="line"/>
			<point x="646" y="684" type="line"/>
			<point x="425" y="684" type="line"/>
			<point x="331" y="518" type="line"/>
			<point x="283" y="684" type="line"/>
			<point x="71" y="684" type="line"/>
			<point x="186" y="361" type="line"/>
		</contour>
	</outline>
	<anchor name="bottom" x="291" y="0"/>
	<anchor name="top" x="382" y="684"/>
	<guideline x="432" y="592" angle="0"/>
	<guideline x="560" y="204" angle="0"/>
</glyph>
<glyph name="Z" format="2">
	<unicode hex="005A"/>
	<advance width="600"/>
	<outline>
		<contour>
			<point x="-1" y="0" type="line"/>
			<point x="525" y="0" type="line"/>
			<point x="547" y="160" type="line"/>
			<point x="275" y="160" type="line"/>
			<point x="596" y="509" type="line"/>
			<point x="621" y="684" type="line"/>
			<point x="108" y="684" type="line"/>
			<point x="85" y="525" type="line"/>
			<point x="370" y="525" type="line"/>
			<point x="22" y="157" type="line"/>
		</contour>
	</outline>
	<anchor name="bottom" x="262" y="0"/>
	<anchor name="top" x="365" y="684"/>
</glyph>
<glyph name="bracketright" format="2">
	<unicode hex="005D"/>
	<advance width="600"/>
	<outline>
		<contour>
			<point x="23" y="-163" type="line"/>
			<point x="397" y="-163" type="line"/>
			<point x="532" y="792" type="line"/>
			<point x="158" y="792" type="line"/>
			<point x="138" y="655" type="line"/>
			<point x="332" y="655" type="line"/>
			<point x="236" y="-26" type="line"/>
			<point x="42" y="-26" type="line"/>
		</contour>
	</outline>
</glyph>
<glyph name="asciicircum" format="2">
	<unicode hex="005E"/>
	<advance width="600"/>
	<outline>
		<contour>
			<point x="41" y="233" type="line"/>
			<point x="206" y="233" type="line"/>
			<point x="327" y="446" type="line"/>
			<point x="390" y="233" type="line"/>
			<point x="551" y="233" type="line"/>
			<point x="430" y="591" type="line"/>
			<point x="258" y="591" type="line"/>
		</contour>
	</outline>
</glyph>
<glyph name="d" format="2">
	<unicode hex="0064"/>
	<advance width="600"/>
	<outline>
		<contour>
			<point x="180" y="-14" type="curve" smooth="yes"/>
			<point x="245" y="-14"/>
			<point x="300" y="25"/>
			<point x="347" y="103" type="curve"/>
			<point x="332" y="0" type="line"/>
			<point x="518" y="0" type="line"/>
			<point x="623" y="750" type="line"/>
			<point x="428" y="750" type="line"/>
			<point x="396" y="523" type="line"/>
			<point x="359" y="523" type="line" smooth="yes"/>
			<point x="170" y="523"/>
			<point x="58" y="423"/>
			<point x="34" y="258" type="curve" smooth="yes"/>
			<point x="32" y="244" type="line" smooth="yes"/>
			<point x="9" y="86"/>
			<point x="63" y="-14"/>
		</contour>
		<contour>
			<point x="229" y="252" type="curve" smooth="yes"/>
			<point x="230" y="259" type="line"/>
			<point x="242" y="343"/>
			<point x="277" y="375"/>
			<point x="346" y="375" type="curve" smooth="yes"/>
			<point x="376" y="375" type="line"/>
			<point x="353" y="212" type="line" smooth="yes"/>
			<point x="346" y="158"/>
			<point x="320" y="136"/>
			<point x="283" y="136" type="curve" smooth="yes"/>
			<point x="236" y="136"/>
			<point x="219" y="180"/>
		</contour>
	</outline>
	<anchor name="caron" x="669" y="750"/>
	<anchor name="center" x="463" y="634"/>
	<anchor name="ogonek" x="558" y="0"/>
	<anchor name="top" x="415" y="550"/>
	<guideline x="518" y="0" angle="82"/>
</glyph>
<glyph name="e" format="2">
	<unicode hex="0065"/>
	<advance width="600"/>
	<outline>
		<contour>
			<point x="314" y="-14" type="curve" smooth="yes"/>
			<point x="400" y="-14"/>
			<point x="464" y="3"/>
			<point x="501" y="20" type="curve"/>
			<point x="520" y="163" type="line"/>
			<point x="485" y="152"/>
			<point x="426" y="139"/>
			<point x="373" y="139" type="curve" smooth="yes"/>
			<point x="277" y="139"/>
			<point x="238" y="163"/>
			<point x="228" y="214" type="curve"/>
			<point x="557" y="214" type="line"/>
			<point x="563" y="262" type="line" smooth="yes"/>
			<point x="584" y="431"/>
			<point x="500" y="537"/>
			<point x="328" y="537" type="curve" smooth="yes"/>
			<point x="179" y="537"/>
			<point x="66" y="449"/>
			<point x="44" y="297" type="curve" smooth="yes"/>
			<point x="42" y="283" type="line" smooth="yes"/>
			<point x="17" y="105"/>
			<point x="108" y="-14"/>
		</contour>
		<contour>
			<point x="318" y="405" type="curve" smooth="yes"/>
			<point x="363" y="405"/>
			<point x="389" y="379"/>
			<point x="382" y="315" type="curve"/>
			<point x="232" y="315" type="line"/>
			<point x="242" y="371"/>
			<point x="268" y="405"/>
		</contour>
	</outline>
	<anchor name="ogonek" x="441" y="0"/>
	<anchor name="top" x="334" y="523"/>
	<guideline x="354" y="455" angle="90"/>
	<guideline x="39" y="302" angle="82"/>
</glyph>
<glyph name="f" format="2">
	<unicode hex="0066"/>
	<advance width="600"/>
	<outline>
		<contour>
			<point x="107" y="-204" type="curve" smooth="yes"/>
			<point x="244" y="-204"/>
			<point x="331" y="-143"/>
			<point x="351" y="-2" type="curve" smooth="yes"/>
			<point x="404" y="374" type="line"/>
			<point x="582" y="374" type="line"/>
			<point x="603" y="523" type="line"/>
			<point x="425" y="523" type="line"/>
			<point x="430" y="562" type="line" smooth="yes"/>
			<point x="435" y="599"/>
			<point x="468" y="618"/>
			<point x="520" y="618" type="curve" smooth="yes"/>
			<point x="552" y="618"/>
			<point x="589" y="613"/>
			<point x="612" y="605" type="curve"/>
			<point x="631" y="737" type="line"/>
			<point x="603" y="747"/>
			<point x="543" y="760"/>
			<point x="484" y="760" type="curve" smooth="yes"/>
			<point x="365" y="760"/>
			<point x="255" y="721"/>
			<point x="237" y="581" type="curve" smooth="yes"/>
			<point x="229" y="523" type="line"/>
			<point x="92" y="523" type="line"/>
			<point x="70" y="374" type="line"/>
			<point x="209" y="374" type="line"/>
			<point x="159" y="16" type="line" smooth="yes"/>
			<point x="152" y="-32"/>
			<point x="129" y="-55"/>
			<point x="73" y="-55" type="curve" smooth="yes"/>
			<point x="35" y="-55"/>
			<point x="3" y="-47"/>
			<point x="-23" y="-37" type="curve"/>
			<point x="-43" y="-173" type="line"/>
			<point x="-6" y="-192"/>
			<point x="50" y="-204"/>
		</contour>
	</outline>
	<guideline x="74" y="1" angle="82"/>
</glyph>
<glyph name="g" format="2">
	<unicode hex="0067"/>
	<advance width="600"/>
	<outline>
		<contour>
			<point x="183" y="-211" type="curve" smooth="yes"/>
			<point x="222" y="-211" type="line" smooth="yes"/>
			<point x="405" y="-211"/>
			<point x="554" y="-139"/>
			<point x="554" y="2" type="curve" smooth="yes"/>
			<point x="554" y="78"/>
			<point x="494" y="117"/>
			<point x="379" y="117" type="curve" smooth="yes"/>
			<point x="244" y="117" type="line" smooth="yes"/>
			<point x="219" y="117"/>
			<point x="194" y="119"/>
			<point x="194" y="136" type="curve" smooth="yes"/>
			<point x="194" y="154"/>
			<point x="213" y="165"/>
			<point x="246" y="165" type="curve" smooth="yes"/>
			<point x="284" y="165" type="line" smooth="yes"/>
			<point x="417" y="165"/>
			<point x="539" y="222"/>
			<point x="539" y="356" type="curve" smooth="yes"/>
			<point x="539" y="358"/>
			<point x="538" y="366"/>
			<point x="536" y="374" type="curve"/>
			<point x="614" y="374" type="line"/>
			<point x="635" y="523" type="line"/>
			<point x="306" y="523" type="line" smooth="yes"/>
			<point x="164" y="523"/>
			<point x="49" y="458"/>
			<point x="49" y="328" type="curve" smooth="yes"/>
			<point x="49" y="259"/>
			<point x="89" y="206"/>
			<point x="156" y="180" type="curve"/>
			<point x="55" y="155"/>
			<point x="12" y="120"/>
			<point x="12" y="64" type="curve" smooth="yes"/>
			<point x="12" y="23"/>
			<point x="50" y="-7"/>
			<point x="119" y="-15" type="curve"/>
			<point x="11" y="-33"/>
			<point x="-43" y="-68"/>
			<point x="-43" y="-116" type="curve" smooth="yes"/>
			<point x="-43" y="-171"/>
			<point x="20" y="-211"/>
		</contour>
		<contour>
			<point x="360" y="348" type="curve" smooth="yes"/>
			<point x="360" y="302"/>
			<point x="337" y="270"/>
			<point x="293" y="270" type="curve" smooth="yes"/>
			<point x="257" y="270"/>
			<point x="233" y="288"/>
			<point x="233" y="332" type="curve" smooth="yes"/>
			<point x="233" y="379"/>
			<point x="257" y="409"/>
			<point x="302" y="409" type="curve" smooth="yes"/>
			<point x="337" y="409"/>
			<point x="360" y="395"/>
		</contour>
		<contour>
			<point x="278" y="-101" type="curve" smooth="yes"/>
			<point x="218" y="-101" type="line"/>
			<point x="168" y="-101"/>
			<point x="144" y="-89"/>
			<point x="144" y="-68" type="curve" smooth="yes"/>
			<point x="144" y="-42"/>
			<point x="185" y="-26"/>
			<point x="233" y="-26" type="curve" smooth="yes"/>
			<point x="303" y="-26" type="line" smooth="yes"/>
			<point x="341" y="-26"/>
			<point x="362" y="-36"/>
			<point x="362" y="-56" type="curve" smooth="yes"/>
			<point x="362" y="-85"/>
			<point x="330" y="-101"/>
		</contour>
	</outline>
	<anchor name="bottom" x="247" y="-227"/>
	<anchor name="top" x="326" y="523"/>
</glyph>
<glyph name="h" format="2">
	<unicode hex="0068"/>
	<advance width="600"/>
	<outline>
		<contour>
			<point x="442" y="537" type="curve" smooth="yes"/>
			<point x="375" y="537"/>
			<point x="319" y="496"/>
			<point x="269" y="427" type="curve"/>
			<point x="314" y="750" type="line"/>
			<point x="119" y="750" type="line"/>
			<point x="14" y="0" type="line"/>
			<point x="209" y="0" type="line"/>
			<point x="253" y="317" type="line" smooth="yes"/>
			<point x="256" y="336"/>
			<point x="263" y="351"/>
			<point x="273" y="361" type="curve" smooth="yes"/>
			<point x="284" y="372"/>
			<point x="300" y="378"/>
			<point x="318" y="378" type="curve" smooth="yes"/>
			<point x="363" y="378"/>
			<point x="374" y="352"/>
			<point x="367" y="303" type="curve" smooth="yes"/>
			<point x="324" y="0" type="line"/>
			<point x="519" y="0" type="line"/>
			<point x="567" y="338" type="line" smooth="yes"/>
			<point x="584" y="459"/>
			<point x="545" y="537"/>
		</contour>
	</outline>
	<anchor name="bottom" x="265" y="0"/>
	<anchor name="caron" x="368" y="750"/>
	<anchor name="center" x="242" y="634"/>
	<anchor name="top" x="214" y="736"/>
</glyph>
<glyph name="i" format="2">
	<unicode hex="0069"/>
	<advance width="600"/>
	<outline>
		<contour>
			<point x="374" y="582" type="curve" smooth="yes"/>
			<point x="450" y="582"/>
			<point x="485" y="608"/>
			<point x="492" y="668" type="curve" smooth="yes"/>
			<point x="499" y="732"/>
			<point x="469" y="760"/>
			<point x="387" y="760" type="curve" smooth="yes"/>
			<point x="311" y="760"/>
			<point x="276" y="735"/>
			<point x="269" y="675" type="curve" smooth="yes"/>
			<point x="262" y="611"/>
			<point x="292" y="582"/>
		</contour>
		<contour>
			<point x="25" y="0" type="line"/>
			<point x="530" y="0" type="line"/>
			<point x="551" y="149" type="line"/>
			<point x="403" y="149" type="line"/>
			<point x="456" y="523" type="line"/>
			<point x="101" y="523" type="line"/>
			<point x="79" y="374" type="line"/>
			<point x="240" y="374" type="line"/>
			<point x="208" y="149" type="line"/>
			<point x="47" y="149" type="line"/>
		</contour>
	</outline>
	<anchor name="ogonek" x="530" y="0"/>
	<guideline x="228" y="0" angle="82"/>
	<guideline x="24" y="0" angle="82"/>
</glyph>
<glyph name="k" format="2">
	<unicode hex="006B"/>
	<advance width="600"/>
	<outline>
		<contour>
			<point x="10" y="0" type="line"/>
			<point x="205" y="0" type="line"/>
			<point x="232" y="196" type="line"/>
			<point x="338" y="0" type="line"/>
			<point x="560" y="0" type="line"/>
			<point x="442" y="199" type="line"/>
			<point x="523" y="226"/>
			<point x="587" y="296"/>
			<point x="587" y="391" type="curve" smooth="yes"/>
			<point x="587" y="472"/>
			<point x="538" y="537"/>
			<point x="445" y="537" type="curve" smooth="yes"/>
			<point x="377" y="537"/>
			<point x="319" y="504"/>
			<point x="267" y="433" type="curve"/>
			<point x="311" y="750" type="line"/>
			<point x="116" y="750" type="line"/>
		</contour>
		<contour>
			<point x="328" y="392" type="curve" smooth="yes"/>
			<point x="372" y="392"/>
			<point x="390" y="366"/>
			<point x="390" y="335" type="curve" smooth="yes"/>
			<point x="390" y="292"/>
			<point x="356" y="252"/>
			<point x="291" y="252" type="curve" smooth="yes"/>
			<point x="240" y="252" type="line"/>
			<point x="250" y="321" type="line" smooth="yes"/>
			<point x="256" y="363"/>
			<point x="278" y="392"/>
		</contour>
	</outline>
	<anchor name="bottom" x="272" y="0"/>
	<guideline x="12" y="0" angle="82"/>
</glyph>
<glyph name="l" format="2">
	<unicode hex="006C"/>
	<advance width="600"/>
	<outline>
		<contour>
			<point x="17" y="0" type="line"/>
			<point x="522" y="0" type="line"/>
			<point x="543" y="149" type="line"/>
			<point x="395" y="149" type="line"/>
			<point x="480" y="750" type="line"/>
			<point x="125" y="750" type="line"/>
			<point x="103" y="601" type="line"/>
			<point x="264" y="601" type="line"/>
			<point x="199" y="149" type="line"/>
			<point x="39" y="149" type="line"/>
		</contour>
	</outline>
	<anchor name="bottom" x="276" y="0"/>
	<anchor name="caron" x="538" y="750"/>
	<anchor name="center" x="326" y="368"/>
	<anchor name="top" x="380" y="736"/>
	<guideline x="22" y="3" angle="82"/>
</glyph>
<glyph name="m" format="2">
	<unicode hex="006D"/>
	<advance width="600"/>
	<outline>
		<contour>
			<point x="-12" y="0" type="line"/>
			<point x="132" y="0" type="line"/>
			<point x="179" y="340" type="line" smooth="yes"/>
			<point x="181" y="354"/>
			<point x="185" y="366"/>
			<point x="193" y="374" type="curve" smooth="yes"/>
			<point x="200" y="381"/>
			<point x="209" y="385"/>
			<point x="220" y="385" type="curve" smooth="yes"/>
			<point x="246" y="385"/>
			<point x="253" y="366"/>
			<point x="248" y="331" type="curve" smooth="yes"/>
			<point x="203" y="0" type="line"/>
			<point x="324" y="0" type="line"/>
			<point x="372" y="341" type="line"/>
			<point x="374" y="356"/>
			<point x="378" y="366"/>
			<point x="386" y="374" type="curve" smooth="yes"/>
			<point x="393" y="381"/>
			<point x="401" y="385"/>
			<point x="413" y="385" type="curve" smooth="yes"/>
			<point x="440" y="385"/>
			<point x="446" y="366"/>
			<point x="441" y="331" type="curve" smooth="yes"/>
			<point x="395" y="0" type="line"/>
			<point x="539" y="0" type="line"/>
			<point x="591" y="380" type="line" smooth="yes"/>
			<point x="605" y="486"/>
			<point x="583" y="537"/>
			<point x="516" y="537" type="curve" smooth="yes"/>
			<point x="461" y="537"/>
			<point x="418" y="492"/>
			<point x="382" y="425" type="curve"/>
			<point x="386" y="495"/>
			<point x="361" y="537"/>
			<point x="310" y="537" type="curve" smooth="yes"/>
			<point x="256" y="537"/>
			<point x="217" y="492"/>
			<point x="183" y="424" type="curve"/>
			<point x="196" y="523" type="line"/>
			<point x="61" y="523" type="line"/>
		</contour>
	</outline>
	<anchor name="bottom" x="271" y="0"/>
	<anchor name="top" x="392" y="523"/>
	<guideline x="-20" y="0" angle="82"/>
</glyph>
<glyph name="o" format="2">
	<unicode hex="006F"/>
	<advance width="600"/>
	<outline>
		<contour>
			<point x="277" y="-14" type="curve" smooth="yes"/>
			<point x="444" y="-14"/>
			<point x="543" y="81"/>
			<point x="565" y="232" type="curve" smooth="yes"/>
			<point x="567" y="246" type="line" smooth="yes"/>
			<point x="592" y="421"/>
			<point x="496" y="537"/>
			<point x="325" y="537" type="curve" smooth="yes"/>
			<point x="162" y="537"/>
			<point x="56" y="440"/>
			<point x="35" y="291" type="curve" smooth="yes"/>
			<point x="33" y="277" type="line" smooth="yes"/>
			<point x="7" y="98"/>
			<point x="103" y="-14"/>
		</contour>
		<contour>
			<point x="286" y="135" type="curve" smooth="yes"/>
			<point x="240" y="135"/>
			<point x="218" y="173"/>
			<point x="231" y="264" type="curve" smooth="yes"/>
			<point x="232" y="271" type="line" smooth="yes"/>
			<point x="244" y="354"/>
			<point x="270" y="389"/>
			<point x="313" y="389" type="curve" smooth="yes"/>
			<point x="359" y="389"/>
			<point x="382" y="353"/>
			<point x="369" y="262" type="curve" smooth="yes"/>
			<point x="368" y="255" type="line" smooth="yes"/>
			<point x="356" y="171"/>
			<point x="328" y="135"/>
		</contour>
	</outline>
	<anchor name="bottom" x="256" y="-15"/>
	<anchor name="center" x="299" y="261"/>
	<anchor name="top" x="328" y="523"/>
	<guideline x="406" y="278" angle="82"/>
	<guideline x="402" y="276" angle="82"/>
	<guideline x="231" y="179" angle="0"/>
	<guideline x="244" y="354" angle="0"/>
</glyph>
<glyph name="s" format="2">
	<unicode hex="0073"/>
	<advance width="600"/>
	<outline>
		<contour>
			<point x="267" y="-14" type="curve" smooth="yes"/>
			<point x="435" y="-14"/>
			<point x="523" y="58"/>
			<point x="523" y="196" type="curve" smooth="yes"/>
			<point x="523" y="297"/>
			<point x="437" y="320"/>
			<point x="332" y="342" type="curve" smooth="yes"/>
			<point x="278" y="353"/>
			<point x="263" y="362"/>
			<point x="263" y="380" type="curve" smooth="yes"/>
			<point x="263" y="399"/>
			<point x="283" y="406"/>
			<point x="317" y="406" type="curve" smooth="yes"/>
			<point x="391" y="406"/>
			<point x="476" y="385"/>
			<point x="540" y="351" type="curve"/>
			<point x="560" y="492" type="line"/>
			<point x="504" y="517"/>
			<point x="418" y="537"/>
			<point x="328" y="537" type="curve" smooth="yes"/>
			<point x="155" y="537"/>
			<point x="79" y="453"/>
			<point x="79" y="335" type="curve" smooth="yes"/>
			<point x="79" y="224"/>
			<point x="169" y="195"/>
			<point x="270" y="180" type="curve" smooth="yes"/>
			<point x="327" y="172"/>
			<point x="340" y="164"/>
			<point x="340" y="148" type="curve" smooth="yes"/>
			<point x="340" y="124"/>
			<point x="314" y="118"/>
			<point x="277" y="118" type="curve" smooth="yes"/>
			<point x="208" y="118"/>
			<point x="122" y="142"/>
			<point x="62" y="179" type="curve"/>
			<point x="42" y="40" type="line"/>
			<point x="82" y="12"/>
			<point x="168" y="-14"/>
		</contour>
	</outline>
	<anchor name="bottom" x="273" y="0"/>
	<anchor name="top" x="348" y="523"/>
	<guideline x="42" y="40" angle="82"/>
</glyph>
<glyph name="t" format="2">
	<unicode hex="0074"/>
	<advance width="600"/>
	<outline>
		<contour>
			<point x="349" y="-12" type="curve" smooth="yes"/>
			<point x="414" y="-12"/>
			<point x="461" y="-2"/>
			<point x="490" y="12" type="curve"/>
			<point x="509" y="150" type="line"/>
			<point x="485" y="143"/>
			<point x="458" y="139"/>
			<point x="430" y="139" type="curve" smooth="yes"/>
			<point x="371" y="139"/>
			<point x="342" y="153"/>
			<point x="351" y="220" type="curve" smooth="yes"/>
			<point x="373" y="374" type="line"/>
			<point x="550" y="374" type="line"/>
			<point x="570" y="523" type="line"/>
			<point x="397" y="523" type="line"/>
			<point x="421" y="692" type="line"/>
			<point x="241" y="692" type="line"/>
			<point x="221" y="592" type="line" smooth="yes"/>
			<point x="208" y="527"/>
			<point x="176" y="516"/>
			<point x="129" y="516" type="curve" smooth="yes"/>
			<point x="70" y="516" type="line"/>
			<point x="50" y="374" type="line"/>
			<point x="178" y="374" type="line"/>
			<point x="154" y="198" type="line" smooth="yes"/>
			<point x="134" y="49"/>
			<point x="197" y="-12"/>
		</contour>
	</outline>
	<anchor name="bottom" x="313" y="0"/>
	<anchor name="caron" x="516" y="780"/>
	<anchor name="center" x="272" y="270"/>
	<guideline x="464" y="557" angle="0"/>
</glyph>
<glyph name="u" format="2">
	<unicode hex="0075"/>
	<advance width="600"/>
	<outline>
		<contour>
			<point x="588" y="523" type="line"/>
			<point x="393" y="523" type="line"/>
			<point x="348" y="205" type="line" smooth="yes"/>
			<point x="345" y="185"/>
			<point x="338" y="169"/>
			<point x="327" y="158" type="curve" smooth="yes"/>
			<point x="316" y="147"/>
			<point x="301" y="141"/>
			<point x="283" y="141" type="curve" smooth="yes"/>
			<point x="238" y="141"/>
			<point x="227" y="167"/>
			<point x="234" y="216" type="curve" smooth="yes"/>
			<point x="278" y="523" type="line"/>
			<point x="83" y="523" type="line"/>
			<point x="35" y="185" type="line" smooth="yes"/>
			<point x="18" y="64"/>
			<point x="50" y="-14"/>
			<point x="164" y="-14" type="curve" smooth="yes"/>
			<point x="232" y="-14"/>
			<point x="297" y="30"/>
			<point x="345" y="104" type="curve"/>
			<point x="330" y="0" type="line"/>
			<point x="515" y="0" type="line"/>
		</contour>
	</outline>
	<anchor name="bottom" x="276" y="0"/>
	<anchor name="ogonek" x="515" y="0"/>
	<anchor name="top" x="336" y="523"/>
	<guideline x="283" y="139" angle="0"/>
</glyph>
<glyph name="y" format="2">
	<unicode hex="0079"/>
	<advance width="600"/>
	<outline>
		<contour>
			<point x="203" y="-204" type="curve" smooth="yes"/>
			<point x="346" y="-204"/>
			<point x="494" y="-150"/>
			<point x="523" y="58" type="curve" smooth="yes"/>
			<point x="587" y="523" type="line"/>
			<point x="393" y="523" type="line"/>
			<point x="354" y="239" type="line" smooth="yes"/>
			<point x="351" y="220"/>
			<point x="344" y="203"/>
			<point x="333" y="192" type="curve" smooth="yes"/>
			<point x="322" y="181"/>
			<point x="307" y="175"/>
			<point x="289" y="175" type="curve" smooth="yes"/>
			<point x="244" y="175"/>
			<point x="233" y="201"/>
			<point x="240" y="251" type="curve" smooth="yes"/>
			<point x="279" y="523" type="line"/>
			<point x="83" y="523" type="line"/>
			<point x="38" y="205" type="line" smooth="yes"/>
			<point x="21" y="84"/>
			<point x="79" y="23"/>
			<point x="167" y="23" type="curve" smooth="yes"/>
			<point x="240" y="23"/>
			<point x="287" y="56"/>
			<point x="338" y="124" type="curve"/>
			<point x="332" y="76" type="line" smooth="yes"/>
			<point x="321" y="-14"/>
			<point x="268" y="-54"/>
			<point x="184" y="-54" type="curve" smooth="yes"/>
			<point x="110" y="-54"/>
			<point x="53" y="-28"/>
			<point x="14" y="-4" type="curve"/>
			<point x="-7" y="-154" type="line"/>
			<point x="40" y="-182"/>
			<point x="116" y="-204"/>
		</contour>
	</outline>
	<anchor name="top" x="336" y="523"/>
</glyph>
<glyph name="z" format="2">
	<unicode hex="007A"/>
	<advance width="600"/>
	<outline>
		<contour>
			<point x="26" y="0" type="line"/>
			<point x="500" y="0" type="line"/>
			<point x="521" y="150" type="line"/>
			<point x="301" y="150" type="line"/>
			<point x="549" y="373" type="line"/>
			<point x="570" y="523" type="line"/>
			<point x="105" y="523" type="line"/>
			<point x="84" y="374" type="line"/>
			<point x="292" y="374" type="line"/>
			<point x="48" y="154" type="line"/>
		</contour>
	</outline>
	<anchor name="bottom" x="263" y="0"/>
	<anchor name="top" x="337" y="523"/>
</glyph>
<glyph name="braceleft" format="2">
	<unicode hex="007B"/>
	<advance width="600"/>
	<outline>
		<contour>
			<point x="70" y="233" type="line"/>
			<point x="163" y="233" type="line" smooth="yes"/>
			<point x="198" y="233"/>
			<point x="211" y="210"/>
			<point x="211" y="189" type="curve" smooth="yes"/>
			<point x="211" y="117"/>
			<point x="92" y="86"/>
			<point x="92" y="-32" type="curve" smooth="yes"/>
			<point x="92" y="-108"/>
			<point x="152" y="-163"/>
			<point x="251" y="-163" type="curve" smooth="yes"/>
			<point x="459" y="-163" type="line"/>
			<point x="478" y="-26" type="line"/>
			<point x="355" y="-26" type="line" smooth="yes"/>
			<point x="318" y="-26"/>
			<point x="299" y="-14"/>
			<point x="299" y="11" type="curve" smooth="yes"/>
			<point x="299" y="71"/>
			<point x="412" y="103"/>
			<point x="412" y="205" type="curve" smooth="yes"/>
			<point x="412" y="249"/>
			<point x="375" y="294"/>
			<point x="301" y="312" type="curve"/>
			<point x="371" y="321"/>
			<point x="449" y="360"/>
			<point x="449" y="439" type="curve" smooth="yes"/>
			<point x="449" y="507"/>
			<point x="377" y="560"/>
			<point x="377" y="609" type="curve" smooth="yes"/>
			<point x="377" y="641"/>
			<point x="398" y="655"/>
			<point x="441" y="655" type="curve" smooth="yes"/>
			<point x="574" y="655" type="line"/>
			<point x="594" y="792" type="line"/>
			<point x="355" y="792" type="line" smooth="yes"/>
			<point x="260" y="792"/>
			<point x="186" y="729"/>
			<point x="186" y="642" type="curve" smooth="yes"/>
			<point x="186" y="557"/>
			<point x="255" y="496"/>
			<point x="255" y="448" type="curve" smooth="yes"/>
			<point x="255" y="418"/>
			<point x="232" y="392"/>
			<point x="207" y="392" type="curve" smooth="yes"/>
			<point x="91" y="392" type="line"/>
		</contour>
	</outline>
</glyph>
<glyph name="bar" format="2">
	<unicode hex="007C"/>
	<advance width="600"/>
	<outline>
		<contour>
			<point x="284" y="792" type="line"/>
			<point x="150" y="-163" type="line"/>
			<point x="331" y="-163" type="line"/>
			<point x="465" y="792" type="line"/>
		</contour>
	</outline>
	<guideline x="350" y="-123" angle="82"/>
</glyph>
<glyph name="exclamdown" format="2">
	<unicode hex="00A1"/>
	<advance width="600"/>
	<outline>
		<contour>
			<point x="331" y="535" type="curve" smooth="yes"/>
			<point x="257" y="535"/>
			<point x="219" y="508"/>
			<point x="209" y="442" type="curve" smooth="yes"/>
			<point x="196" y="359"/>
			<point x="240" y="328"/>
			<point x="316" y="328" type="curve" smooth="yes"/>
			<point x="390" y="328"/>
			<point x="428" y="355"/>
			<point x="438" y="420" type="curve" smooth="yes"/>
			<point x="451" y="504"/>
			<point x="407" y="535"/>
		</contour>
		<contour>
			<point x="371" y="268" type="line"/>
			<point x="231" y="268" type="line"/>
			<point x="150" y="-51" type="line"/>
			<point x="134" y="-161" type="line"/>
			<point x="347" y="-161" type="line"/>
			<point x="363" y="-51" type="line"/>
		</contour>
	</outline>
</glyph>
<glyph name="sterling" format="2">
	<unicode hex="00A3"/>
	<advance width="600"/>
	<outline>
		<contour>
			<point x="30" y="153" type="curve"/>
			<point x="9" y="0" type="line"/>
			<point x="520" y="0" type="line"/>
			<point x="543" y="160" type="line"/>
			<point x="248" y="160" type="line"/>
			<point x="280" y="183"/>
			<point x="302" y="215"/>
			<point x="311" y="263" type="curve"/>
			<point x="477" y="263" type="line"/>
			<point x="497" y="405" type="line"/>
			<point x="317" y="405" type="line"/>
			<point x="313" y="421"/>
			<point x="311" y="436"/>
			<point x="311" y="448" type="curve" smooth="yes"/>
			<point x="311" y="505"/>
			<point x="345" y="534"/>
			<point x="408" y="534" type="curve" smooth="yes"/>
			<point x="479" y="534"/>
			<point x="541" y="513"/>
			<point x="588" y="484" type="curve"/>
			<point x="611" y="645" type="line"/>
			<point x="560" y="673"/>
			<point x="486" y="698"/>
			<point x="378" y="698" type="curve" smooth="yes"/>
			<point x="232" y="698"/>
			<point x="120" y="626"/>
			<point x="120" y="489" type="curve" smooth="yes"/>
			<point x="120" y="463"/>
			<point x="126" y="431"/>
			<point x="134" y="405" type="curve"/>
			<point x="54" y="405" type="line"/>
			<point x="34" y="263" type="line"/>
			<point x="121" y="263" type="line"/>
			<point x="109" y="222"/>
			<point x="73" y="182"/>
		</contour>
	</outline>
	<guideline x="-22" y="157" angle="90"/>
	<guideline x="260" y="393" angle="90"/>
	<guideline x="536" y="160" angle="82"/>
</glyph>
<glyph name="currency" format="2">
	<unicode hex="00A4"/>
	<advance width="600"/>
	<outline>
		<contour>
			<point x="69" y="13" type="line"/>
			<point x="178" y="116" type="line"/>
			<point x="206" y="102"/>
			<point x="239" y="94"/>
			<point x="276" y="94" type="curve" smooth="yes"/>
			<point x="316" y="94"/>
			<point x="354" y="103"/>
			<point x="388" y="119" type="curve"/>
			<point x="468" y="17" type="line"/>
			<point x="584" y="117" type="line"/>
			<point x="497" y="223" type="line"/>
			<point x="516" y="257"/>
			<point x="530" y="296"/>
			<point x="536" y="340" type="curve" smooth="yes"/>
			<point x="543" y="386"/>
			<point x="540" y="427"/>
			<point x="529" y="461" type="curve"/>
			<point x="644" y="568" type="line"/>
			<point x="550" y="668" type="line"/>
			<point x="440" y="566" type="line"/>
			<point x="413" y="579"/>
			<point x="381" y="586"/>
			<point x="346" y="586" type="curve" smooth="yes"/>
			<point x="308" y="586"/>
			<point x="271" y="578"/>
			<point x="238" y="563" type="curve"/>
			<point x="158" y="662" type="line"/>
			<point x="43" y="560" type="line"/>
			<point x="126" y="460" type="line"/>
			<point x="106" y="426"/>
			<point x="92" y="386"/>
			<point x="85" y="340" type="curve" smooth="yes"/>
			<point x="79" y="295"/>
			<point x="81" y="256"/>
			<point x="91" y="222" type="curve"/>
			<point x="-25" y="115" type="line"/>
		</contour>
		<contour>
			<point x="296" y="236" type="curve" smooth="yes"/>
			<point x="245" y="236"/>
			<point x="224" y="272"/>
			<point x="233" y="340" type="curve" smooth="yes"/>
			<point x="243" y="408"/>
			<point x="275" y="444"/>
			<point x="326" y="444" type="curve" smooth="yes"/>
			<point x="376" y="444"/>
			<point x="398" y="408"/>
			<point x="388" y="340" type="curve" smooth="yes"/>
			<point x="379" y="272"/>
			<point x="347" y="236"/>
		</contour>
	</outline>
	<guideline x="469" y="17" angle="0"/>
	<guideline x="158" y="662" angle="0"/>
</glyph>
<glyph name="brokenbar" format="2">
	<unicode hex="00A6"/>
	<advance width="600"/>
	<outline>
		<contour>
			<point x="284" y="792" type="line"/>
			<point x="232" y="418" type="line"/>
			<point x="413" y="418" type="line"/>
			<point x="465" y="792" type="line"/>
		</contour>
		<contour>
			<point x="207" y="244" type="line"/>
			<point x="150" y="-163" type="line"/>
			<point x="331" y="-163" type="line"/>
			<point x="388" y="244" type="line"/>
		</contour>
	</outline>
</glyph>
<glyph name="registered" format="2">
	<unicode hex="00AE"/>
	<advance width="600"/>
	<outline>
		<contour>
			<point x="302" y="101" type="curve" smooth="yes"/>
			<point x="439" y="101"/>
			<point x="557" y="181"/>
			<point x="579" y="335" type="curve" smooth="yes"/>
			<point x="581" y="349" type="line" smooth="yes"/>
			<point x="609" y="545"/>
			<point x="495" y="657"/>
			<point x="331" y="657" type="curve" smooth="yes"/>
			<point x="194" y="657"/>
			<point x="76" y="578"/>
			<point x="54" y="424" type="curve" smooth="yes"/>
			<point x="52" y="410" type="line" smooth="yes"/>
			<point x="24" y="214"/>
			<point x="140" y="101"/>
		</contour>
		<contour>
			<point x="308" y="176" type="curve" smooth="yes"/>
			<point x="180" y="176"/>
			<point x="110" y="260"/>
			<point x="131" y="409" type="curve" smooth="yes"/>
			<point x="132" y="416" type="line" smooth="yes"/>
			<point x="147" y="523"/>
			<point x="217" y="582"/>
			<point x="325" y="582" type="curve" smooth="yes"/>
			<point x="454" y="582"/>
			<point x="523" y="499"/>
			<point x="502" y="350" type="curve" smooth="yes"/>
			<point x="501" y="343" type="line" smooth="yes"/>
			<point x="486" y="236"/>
			<point x="417" y="176"/>
		</contour>
		<contour>
			<point x="193" y="252" type="line"/>
			<point x="275" y="252" type="line"/>
			<point x="286" y="336" type="line"/>
			<point x="295" y="336" type="line" smooth="yes"/>
			<point x="307" y="336"/>
			<point x="318" y="333"/>
			<point x="323" y="315" type="curve" smooth="yes"/>
			<point x="339" y="252" type="line"/>
			<point x="426" y="252" type="line"/>
			<point x="403" y="335" type="line" smooth="yes"/>
			<point x="398" y="354"/>
			<point x="386" y="363"/>
			<point x="369" y="366" type="curve"/>
			<point x="414" y="375"/>
			<point x="440" y="398"/>
			<point x="440" y="441" type="curve" smooth="yes"/>
			<point x="440" y="487"/>
			<point x="404" y="514"/>
			<point x="342" y="514" type="curve" smooth="yes"/>
			<point x="228" y="514" type="line"/>
		</contour>
		<contour>
			<point x="323" y="454" type="line" smooth="yes"/>
			<point x="344" y="454"/>
			<point x="356" y="446"/>
			<point x="356" y="429" type="curve" smooth="yes"/>
			<point x="356" y="408"/>
			<point x="342" y="396"/>
			<point x="319" y="396" type="curve" smooth="yes"/>
			<point x="293" y="396" type="line"/>
			<point x="301" y="454" type="line"/>
		</contour>
	</outline>
</glyph>
<glyph name="mu" format="2">
	<unicode hex="00B5"/>
	<advance width="600"/>
	<outline>
		<contour>
			<point x="-16" y="-188" type="line"/>
			<point x="177" y="-188" type="line"/>
			<point x="202" y="-9" type="line"/>
			<point x="256" y="4"/>
			<point x="306" y="44"/>
			<point x="345" y="104" type="curve"/>
			<point x="330" y="0" type="line"/>
			<point x="515" y="0" type="line"/>
			<point x="588" y="523" type="line"/>
			<point x="393" y="523" type="line"/>
			<point x="348" y="205" type="line" smooth="yes"/>
			<point x="345" y="185"/>
			<point x="338" y="169"/>
			<point x="327" y="158" type="curve" smooth="yes"/>
			<point x="316" y="147"/>
			<point x="301" y="141"/>
			<point x="283" y="141" type="curve" smooth="yes"/>
			<point x="238" y="141"/>
			<point x="227" y="167"/>
			<point x="234" y="216" type="curve" smooth="yes"/>
			<point x="278" y="523" type="line"/>
			<point x="83" y="523" type="line"/>
			<point x="35" y="185" type="line" smooth="yes"/>
			<point x="34" y="180"/>
			<point x="34" y="175"/>
			<point x="33" y="170" type="curve"/>
		</contour>
	</outline>
	<anchor name="bottom" x="301" y="0"/>
	<anchor name="ogonek" x="550" y="0"/>
	<anchor name="top" x="366" y="534"/>
</glyph>
<glyph name="ordmasculine" format="2">
	<unicode hex="00BA"/>
	<advance width="600"/>
	<outline>
		<contour>
			<point x="310" y="224" type="curve" smooth="yes"/>
			<point x="455" y="224"/>
			<point x="543" y="312"/>
			<point x="560" y="448" type="curve" smooth="yes"/>
			<point x="578" y="598"/>
			<point x="501" y="696"/>
			<point x="346" y="696" type="curve" smooth="yes"/>
			<point x="201" y="696"/>
			<point x="112" y="610"/>
			<point x="95" y="470" type="curve" smooth="yes"/>
			<point x="77" y="324"/>
			<point x="155" y="224"/>
		</contour>
		<contour>
			<point x="315" y="342" type="curve" smooth="yes"/>
			<point x="256" y="342"/>
			<point x="246" y="394"/>
			<point x="259" y="469" type="curve" smooth="yes"/>
			<point x="271" y="541"/>
			<point x="294" y="578"/>
			<point x="341" y="578" type="curve" smooth="yes"/>
			<point x="399" y="578"/>
			<point x="409" y="529"/>
			<point x="396" y="450" type="curve" smooth="yes"/>
			<point x="384" y="381"/>
			<point x="361" y="342"/>
		</contour>
	</outline>
	<guideline x="604" y="477" angle="82"/>
</glyph>
<glyph name="guillemetright" format="2">
	<unicode hex="00BB"/>
	<advance width="600"/>
	<outline>
		<contour>
			<point x="235" y="77" type="line"/>
			<point x="430" y="77" type="line"/>
			<point x="596" y="287" type="line"/>
			<point x="491" y="497" type="line"/>
			<point x="295" y="497" type="line"/>
			<point x="406" y="287" type="line"/>
		</contour>
		<contour>
			<point x="-18" y="77" type="line"/>
			<point x="177" y="77" type="line"/>
			<point x="341" y="287" type="line"/>
			<point x="237" y="497" type="line"/>
			<point x="42" y="497" type="line"/>
			<point x="153" y="288" type="line"/>
		</contour>
	</outline>
</glyph>
<glyph name="multiply" format="2">
	<unicode hex="00D7"/>
	<advance width="600"/>
	<outline>
		<contour>
			<point x="143" y="56" type="line"/>
			<point x="295" y="190" type="line"/>
			<point x="405" y="56" type="line"/>
			<point x="528" y="164" type="line"/>
			<point x="418" y="299" type="line"/>
			<point x="572" y="435" type="line"/>
			<point x="470" y="554" type="line"/>
			<point x="318" y="420" type="line"/>
			<point x="208" y="554" type="line"/>
			<point x="85" y="446" type="line"/>
			<point x="195" y="311" type="line"/>
			<point x="41" y="175" type="line"/>
		</contour>
	</outline>
	<guideline x="528" y="237" angle="90"/>
</glyph>
<glyph name="germandbls" format="2">
	<unicode hex="00DF"/>
	<advance width="600"/>
	<outline>
		<contour>
			<point x="350" y="-9" type="curve" smooth="yes"/>
			<point x="484" y="-9"/>
			<point x="569" y="75"/>
			<point x="569" y="212" type="curve" smooth="yes"/>
			<point x="569" y="303"/>
			<point x="513" y="353"/>
			<point x="420" y="371" type="curve"/>
			<point x="533" y="395"/>
			<point x="590" y="469"/>
			<point x="590" y="579" type="curve" smooth="yes"/>
			<point x="590" y="699"/>
			<point x="500" y="760"/>
			<point x="358" y="760" type="curve" smooth="yes"/>
			<point x="162" y="760"/>
			<point x="89" y="650"/>
			<point x="72" y="528" type="curve" smooth="yes"/>
			<point x="-2" y="0" type="line"/>
			<point x="193" y="0" type="line"/>
			<point x="270" y="539" type="line" smooth="yes"/>
			<point x="277" y="586"/>
			<point x="298" y="610"/>
			<point x="343" y="610" type="curve" smooth="yes"/>
			<point x="383" y="610"/>
			<point x="402" y="590"/>
			<point x="402" y="547" type="curve" smooth="yes"/>
			<point x="402" y="490"/>
			<point x="373" y="445"/>
			<point x="332" y="445" type="curve" smooth="yes"/>
			<point x="304" y="445" type="line"/>
			<point x="283" y="289" type="line"/>
			<point x="303" y="289" type="line" smooth="yes"/>
			<point x="355" y="289"/>
			<point x="372" y="263"/>
			<point x="372" y="213" type="curve" smooth="yes"/>
			<point x="372" y="162"/>
			<point x="349" y="130"/>
			<point x="302" y="130" type="curve" smooth="yes"/>
			<point x="289" y="130"/>
			<point x="279" y="132"/>
			<point x="267" y="135" type="curve"/>
			<point x="250" y="6" type="line"/>
			<point x="269" y="-2"/>
			<point x="306" y="-9"/>
		</contour>
	</outline>
	<guideline x="-2" y="0" angle="82"/>
</glyph>
<glyph name="ccedilla" format="2">
	<unicode hex="00E7"/>
	<advance width="600"/>
	<outline>
		<contour>
			<point x="266" y="-239" type="curve" smooth="yes"/>
			<point x="361" y="-239"/>
			<point x="411" y="-192"/>
			<point x="411" y="-121" type="curve" smooth="yes"/>
			<point x="411" y="-74"/>
			<point x="384" y="-49"/>
			<point x="335" y="-44" type="curve"/>
			<point x="355" y="-12" type="line"/>
			<point x="370" y="-12" type="line" smooth="yes"/>
			<point x="419" y="-12"/>
			<point x="458" y="-5"/>
			<point x="488" y="6" type="curve"/>
			<point x="510" y="155" type="line"/>
			<point x="479" y="145"/>
			<point x="445" y="140"/>
			<point x="411" y="140" type="curve" smooth="yes"/>
			<point x="313" y="140"/>
			<point x="258" y="182"/>
			<point x="271" y="275" type="curve" smooth="yes"/>
			<point x="272" y="282" type="line" smooth="yes"/>
			<point x="282" y="353"/>
			<point x="327" y="383"/>
			<point x="406" y="383" type="curve" smooth="yes"/>
			<point x="467" y="383"/>
			<point x="507" y="371"/>
			<point x="538" y="355" type="curve"/>
			<point x="558" y="499" type="line"/>
			<point x="519" y="520"/>
			<point x="457" y="535"/>
			<point x="377" y="535" type="curve" smooth="yes"/>
			<point x="203" y="535"/>
			<point x="97" y="442"/>
			<point x="77" y="300" type="curve" smooth="yes"/>
			<point x="75" y="286" type="line" smooth="yes"/>
			<point x="52" y="128"/>
			<point x="131" y="29"/>
			<point x="270" y="-2" type="curve"/>
			<point x="216" y="-96" type="line"/>
			<point x="233" y="-94"/>
			<point x="241" y="-94"/>
			<point x="244" y="-94" type="curve" smooth="yes"/>
			<point x="280" y="-94"/>
			<point x="294" y="-104"/>
			<point x="294" y="-123" type="curve" smooth="yes"/>
			<point x="294" y="-142"/>
			<point x="280" y="-155"/>
			<point x="245" y="-155" type="curve" smooth="yes"/>
			<point x="215" y="-155"/>
			<point x="193" y="-147"/>
			<point x="175" y="-139" type="curve"/>
			<point x="165" y="-218" type="line"/>
			<point x="187" y="-229"/>
			<point x="225" y="-239"/>
		</contour>
	</outline>
</glyph>
<glyph name="divide" format="2">
	<unicode hex="00F7"/>
	<advance width="600"/>
	<outline>
		<contour>
			<point x="325" y="439" type="curve" smooth="yes"/>
			<point x="402" y="439"/>
			<point x="446" y="462"/>
			<point x="454" y="523" type="curve" smooth="yes"/>
			<point x="463" y="583"/>
			<point x="426" y="606"/>
			<point x="349" y="606" type="curve" smooth="yes"/>
			<point x="271" y="606"/>
			<point x="229" y="583"/>
			<point x="220" y="523" type="curve" smooth="yes"/>
			<point x="212" y="462"/>
			<point x="247" y="439"/>
		</contour>
		<contour>
			<point x="54" y="228" type="line"/>
			<point x="538" y="228" type="line"/>
			<point x="560" y="388" type="line"/>
			<point x="76" y="388" type="line"/>
		</contour>
		<contour>
			<point x="264" y="10" type="curve" smooth="yes"/>
			<point x="341" y="10"/>
			<point x="384" y="33"/>
			<point x="393" y="94" type="curve" smooth="yes"/>
			<point x="401" y="154"/>
			<point x="365" y="177"/>
			<point x="288" y="177" type="curve" smooth="yes"/>
			<point x="210" y="177"/>
			<point x="167" y="154"/>
			<point x="159" y="94" type="curve" smooth="yes"/>
			<point x="150" y="33"/>
			<point x="186" y="10"/>
		</contour>
	</outline>
	<guideline x="329" y="439" angle="82"/>
</glyph>
<glyph name="dcaron" format="2">
	<unicode hex="010F"/>
	<advance width="600"/>
	<outline>
		<contour>
			<point x="162" y="-14" type="curve" smooth="yes"/>
			<point x="227" y="-14"/>
			<point x="278" y="24"/>
			<point x="323" y="99" type="curve"/>
			<point x="309" y="0" type="line"/>
			<point x="482" y="0" type="line"/>
			<point x="588" y="750" type="line"/>
			<point x="405" y="750" type="line"/>
			<point x="373" y="523" type="line"/>
			<point x="343" y="523" type="line" smooth="yes"/>
			<point x="159" y="523"/>
			<point x="58" y="423"/>
			<point x="34" y="258" type="curve" smooth="yes"/>
			<point x="32" y="244" type="line" smooth="yes"/>
			<point x="9" y="83"/>
			<point x="57" y="-14"/>
		</contour>
		<contour>
			<point x="601" y="549" type="line"/>
			<point x="687" y="549" type="line"/>
			<point x="783" y="750" type="line"/>
			<point x="628" y="750" type="line"/>
		</contour>
		<contour>
			<point x="264" y="126" type="curve" smooth="yes"/>
			<point x="222" y="126"/>
			<point x="204" y="172"/>
			<point x="215" y="252" type="curve" smooth="yes"/>
			<point x="216" y="259" type="line" smooth="yes"/>
			<point x="229" y="351"/>
			<point x="261" y="386"/>
			<point x="331" y="386" type="curve" smooth="yes"/>
			<point x="354" y="386" type="line"/>
			<point x="329" y="202" type="line" smooth="yes"/>
			<point x="322" y="148"/>
			<point x="296" y="126"/>
		</contour>
	</outline>
	<guideline x="369" y="276" angle="82"/>
	<guideline x="665" y="780" angle="82"/>
</glyph>
<glyph name="Hbar" format="2">
	<unicode hex="0126"/>
	<advance width="600"/>
	<outline>
		<contour>
			<point x="6" y="0" type="line"/>
			<point x="203" y="0" type="line"/>
			<point x="236" y="238" type="line"/>
			<point x="356" y="238" type="line"/>
			<point x="323" y="0" type="line"/>
			<point x="520" y="0" type="line"/>
			<point x="588" y="481" type="line"/>
			<point x="630" y="481" type="line"/>
			<point x="646" y="590" type="line"/>
			<point x="603" y="590" type="line"/>
			<point x="616" y="684" type="line"/>
			<point x="419" y="684" type="line"/>
			<point x="406" y="590" type="line"/>
			<point x="286" y="590" type="line"/>
			<point x="299" y="684" type="line"/>
			<point x="102" y="684" type="line"/>
			<point x="89" y="590" type="line"/>
			<point x="46" y="590" type="line"/>
			<point x="30" y="481" type="line"/>
			<point x="74" y="481" type="line"/>
		</contour>
		<contour>
			<point x="259" y="400" type="line"/>
			<point x="271" y="481" type="line"/>
			<point x="391" y="481" type="line"/>
			<point x="379" y="400" type="line"/>
		</contour>
	</outline>
	<anchor name="bottom" x="313" y="0"/>
	<anchor name="center" x="339" y="545"/>
	<anchor name="top" x="359" y="684"/>
</glyph>
<glyph name="hbar" format="2">
	<unicode hex="0127"/>
	<advance width="600"/>
	<outline>
		<contour>
			<point x="45" y="580" type="line"/>
			<point x="95" y="580" type="line"/>
			<point x="14" y="0" type="line"/>
			<point x="209" y="0" type="line"/>
			<point x="253" y="317" type="line" smooth="yes"/>
			<point x="256" y="336"/>
			<point x="263" y="351"/>
			<point x="273" y="361" type="curve" smooth="yes"/>
			<point x="284" y="372"/>
			<point x="300" y="378"/>
			<point x="318" y="378" type="curve" smooth="yes"/>
			<point x="363" y="378"/>
			<point x="374" y="352"/>
			<point x="367" y="303" type="curve" smooth="yes"/>
			<point x="324" y="0" type="line"/>
			<point x="519" y="0" type="line"/>
			<point x="567" y="338" type="line" smooth="yes"/>
			<point x="584" y="459"/>
			<point x="545" y="537"/>
			<point x="442" y="537" type="curve" smooth="yes"/>
			<point x="375" y="537"/>
			<point x="319" y="496"/>
			<point x="269" y="427" type="curve"/>
			<point x="290" y="580" type="line"/>
			<point x="423" y="580" type="line"/>
			<point x="437" y="680" type="line"/>
			<point x="304" y="680" type="line"/>
			<point x="314" y="750" type="line"/>
			<point x="119" y="750" type="line"/>
			<point x="109" y="680" type="line"/>
			<point x="59" y="680" type="line"/>
		</contour>
	</outline>
</glyph>
<glyph name="dotlessi" format="2">
	<unicode hex="0131"/>
	<advance width="600"/>
	<outline>
		<contour>
			<point x="25" y="0" type="line"/>
			<point x="530" y="0" type="line"/>
			<point x="551" y="149" type="line"/>
			<point x="403" y="149" type="line"/>
			<point x="456" y="523" type="line"/>
			<point x="101" y="523" type="line"/>
			<point x="79" y="374" type="line"/>
			<point x="239" y="374" type="line"/>
			<point x="207" y="149" type="line"/>
			<point x="47" y="149" type="line"/>
		</contour>
	</outline>
	<anchor name="ogonek" x="530" y="0"/>
	<anchor name="top" x="358" y="523"/>
	<guideline x="22" y="-7" angle="82"/>
</glyph>
<glyph name="kgreenlandic" format="2">
	<unicode hex="0138"/>
	<advance width="600"/>
	<outline>
		<contour>
			<point x="11" y="0" type="line"/>
			<point x="205" y="0" type="line"/>
			<point x="221" y="116" type="line"/>
			<point x="285" y="194" type="line"/>
			<point x="355" y="0" type="line"/>
			<point x="565" y="0" type="line"/>
			<point x="451" y="306" type="line"/>
			<point x="630" y="525" type="line"/>
			<point x="412" y="525" type="line"/>
			<point x="249" y="311" type="line"/>
			<point x="279" y="524" type="line"/>
			<point x="85" y="524" type="line"/>
		</contour>
	</outline>
	<guideline x="306" y="224" angle="230.7406"/>
</glyph>
<glyph name="ldot" format="2">
	<unicode hex="0140"/>
	<advance width="600"/>
	<outline>
		<contour>
			<point x="17" y="0" type="line"/>
			<point x="522" y="0" type="line"/>
			<point x="543" y="149" type="line"/>
			<point x="395" y="149" type="line"/>
			<point x="480" y="750" type="line"/>
			<point x="125" y="750" type="line"/>
			<point x="103" y="601" type="line"/>
			<point x="264" y="601" type="line"/>
			<point x="199" y="149" type="line"/>
			<point x="39" y="149" type="line"/>
		</contour>
		<contour>
			<point x="609" y="252" type="curve" smooth="yes"/>
			<point x="685" y="252"/>
			<point x="713" y="295"/>
			<point x="725" y="371" type="curve" smooth="yes"/>
			<point x="740" y="459"/>
			<point x="706" y="503"/>
			<point x="635" y="503" type="curve" smooth="yes"/>
			<point x="561" y="503"/>
			<point x="532" y="461"/>
			<point x="520" y="385" type="curve" smooth="yes"/>
			<point x="507" y="296"/>
			<point x="538" y="252"/>
		</contour>
	</outline>
</glyph>
<glyph name="Lslash" format="2">
	<unicode hex="0141"/>
	<advance width="600"/>
	<outline>
		<contour>
			<point x="35" y="0" type="line"/>
			<point x="529" y="0" type="line"/>
			<point x="554" y="181" type="line"/>
			<point x="259" y="181" type="line"/>
			<point x="278" y="321" type="line"/>
			<point x="450" y="382" type="line"/>
			<point x="469" y="516" type="line"/>
			<point x="297" y="455" type="line"/>
			<point x="329" y="684" type="line"/>
			<point x="131" y="684" type="line"/>
			<point x="88" y="381" type="line"/>
			<point x="13" y="354" type="line"/>
			<point x="-6" y="220" type="line"/>
			<point x="70" y="247" type="line"/>
		</contour>
	</outline>
</glyph>
<glyph name="lslash" format="2">
	<unicode hex="0142"/>
	<advance width="600"/>
	<outline>
		<contour>
			<point x="17" y="0" type="line"/>
			<point x="522" y="0" type="line"/>
			<point x="543" y="149" type="line"/>
			<point x="395" y="149" type="line"/>
			<point x="423" y="347" type="line"/>
			<point x="557" y="394" type="line"/>
			<point x="575" y="525" type="line"/>
			<point x="442" y="478" type="line"/>
			<point x="480" y="750" type="line"/>
			<point x="125" y="750" type="line"/>
			<point x="103" y="601" type="line"/>
			<point x="264" y="601" type="line"/>
			<point x="236" y="406" type="line"/>
			<point x="95" y="356" type="line"/>
			<point x="77" y="225" type="line"/>
			<point x="217" y="274" type="line"/>
			<point x="199" y="149" type="line"/>
			<point x="39" y="149" type="line"/>
		</contour>
	</outline>
</glyph>
<glyph name="eng" format="2">
	<unicode hex="014B"/>
	<advance width="600"/>
	<outline>
		<contour>
			<point x="289" y="-214" type="curve" smooth="yes"/>
			<point x="404" y="-214"/>
			<point x="495" y="-168"/>
			<point x="516" y="-18" type="curve" smooth="yes"/>
			<point x="567" y="338" type="line" smooth="yes"/>
			<point x="584" y="459"/>
			<point x="545" y="537"/>
			<point x="442" y="537" type="curve" smooth="yes"/>
			<point x="369" y="537"/>
			<point x="309" y="492"/>
			<point x="257" y="414" type="curve"/>
			<point x="272" y="523" type="line"/>
			<point x="87" y="523" type="line"/>
			<point x="14" y="0" type="line"/>
			<point x="209" y="0" type="line"/>
			<point x="253" y="314" type="line" smooth="yes"/>
			<point x="256" y="334"/>
			<point x="263" y="350"/>
			<point x="274" y="361" type="curve" smooth="yes"/>
			<point x="284" y="371"/>
			<point x="299" y="378"/>
			<point x="318" y="378" type="curve" smooth="yes"/>
			<point x="363" y="378"/>
			<point x="374" y="352"/>
			<point x="367" y="303" type="curve" smooth="yes"/>
			<point x="324" y="0" type="line" smooth="yes"/>
			<point x="317" y="-49"/>
			<point x="278" y="-62"/>
			<point x="242" y="-62" type="curve" smooth="yes"/>
			<point x="231" y="-62"/>
			<point x="214" y="-60"/>
			<point x="202" y="-57" type="curve"/>
			<point x="182" y="-199" type="line"/>
			<point x="202" y="-206"/>
			<point x="244" y="-214"/>
		</contour>
	</outline>
	<guideline x="570" y="77" angle="82"/>
</glyph>
<glyph name="OE" format="2">
	<unicode hex="0152"/>
	<advance width="600"/>
	<outline>
		<contour>
			<point x="138" y="-13" type="curve" smooth="yes"/>
			<point x="192" y="-13"/>
			<point x="235" y="24"/>
			<point x="273" y="103" type="curve"/>
			<point x="259" y="0" type="line"/>
			<point x="544" y="0" type="line"/>
			<point x="566" y="154" type="line"/>
			<point x="431" y="154" type="line"/>
			<point x="447" y="266" type="line"/>
			<point x="549" y="266" type="line"/>
			<point x="571" y="418" type="line"/>
			<point x="468" y="418" type="line"/>
			<point x="483" y="531" type="line"/>
			<point x="617" y="531" type="line"/>
			<point x="639" y="684" type="line"/>
			<point x="321" y="684" type="line"/>
			<point x="156" y="684"/>
			<point x="70" y="578"/>
			<point x="36" y="339" type="curve" smooth="yes"/>
			<point x="34" y="325" type="line" smooth="yes"/>
			<point x="2" y="104"/>
			<point x="38" y="-13"/>
		</contour>
		<contour>
			<point x="232" y="148" type="curve" smooth="yes"/>
			<point x="192" y="148"/>
			<point x="176" y="194"/>
			<point x="194" y="323" type="curve" smooth="yes"/>
			<point x="195" y="330" type="line" smooth="yes"/>
			<point x="213" y="459"/>
			<point x="232" y="531"/>
			<point x="313" y="531" type="curve" smooth="yes"/>
			<point x="329" y="531" type="line"/>
			<point x="285" y="213" type="line" smooth="yes"/>
			<point x="279" y="167"/>
			<point x="256" y="148"/>
		</contour>
	</outline>
	<guideline x="203" y="321" angle="82"/>
	<guideline x="545" y="0" angle="82"/>
</glyph>
<glyph name="oe" format="2">
	<unicode hex="0153"/>
	<advance width="600"/>
	<outline>
		<contour>
			<point x="98" y="-14" type="curve" smooth="yes"/>
			<point x="143" y="-14"/>
			<point x="189" y="12"/>
			<point x="224" y="98" type="curve"/>
			<point x="250" y="14"/>
			<point x="317" y="-14"/>
			<point x="408" y="-14" type="curve" smooth="yes"/>
			<point x="449" y="-14"/>
			<point x="502" y="-4"/>
			<point x="535" y="13" type="curve"/>
			<point x="555" y="154" type="line"/>
			<point x="516" y="139"/>
			<point x="481" y="133"/>
			<point x="450" y="133" type="curve" smooth="yes"/>
			<point x="377" y="133"/>
			<point x="355" y="157"/>
			<point x="357" y="215" type="curve"/>
			<point x="587" y="215" type="line"/>
			<point x="597" y="283" type="line" smooth="yes"/>
			<point x="620" y="442"/>
			<point x="574" y="537"/>
			<point x="451" y="537" type="curve" smooth="yes"/>
			<point x="408" y="537"/>
			<point x="372" y="526"/>
			<point x="337" y="498" type="curve"/>
			<point x="314" y="522"/>
			<point x="277" y="537"/>
			<point x="228" y="537" type="curve" smooth="yes"/>
			<point x="103" y="537"/>
			<point x="33" y="441"/>
			<point x="9" y="272" type="curve" smooth="yes"/>
			<point x="7" y="258" type="line" smooth="yes"/>
			<point x="-19" y="78"/>
			<point x="8" y="-14"/>
		</contour>
		<contour>
			<point x="428" y="406" type="curve" smooth="yes"/>
			<point x="457" y="406"/>
			<point x="470" y="376"/>
			<point x="463" y="312" type="curve"/>
			<point x="368" y="312" type="line"/>
			<point x="376" y="369"/>
			<point x="395" y="406"/>
		</contour>
		<contour>
			<point x="180" y="133" type="curve" smooth="yes"/>
			<point x="148" y="133"/>
			<point x="136" y="160"/>
			<point x="152" y="270" type="curve" smooth="yes"/>
			<point x="153" y="277" type="line" smooth="yes"/>
			<point x="167" y="375"/>
			<point x="186" y="401"/>
			<point x="214" y="401" type="curve" smooth="yes"/>
			<point x="248" y="401"/>
			<point x="257" y="374"/>
			<point x="242" y="266" type="curve" smooth="yes"/>
			<point x="241" y="259" type="line" smooth="yes"/>
			<point x="227" y="159"/>
			<point x="208" y="133"/>
		</contour>
	</outline>
	<guideline x="260" y="285" angle="82"/>
	<guideline x="140" y="291" angle="352"/>
</glyph>
<glyph name="Scedilla" format="2">
	<unicode hex="015E"/>
	<advance width="600"/>
	<outline>
		<contour>
			<point x="229" y="-239" type="curve" smooth="yes"/>
			<point x="324" y="-239"/>
			<point x="374" y="-192"/>
			<point x="374" y="-121" type="curve" smooth="yes"/>
			<point x="374" y="-74"/>
			<point x="347" y="-49"/>
			<point x="298" y="-44" type="curve"/>
			<point x="319" y="-12" type="line"/>
			<point x="476" y="1"/>
			<point x="561" y="97"/>
			<point x="561" y="240" type="curve" smooth="yes"/>
			<point x="561" y="364"/>
			<point x="495" y="401"/>
			<point x="351" y="435" type="curve" smooth="yes"/>
			<point x="280" y="452"/>
			<point x="261" y="464"/>
			<point x="261" y="492" type="curve" smooth="yes"/>
			<point x="261" y="524"/>
			<point x="285" y="541"/>
			<point x="341" y="541" type="curve" smooth="yes"/>
			<point x="412" y="541"/>
			<point x="517" y="514"/>
			<point x="576" y="474" type="curve"/>
			<point x="600" y="638" type="line"/>
			<point x="555" y="664"/>
			<point x="451" y="698"/>
			<point x="343" y="698" type="curve" smooth="yes"/>
			<point x="158" y="698"/>
			<point x="64" y="599"/>
			<point x="64" y="454" type="curve" smooth="yes"/>
			<point x="64" y="315"/>
			<point x="151" y="281"/>
			<point x="280" y="252" type="curve" smooth="yes"/>
			<point x="337" y="239"/>
			<point x="364" y="233"/>
			<point x="364" y="199" type="curve" smooth="yes"/>
			<point x="364" y="163"/>
			<point x="337" y="146"/>
			<point x="285" y="146" type="curve" smooth="yes"/>
			<point x="208" y="146"/>
			<point x="111" y="180"/>
			<point x="47" y="225" type="curve"/>
			<point x="23" y="59" type="line"/>
			<point x="74" y="25"/>
			<point x="148" y="-2"/>
			<point x="228" y="-10" type="curve"/>
			<point x="179" y="-96" type="line"/>
			<point x="196" y="-94"/>
			<point x="204" y="-94"/>
			<point x="207" y="-94" type="curve" smooth="yes"/>
			<point x="243" y="-94"/>
			<point x="257" y="-104"/>
			<point x="257" y="-123" type="curve" smooth="yes"/>
			<point x="257" y="-142"/>
			<point x="243" y="-155"/>
			<point x="208" y="-155" type="curve" smooth="yes"/>
			<point x="178" y="-155"/>
			<point x="156" y="-147"/>
			<point x="138" y="-139" type="curve"/>
			<point x="128" y="-218" type="line"/>
			<point x="150" y="-229"/>
			<point x="188" y="-239"/>
		</contour>
	</outline>
</glyph>
<glyph name="scedilla" format="2">
	<unicode hex="015F"/>
	<advance width="600"/>
	<outline>
		<contour>
			<point x="224" y="-239" type="curve" smooth="yes"/>
			<point x="319" y="-239"/>
			<point x="369" y="-192"/>
			<point x="369" y="-121" type="curve" smooth="yes"/>
			<point x="369" y="-74"/>
			<point x="342" y="-49"/>
			<point x="293" y="-44" type="curve"/>
			<point x="313" y="-12" type="line"/>
			<point x="451" y="1"/>
			<point x="523" y="71"/>
			<point x="523" y="196" type="curve" smooth="yes"/>
			<point x="523" y="297"/>
			<point x="437" y="320"/>
			<point x="332" y="342" type="curve" smooth="yes"/>
			<point x="278" y="353"/>
			<point x="263" y="362"/>
			<point x="263" y="380" type="curve" smooth="yes"/>
			<point x="263" y="399"/>
			<point x="283" y="406"/>
			<point x="317" y="406" type="curve" smooth="yes"/>
			<point x="391" y="406"/>
			<point x="476" y="385"/>
			<point x="540" y="351" type="curve"/>
			<point x="560" y="492" type="line"/>
			<point x="504" y="517"/>
			<point x="418" y="537"/>
			<point x="328" y="537" type="curve" smooth="yes"/>
			<point x="155" y="537"/>
			<point x="79" y="453"/>
			<point x="79" y="335" type="curve" smooth="yes"/>
			<point x="79" y="224"/>
			<point x="169" y="195"/>
			<point x="270" y="180" type="curve" smooth="yes"/>
			<point x="327" y="172"/>
			<point x="340" y="164"/>
			<point x="340" y="148" type="curve" smooth="yes"/>
			<point x="340" y="124"/>
			<point x="314" y="118"/>
			<point x="277" y="118" type="curve" smooth="yes"/>
			<point x="208" y="118"/>
			<point x="122" y="142"/>
			<point x="62" y="179" type="curve"/>
			<point x="42" y="40" type="line"/>
			<point x="76" y="16"/>
			<point x="142" y="-6"/>
			<point x="222" y="-12" type="curve"/>
			<point x="174" y="-96" type="line"/>
			<point x="191" y="-94"/>
			<point x="199" y="-94"/>
			<point x="202" y="-94" type="curve" smooth="yes"/>
			<point x="238" y="-94"/>
			<point x="252" y="-104"/>
			<point x="252" y="-123" type="curve" smooth="yes"/>
			<point x="252" y="-142"/>
			<point x="238" y="-155"/>
			<point x="203" y="-155" type="curve" smooth="yes"/>
			<point x="173" y="-155"/>
			<point x="151" y="-147"/>
			<point x="133" y="-139" type="curve"/>
			<point x="123" y="-218" type="line"/>
			<point x="145" y="-229"/>
			<point x="183" y="-239"/>
		</contour>
	</outline>
</glyph>
<glyph name="tcaron" format="2">
	<unicode hex="0165"/>
	<advance width="600"/>
	<outline>
		<contour>
			<point x="489" y="613" type="line"/>
			<point x="584" y="613" type="line"/>
			<point x="690" y="780" type="line"/>
			<point x="509" y="780" type="line"/>
		</contour>
		<contour>
			<point x="349" y="-12" type="curve" smooth="yes"/>
			<point x="414" y="-12"/>
			<point x="461" y="-2"/>
			<point x="490" y="12" type="curve"/>
			<point x="509" y="150" type="line"/>
			<point x="485" y="143"/>
			<point x="458" y="139"/>
			<point x="430" y="139" type="curve" smooth="yes"/>
			<point x="371" y="139"/>
			<point x="342" y="153"/>
			<point x="351" y="220" type="curve" smooth="yes"/>
			<point x="373" y="374" type="line"/>
			<point x="550" y="374" type="line"/>
			<point x="570" y="523" type="line"/>
			<point x="397" y="523" type="line"/>
			<point x="421" y="692" type="line"/>
			<point x="241" y="692" type="line"/>
			<point x="221" y="592" type="line" smooth="yes"/>
			<point x="208" y="527"/>
			<point x="176" y="516"/>
			<point x="129" y="516" type="curve" smooth="yes"/>
			<point x="70" y="516" type="line"/>
			<point x="50" y="374" type="line"/>
			<point x="178" y="374" type="line"/>
			<point x="154" y="198" type="line" smooth="yes"/>
			<point x="134" y="49"/>
			<point x="197" y="-12"/>
		</contour>
	</outline>
	<guideline x="550" y="800" angle="82"/>
</glyph>
<glyph name="Tbar" format="2">
	<unicode hex="0166"/>
	<advance width="600"/>
	<outline>
		<contour>
			<point x="164" y="0" type="line"/>
			<point x="362" y="0" type="line"/>
			<point x="398" y="255" type="line"/>
			<point x="521" y="255" type="line"/>
			<point x="541" y="382" type="line"/>
			<point x="416" y="382" type="line"/>
			<point x="435" y="515" type="line"/>
			<point x="618" y="515" type="line"/>
			<point x="641" y="684" type="line"/>
			<point x="78" y="684" type="line"/>
			<point x="54" y="515" type="line"/>
			<point x="237" y="515" type="line"/>
			<point x="218" y="382" type="line"/>
			<point x="126" y="382" type="line"/>
			<point x="106" y="255" type="line"/>
			<point x="200" y="255" type="line"/>
		</contour>
	</outline>
	<guideline x="92" y="255" angle="82" identifier="PAEyAL456N"/>
</glyph>
<glyph name="tbar" format="2">
	<unicode hex="0167"/>
	<advance width="600"/>
	<outline>
		<contour>
			<point x="38" y="211" type="line"/>
			<point x="156" y="211" type="line"/>
			<point x="154" y="198" type="line" smooth="yes"/>
			<point x="134" y="49"/>
			<point x="197" y="-12"/>
			<point x="349" y="-12" type="curve" smooth="yes"/>
			<point x="414" y="-12"/>
			<point x="461" y="-2"/>
			<point x="490" y="12" type="curve"/>
			<point x="509" y="150" type="line"/>
			<point x="485" y="143"/>
			<point x="458" y="139"/>
			<point x="430" y="139" type="curve" smooth="yes"/>
			<point x="374" y="139"/>
			<point x="345" y="152"/>
			<point x="350" y="211" type="curve"/>
			<point x="513" y="211" type="line"/>
			<point x="529" y="321" type="line"/>
			<point x="365" y="321" type="line"/>
			<point x="373" y="374" type="line"/>
			<point x="550" y="374" type="line"/>
			<point x="570" y="523" type="line"/>
			<point x="397" y="523" type="line"/>
			<point x="421" y="692" type="line"/>
			<point x="241" y="692" type="line"/>
			<point x="221" y="592" type="line" smooth="yes"/>
			<point x="208" y="527"/>
			<point x="176" y="516"/>
			<point x="129" y="516" type="curve" smooth="yes"/>
			<point x="70" y="516" type="line"/>
			<point x="50" y="374" type="line"/>
			<point x="178" y="374" type="line"/>
			<point x="171" y="321" type="line"/>
			<point x="52" y="321" type="line"/>
		</contour>
	</outline>
	<guideline x="80" y="334" angle="82"/>
	<guideline x="529" y="321" angle="82"/>
</glyph>
<glyph name="oslashacute" format="2">
	<unicode hex="01FF"/>
	<advance width="600"/>
	<outline>
		<contour>
			<point x="530" y="750" type="line"/>
			<point x="321" y="750" type="line"/>
			<point x="262" y="597" type="line"/>
			<point x="407" y="597" type="line"/>
		</contour>
		<contour>
			<point x="277" y="-14" type="curve" smooth="yes"/>
			<point x="444" y="-14"/>
			<point x="543" y="81"/>
			<point x="565" y="232" type="curve" smooth="yes"/>
			<point x="567" y="246" type="line" smooth="yes"/>
			<point x="578" y="322"/>
			<point x="566" y="386"/>
			<point x="535" y="435" type="curve"/>
			<point x="640" y="547" type="line"/>
			<point x="493" y="547" type="line"/>
			<point x="456" y="508" type="line"/>
			<point x="420" y="527"/>
			<point x="376" y="537"/>
			<point x="325" y="537" type="curve" smooth="yes"/>
			<point x="162" y="537"/>
			<point x="56" y="440"/>
			<point x="35" y="291" type="curve" smooth="yes"/>
			<point x="33" y="277" type="line" smooth="yes"/>
			<point x="22" y="200"/>
			<point x="33" y="135"/>
			<point x="64" y="86" type="curve"/>
			<point x="-40" y="-24" type="line"/>
			<point x="107" y="-24" type="line"/>
			<point x="143" y="15" type="line"/>
			<point x="180" y="-4"/>
			<point x="225" y="-14"/>
		</contour>
		<contour>
			<point x="231" y="264" type="curve" smooth="yes"/>
			<point x="232" y="271" type="line" smooth="yes"/>
			<point x="244" y="354"/>
			<point x="270" y="389"/>
			<point x="313" y="389" type="curve" smooth="yes"/>
			<point x="331" y="389"/>
			<point x="346" y="383"/>
			<point x="356" y="371" type="curve"/>
			<point x="228" y="232" type="line"/>
			<point x="228" y="242"/>
			<point x="229" y="253"/>
		</contour>
		<contour>
			<point x="286" y="135" type="curve" smooth="yes"/>
			<point x="268" y="135"/>
			<point x="254" y="141"/>
			<point x="245" y="152" type="curve"/>
			<point x="372" y="290" type="line"/>
			<point x="371" y="282"/>
			<point x="370" y="272"/>
			<point x="369" y="262" type="curve" smooth="yes"/>
			<point x="368" y="255" type="line" smooth="yes"/>
			<point x="356" y="171"/>
			<point x="328" y="135"/>
		</contour>
	</outline>
</glyph>
<glyph name="dotlessj" format="2">
	<unicode hex="0237"/>
	<advance width="600"/>
	<outline>
		<contour>
			<point x="180" y="-204" type="curve" smooth="yes"/>
			<point x="339" y="-204"/>
			<point x="439" y="-142"/>
			<point x="460" y="8" type="curve" smooth="yes"/>
			<point x="533" y="523" type="line"/>
			<point x="105" y="523" type="line"/>
			<point x="83" y="374" type="line"/>
			<point x="317" y="374" type="line"/>
			<point x="271" y="49" type="line" smooth="yes"/>
			<point x="260" y="-28"/>
			<point x="218" y="-48"/>
			<point x="142" y="-48" type="curve" smooth="yes"/>
			<point x="96" y="-48"/>
			<point x="57" y="-38"/>
			<point x="26" y="-26" type="curve"/>
			<point x="5" y="-171" type="line"/>
			<point x="45" y="-191"/>
			<point x="107" y="-204"/>
		</contour>
	</outline>
	<anchor name="top" x="436" y="523"/>
</glyph>
<glyph name="ring" format="2">
	<unicode hex="02DA"/>
	<advance width="600"/>
	<outline>
		<contour>
			<point x="356" y="584" type="curve" smooth="yes"/>
			<point x="456" y="584"/>
			<point x="512" y="639"/>
			<point x="512" y="726" type="curve" smooth="yes"/>
			<point x="512" y="802"/>
			<point x="473" y="850"/>
			<point x="372" y="850" type="curve" smooth="yes"/>
			<point x="272" y="850"/>
			<point x="216" y="795"/>
			<point x="216" y="708" type="curve" smooth="yes"/>
			<point x="216" y="632"/>
			<point x="256" y="584"/>
		</contour>
		<contour>
			<point x="361" y="662" type="curve" smooth="yes"/>
			<point x="323" y="662"/>
			<point x="311" y="681"/>
			<point x="311" y="712" type="curve" smooth="yes"/>
			<point x="311" y="749"/>
			<point x="328" y="772"/>
			<point x="368" y="772" type="curve" smooth="yes"/>
			<point x="406" y="772"/>
			<point x="418" y="753"/>
			<point x="418" y="722" type="curve" smooth="yes"/>
			<point x="418" y="685"/>
			<point x="401" y="662"/>
		</contour>
	</outline>
	<anchor name="_top" x="335" y="523"/>
	<guideline x="395" y="617" angle="0"/>
</glyph>
<glyph name="tilde" format="2">
	<unicode hex="02DC"/>
	<advance width="600"/>
	<outline>
		<contour>
			<point x="140" y="599" type="curve"/>
			<point x="265" y="599" type="line"/>
			<point x="270" y="628"/>
			<point x="279" y="646"/>
			<point x="304" y="646" type="curve"/>
			<point x="343" y="646"/>
			<point x="360" y="595"/>
			<point x="435" y="595" type="curve" smooth="yes"/>
			<point x="495" y="595"/>
			<point x="555" y="633"/>
			<point x="575" y="754" type="curve"/>
			<point x="449" y="754" type="line"/>
			<point x="444" y="726"/>
			<point x="434" y="711"/>
			<point x="413" y="711" type="curve" smooth="yes"/>
			<point x="371" y="711"/>
			<point x="341" y="758"/>
			<point x="274" y="758" type="curve" smooth="yes"/>
			<point x="209" y="758"/>
			<point x="159" y="715"/>
		</contour>
	</outline>
	<anchor name="_top" x="337" y="523"/>
	<guideline x="614" y="783" angle="0"/>
</glyph>
<glyph name="hungarumlaut" format="2">
	<unicode hex="02DD"/>
	<advance width="600"/>
	<outline>
		<contour>
			<point x="357" y="597" type="line"/>
			<point x="485" y="597" type="line"/>
			<point x="590" y="750" type="line"/>
			<point x="416" y="750" type="line"/>
		</contour>
		<contour>
			<point x="143" y="597" type="line"/>
			<point x="271" y="597" type="line"/>
			<point x="376" y="750" type="line"/>
			<point x="202" y="750" type="line"/>
		</contour>
	</outline>
	<anchor name="_top" x="304" y="523"/>
</glyph>
<glyph name="dagger" format="2">
	<unicode hex="2020"/>
	<advance width="600"/>
	<outline>
		<contour>
			<point x="83" y="570" type="line"/>
			<point x="59" y="396" type="line"/>
			<point x="223" y="396" type="line"/>
			<point x="148" y="-143" type="line"/>
			<point x="338" y="-143" type="line"/>
			<point x="414" y="396" type="line"/>
			<point x="578" y="396" type="line"/>
			<point x="603" y="570" type="line"/>
			<point x="439" y="570" type="line"/>
			<point x="466" y="765" type="line"/>
			<point x="275" y="765" type="line"/>
			<point x="248" y="570" type="line"/>
		</contour>
	</outline>
</glyph>
<glyph name="daggerdbl" format="2">
	<unicode hex="2021"/>
	<advance width="600"/>
	<outline>
		<contour>
			<point x="36" y="233" type="line"/>
			<point x="13" y="67" type="line"/>
			<point x="178" y="67" type="line"/>
			<point x="149" y="-143" type="line"/>
			<point x="339" y="-143" type="line"/>
			<point x="368" y="67" type="line"/>
			<point x="532" y="67" type="line"/>
			<point x="556" y="233" type="line"/>
			<point x="392" y="233" type="line"/>
			<point x="419" y="432" type="line"/>
			<point x="583" y="432" type="line"/>
			<point x="607" y="598" type="line"/>
			<point x="443" y="598" type="line"/>
			<point x="466" y="765" type="line"/>
			<point x="276" y="765" type="line"/>
			<point x="253" y="598" type="line"/>
			<point x="88" y="598" type="line"/>
			<point x="64" y="432" type="line"/>
			<point x="229" y="432" type="line"/>
			<point x="202" y="233" type="line"/>
		</contour>
	</outline>
</glyph>
<glyph name="guilsinglleft" format="2">
	<unicode hex="2039"/>
	<advance width="600"/>
	<outline>
		<contour>
			<point x="247" y="77" type="line"/>
			<point x="478" y="77" type="line"/>
			<point x="317" y="285" type="line"/>
			<point x="538" y="497" type="line"/>
			<point x="299" y="497" type="line"/>
			<point x="87" y="287" type="line"/>
		</contour>
	</outline>
	<guideline x="99" y="295" angle="0"/>
</glyph>
<glyph name="guilsinglright" format="2">
	<unicode hex="203A"/>
	<advance width="600"/>
	<outline>
		<contour>
			<point x="69" y="77" type="line"/>
			<point x="310" y="77" type="line"/>
			<point x="521" y="287" type="line"/>
			<point x="358" y="497" type="line"/>
			<point x="129" y="497" type="line"/>
			<point x="291" y="290" type="line"/>
		</contour>
	</outline>
</glyph>
<glyph name="trademark" format="2">
	<unicode hex="2122"/>
	<advance width="600"/>
	<outline>
		<contour>
			<point x="299" y="342" type="line"/>
			<point x="380" y="342" type="line"/>
			<point x="390" y="413" type="line" smooth="yes"/>
			<point x="399" y="478"/>
			<point x="403" y="535"/>
			<point x="403" y="590" type="curve"/>
			<point x="409" y="590" type="line"/>
			<point x="422" y="426" type="line"/>
			<point x="492" y="426" type="line"/>
			<point x="552" y="590" type="line"/>
			<point x="557" y="590" type="line"/>
			<point x="542" y="532"/>
			<point x="531" y="482"/>
			<point x="522" y="414" type="curve" smooth="yes"/>
			<point x="512" y="342" type="line"/>
			<point x="593" y="342" type="line"/>
			<point x="641" y="684" type="line"/>
			<point x="522" y="684" type="line"/>
			<point x="471" y="519" type="line"/>
			<point x="468" y="519" type="line"/>
			<point x="461" y="684" type="line"/>
			<point x="347" y="684" type="line"/>
		</contour>
		<contour>
			<point x="96" y="342" type="line"/>
			<point x="194" y="342" type="line"/>
			<point x="231" y="602" type="line"/>
			<point x="309" y="602" type="line"/>
			<point x="320" y="684" type="line"/>
			<point x="66" y="684" type="line"/>
			<point x="55" y="602" type="line"/>
			<point x="133" y="602" type="line"/>
		</contour>
	</outline>
	<guideline x="496" y="545" angle="90"/>
</glyph>
<glyph name="ohm" format="2">
	<unicode hex="2126"/>
	<advance width="600"/>
	<outline>
		<contour>
			<point x="-12" y="0" type="line"/>
			<point x="245" y="0" type="line"/>
			<point x="267" y="163" type="line"/>
			<point x="244" y="233"/>
			<point x="241" y="319"/>
			<point x="252" y="399" type="curve" smooth="yes"/>
			<point x="253" y="406" type="line" smooth="yes"/>
			<point x="267" y="506"/>
			<point x="294" y="539"/>
			<point x="337" y="539" type="curve" smooth="yes"/>
			<point x="390" y="539"/>
			<point x="405" y="498"/>
			<point x="391" y="398" type="curve" smooth="yes"/>
			<point x="390" y="391" type="line" smooth="yes"/>
			<point x="375" y="285"/>
			<point x="342" y="223"/>
			<point x="305" y="163" type="curve"/>
			<point x="282" y="0" type="line"/>
			<point x="539" y="0" type="line"/>
			<point x="561" y="160" type="line"/>
			<point x="479" y="160" type="line"/>
			<point x="526" y="210"/>
			<point x="574" y="281"/>
			<point x="589" y="388" type="curve" smooth="yes"/>
			<point x="591" y="402" type="line" smooth="yes"/>
			<point x="616" y="580"/>
			<point x="550" y="698"/>
			<point x="348" y="698" type="curve" smooth="yes"/>
			<point x="182" y="698"/>
			<point x="82" y="612"/>
			<point x="56" y="432" type="curve" smooth="yes"/>
			<point x="54" y="418" type="line" smooth="yes"/>
			<point x="37" y="302"/>
			<point x="61" y="217"/>
			<point x="97" y="160" type="curve"/>
			<point x="10" y="160" type="line"/>
		</contour>
	</outline>
	<guideline x="732" y="410" angle="82"/>
	<guideline x="599" y="433" angle="82"/>
</glyph>
<glyph name="arrowleft" format="2">
	<unicode hex="2190"/>
	<advance width="600"/>
	<outline>
		<contour>
			<point x="397" y="113" type="line"/>
			<point x="265" y="263" type="line"/>
			<point x="580" y="263" type="line"/>
			<point x="602" y="415" type="line"/>
			<point x="286" y="415" type="line"/>
			<point x="458" y="564" type="line"/>
			<point x="271" y="564" type="line"/>
			<point x="15" y="339" type="line"/>
			<point x="210" y="113" type="line"/>
		</contour>
	</outline>
	<guideline x="454" y="365" angle="0"/>
	<guideline x="251" y="409" angle="90"/>
	<guideline x="22" y="365" angle="45"/>
</glyph>
<glyph name="arrowup" format="2">
	<unicode hex="2191"/>
	<advance width="600"/>
	<outline>
		<contour>
			<point x="187" y="0" type="line"/>
			<point x="339" y="0" type="line"/>
			<point x="401" y="442" type="line"/>
			<point x="529" y="292" type="line"/>
			<point x="555" y="479" type="line"/>
			<point x="362" y="703" type="line"/>
			<point x="105" y="477" type="line"/>
			<point x="79" y="292" type="line"/>
			<point x="249" y="444" type="line"/>
		</contour>
	</outline>
</glyph>
<glyph name="arrowright" format="2">
	<unicode hex="2192"/>
	<advance width="600"/>
	<outline>
		<contour>
			<point x="225" y="564" type="line"/>
			<point x="358" y="414" type="line"/>
			<point x="42" y="414" type="line"/>
			<point x="20" y="262" type="line"/>
			<point x="336" y="262" type="line"/>
			<point x="164" y="113" type="line"/>
			<point x="351" y="113" type="line"/>
			<point x="607" y="338" type="line"/>
			<point x="412" y="564" type="line"/>
		</contour>
	</outline>
</glyph>
<glyph name="arrowdown" format="2">
	<unicode hex="2193"/>
	<advance width="600"/>
	<outline>
		<contour>
			<point x="543" y="392" type="line"/>
			<point x="373" y="240" type="line"/>
			<point x="435" y="684" type="line"/>
			<point x="283" y="684" type="line"/>
			<point x="221" y="242" type="line"/>
			<point x="93" y="392" type="line"/>
			<point x="67" y="205" type="line"/>
			<point x="260" y="-19" type="line"/>
			<point x="517" y="207" type="line"/>
		</contour>
	</outline>
</glyph>
<glyph name="uni2198" format="2">
	<unicode hex="2198"/>
	<advance width="600"/>
	<outline>
		<contour>
			<point x="225" y="60" type="line"/>
			<point x="542" y="60" type="line"/>
			<point x="587" y="380" type="line"/>
			<point x="475" y="511" type="line"/>
			<point x="446" y="289" type="line"/>
			<point x="168" y="612" type="line"/>
			<point x="54" y="511" type="line"/>
			<point x="332" y="191" type="line"/>
			<point x="112" y="193" type="line"/>
		</contour>
	</outline>
	<guideline x="211" y="100" angle="0"/>
</glyph>
<glyph name="partialdiff" format="2">
	<unicode hex="2202"/>
	<advance width="600"/>
	<outline>
		<contour>
			<point x="276" y="-13" type="curve" smooth="yes"/>
			<point x="449" y="-13"/>
			<point x="544" y="100"/>
			<point x="570" y="268" type="curve" smooth="yes"/>
			<point x="572" y="281" type="line" smooth="yes"/>
			<point x="597" y="442"/>
			<point x="532" y="597"/>
			<point x="422" y="684" type="curve"/>
			<point x="146" y="684" type="line"/>
			<point x="290" y="590"/>
			<point x="347" y="511"/>
			<point x="372" y="422" type="curve"/>
			<point x="339" y="469"/>
			<point x="292" y="512"/>
			<point x="221" y="512" type="curve" smooth="yes"/>
			<point x="133" y="512"/>
			<point x="56" y="436"/>
			<point x="36" y="296" type="curve" smooth="yes"/>
			<point x="34" y="282" type="line" smooth="yes"/>
			<point x="9" y="106"/>
			<point x="86" y="-13"/>
		</contour>
		<contour>
			<point x="286" y="135" type="curve" smooth="yes"/>
			<point x="240" y="135"/>
			<point x="218" y="173"/>
			<point x="231" y="262" type="curve" smooth="yes"/>
			<point x="232" y="269" type="line" smooth="yes"/>
			<point x="244" y="351"/>
			<point x="270" y="384"/>
			<point x="313" y="384" type="curve" smooth="yes"/>
			<point x="359" y="384"/>
			<point x="382" y="349"/>
			<point x="369" y="260" type="curve" smooth="yes"/>
			<point x="368" y="253" type="line" smooth="yes"/>
			<point x="356" y="171"/>
			<point x="328" y="135"/>
		</contour>
	</outline>
</glyph>
<glyph name="increment" format="2">
	<unicode hex="2206"/>
	<advance width="600"/>
	<outline>
		<contour>
			<point x="-37" y="0" type="line"/>
			<point x="563" y="0" type="line"/>
			<point x="501" y="684" type="line"/>
			<point x="216" y="684" type="line"/>
		</contour>
		<contour>
			<point x="220" y="160" type="line"/>
			<point x="339" y="528" type="line"/>
			<point x="353" y="160" type="line"/>
		</contour>
	</outline>
</glyph>
<glyph name="summation" format="2">
	<unicode hex="2211"/>
	<advance width="600"/>
	<outline>
		<contour>
			<point x="7" y="0" type="line"/>
			<point x="522" y="0" type="line"/>
			<point x="545" y="160" type="line"/>
			<point x="281" y="160" type="line"/>
			<point x="457" y="278" type="line"/>
			<point x="476" y="409" type="line"/>
			<point x="331" y="526" type="line"/>
			<point x="596" y="526" type="line"/>
			<point x="618" y="684" type="line"/>
			<point x="105" y="684" type="line"/>
			<point x="83" y="521" type="line"/>
			<point x="289" y="348" type="line"/>
			<point x="32" y="175" type="line"/>
		</contour>
	</outline>
	<guideline x="616" y="684" angle="82"/>
</glyph>
<glyph name="radical" format="2">
	<unicode hex="221A"/>
	<advance width="600"/>
	<outline>
		<contour>
			<point x="97" y="0" type="line"/>
			<point x="351" y="0" type="line"/>
			<point x="659" y="684" type="line"/>
			<point x="446" y="684" type="line"/>
			<point x="252" y="214" type="line"/>
			<point x="232" y="450" type="line"/>
			<point x="37" y="450" type="line"/>
			<point x="14" y="282" type="line"/>
			<point x="61" y="282" type="line"/>
		</contour>
	</outline>
</glyph>
<glyph name="infinity" format="2">
	<unicode hex="221E"/>
	<advance width="600"/>
	<outline>
		<contour>
			<point x="205" y="592" type="curve" smooth="yes"/>
			<point x="101" y="592"/>
			<point x="48" y="513"/>
			<point x="24" y="345" type="curve" smooth="yes"/>
			<point x="-3" y="155"/>
			<point x="44" y="75"/>
			<point x="146" y="75" type="curve" smooth="yes"/>
			<point x="226" y="75"/>
			<point x="268" y="135"/>
			<point x="291" y="209" type="curve"/>
			<point x="298" y="137"/>
			<point x="333" y="74"/>
			<point x="416" y="74" type="curve" smooth="yes"/>
			<point x="521" y="74"/>
			<point x="570" y="164"/>
			<point x="593" y="326" type="curve" smooth="yes"/>
			<point x="619" y="513"/>
			<point x="569" y="591"/>
			<point x="470" y="591" type="curve" smooth="yes"/>
			<point x="387" y="591"/>
			<point x="349" y="528"/>
			<point x="326" y="457" type="curve"/>
			<point x="321" y="528"/>
			<point x="289" y="592"/>
		</contour>
		<contour>
			<point x="187" y="221" type="curve" smooth="yes"/>
			<point x="153" y="221"/>
			<point x="142" y="247"/>
			<point x="156" y="346" type="curve" smooth="yes"/>
			<point x="167" y="424"/>
			<point x="182" y="446"/>
			<point x="210" y="446" type="curve" smooth="yes"/>
			<point x="244" y="446"/>
			<point x="255" y="418"/>
			<point x="242" y="327" type="curve" smooth="yes"/>
			<point x="230" y="243"/>
			<point x="216" y="221"/>
		</contour>
		<contour>
			<point x="406" y="221" type="curve" smooth="yes"/>
			<point x="377" y="221"/>
			<point x="359" y="240"/>
			<point x="374" y="342" type="curve" smooth="yes"/>
			<point x="386" y="426"/>
			<point x="400" y="446"/>
			<point x="429" y="446" type="curve" smooth="yes"/>
			<point x="461" y="446"/>
			<point x="474" y="422"/>
			<point x="460" y="324" type="curve" smooth="yes"/>
			<point x="449" y="247"/>
			<point x="436" y="221"/>
		</contour>
	</outline>
</glyph>
<glyph name="integral" format="2">
	<unicode hex="222B"/>
	<advance width="600"/>
	<outline>
		<contour>
			<point x="102" y="-204" type="curve" smooth="yes"/>
			<point x="237" y="-204"/>
			<point x="331" y="-142"/>
			<point x="350" y="-4" type="curve" smooth="yes"/>
			<point x="416" y="475" type="line" smooth="yes"/>
			<point x="423" y="526"/>
			<point x="452" y="551"/>
			<point x="505" y="551" type="curve" smooth="yes"/>
			<point x="535" y="551"/>
			<point x="559" y="545"/>
			<point x="573" y="541" type="curve"/>
			<point x="592" y="677" type="line"/>
			<point x="570" y="688"/>
			<point x="529" y="698"/>
			<point x="463" y="698" type="curve" smooth="yes"/>
			<point x="354" y="698"/>
			<point x="248" y="657"/>
			<point x="226" y="499" type="curve" smooth="yes"/>
			<point x="158" y="12" type="line" smooth="yes"/>
			<point x="150" y="-43"/>
			<point x="119" y="-63"/>
			<point x="57" y="-63" type="curve" smooth="yes"/>
			<point x="39" y="-63"/>
			<point x="17" y="-60"/>
			<point x="-2" y="-56" type="curve"/>
			<point x="-20" y="-187" type="line"/>
			<point x="6" y="-197"/>
			<point x="47" y="-204"/>
		</contour>
	</outline>
</glyph>
<glyph name="approxequal" format="2">
	<unicode hex="2248"/>
	<advance width="600"/>
	<outline>
		<contour>
			<point x="185" y="387" type="curve" smooth="yes"/>
			<point x="256" y="387"/>
			<point x="342" y="331"/>
			<point x="443" y="331" type="curve" smooth="yes"/>
			<point x="488" y="331"/>
			<point x="537" y="347"/>
			<point x="557" y="372" type="curve"/>
			<point x="581" y="541" type="line"/>
			<point x="542" y="500"/>
			<point x="503" y="492"/>
			<point x="458" y="493" type="curve" smooth="yes"/>
			<point x="392" y="495"/>
			<point x="291" y="549"/>
			<point x="207" y="549" type="curve" smooth="yes"/>
			<point x="164" y="549"/>
			<point x="114" y="534"/>
			<point x="93" y="509" type="curve"/>
			<point x="70" y="339" type="line"/>
			<point x="99" y="372"/>
			<point x="145" y="387"/>
		</contour>
		<contour>
			<point x="152" y="149" type="curve" smooth="yes"/>
			<point x="223" y="149"/>
			<point x="309" y="93"/>
			<point x="410" y="93" type="curve" smooth="yes"/>
			<point x="457" y="93"/>
			<point x="503" y="109"/>
			<point x="524" y="134" type="curve"/>
			<point x="547" y="302" type="line"/>
			<point x="512" y="265"/>
			<point x="474" y="252"/>
			<point x="425" y="254" type="curve" smooth="yes"/>
			<point x="370" y="256"/>
			<point x="256" y="310"/>
			<point x="171" y="310" type="curve" smooth="yes"/>
			<point x="128" y="310"/>
			<point x="80" y="294"/>
			<point x="60" y="270" type="curve"/>
			<point x="36" y="101" type="line"/>
			<point x="66" y="134"/>
			<point x="114" y="149"/>
		</contour>
	</outline>
</glyph>
<glyph name="anglebracketleft" format="2">
	<unicode hex="3008"/>
	<advance width="600"/>
	<outline>
		<contour>
			<point x="300" y="-163" type="line"/>
			<point x="501" y="-163" type="line"/>
			<point x="312" y="306" type="line"/>
			<point x="645" y="792" type="line"/>
			<point x="436" y="792" type="line"/>
			<point x="111" y="316" type="line"/>
		</contour>
	</outline>
</glyph>
<glyph name="anglebracketright" format="2">
	<unicode hex="3009"/>
	<advance width="600"/>
	<outline>
		<contour>
			<point x="-30" y="-163" type="line"/>
			<point x="183" y="-163" type="line"/>
			<point x="504" y="313" type="line"/>
			<point x="308" y="792" type="line"/>
			<point x="114" y="792" type="line"/>
			<point x="304" y="329" type="line"/>
		</contour>
	</outline>
</glyph>
<glyph name="commaaccent" format="2">
	<unicode hex="F6C3"/>
	<advance width="600"/>
	<outline>
		<contour>
			<point x="132" y="-293" type="curve"/>
			<point x="255" y="-293" type="line"/>
			<point x="304" y="-250"/>
			<point x="327" y="-211"/>
			<point x="336" y="-160" type="curve" smooth="yes"/>
			<point x="349" y="-91"/>
			<point x="329" y="-48"/>
			<point x="241" y="-48" type="curve" smooth="yes"/>
			<point x="176" y="-48"/>
			<point x="148" y="-73"/>
			<point x="140" y="-127" type="curve" smooth="yes"/>
			<point x="133" y="-174"/>
			<point x="148" y="-202"/>
			<point x="194" y="-209" type="curve"/>
			<point x="179" y="-240"/>
			<point x="157" y="-267"/>
		</contour>
	</outline>
	<anchor name="_bottom" x="259" y="0"/>
	<anchor name="anchor" x="296" y="0"/>
</glyph>
<glyph name="Anocross" format="2">
	<advance width="600"/>
	<outline>
		<contour>
			<point x="-37" y="0" type="line"/>
			<point x="167" y="0" type="line"/>
			<point x="341" y="533" type="line"/>
			<point x="363" y="0" type="line"/>
			<point x="563" y="0" type="line"/>
			<point x="503" y="684" type="line"/>
			<point x="217" y="684" type="line"/>
		</contour>
	</outline>
	<anchor name="bottom" x="322" y="0"/>
	<anchor name="ogonek" x="563" y="0"/>
	<anchor name="top" x="360" y="684"/>
</glyph>
<glyph name="Lslashcomb" format="2">
	<advance width="600"/>
	<outline>
		<contour>
			<point x="8" y="412" type="line"/>
			<point x="-11" y="278" type="line"/>
			<point x="445" y="440" type="line"/>
			<point x="464" y="574" type="line"/>
		</contour>
	</outline>
	<anchor name="_center" x="186" y="411"/>
</glyph>
<glyph name="ampersand_ampersand.cLig" format="2">
	<advance width="600"/>
	<outline>
		<contour>
			<point x="-332" y="-14" type="curve"/>
			<point x="-254" y="-14"/>
			<point x="-181" y="16"/>
			<point x="-126" y="66" type="curve"/>
			<point x="-92" y="17"/>
			<point x="-31" y="-14"/>
			<point x="48" y="-14" type="curve" smooth="yes"/>
			<point x="126" y="-14"/>
			<point x="193" y="10"/>
			<point x="249" y="50" type="curve"/>
			<point x="287" y="0" type="line"/>
			<point x="495" y="0" type="line"/>
			<point x="366" y="175" type="line"/>
			<point x="411" y="244"/>
			<point x="446" y="328"/>
			<point x="471" y="416" type="curve"/>
			<point x="314" y="416" type="line"/>
			<point x="302" y="374"/>
			<point x="289" y="335"/>
			<point x="273" y="300" type="curve"/>
			<point x="196" y="404" type="line" smooth="yes"/>
			<point x="170" y="439"/>
			<point x="167" y="466"/>
			<point x="171" y="488" type="curve" smooth="yes"/>
			<point x="176" y="524"/>
			<point x="203" y="545"/>
			<point x="246" y="545" type="curve" smooth="yes"/>
			<point x="283" y="545"/>
			<point x="312" y="525"/>
			<point x="340" y="506" type="curve"/>
			<point x="362" y="665" type="line"/>
			<point x="336" y="684"/>
			<point x="291" y="698"/>
			<point x="238" y="698" type="curve" smooth="yes"/>
			<point x="90" y="698"/>
			<point x="11" y="616"/>
			<point x="-4" y="510" type="curve" smooth="yes"/>
			<point x="-9" y="474"/>
			<point x="-7" y="440"/>
			<point x="2" y="408" type="curve"/>
			<point x="-50" y="382"/>
			<point x="-90" y="349"/>
			<point x="-117" y="306" type="curve"/>
			<point x="-194" y="404" type="line" smooth="yes"/>
			<point x="-220" y="438"/>
			<point x="-223" y="466"/>
			<point x="-219" y="488" type="curve" smooth="yes"/>
			<point x="-214" y="524"/>
			<point x="-187" y="545"/>
			<point x="-149" y="545" type="curve"/>
			<point x="-107" y="545"/>
			<point x="-78" y="525"/>
			<point x="-50" y="506" type="curve"/>
			<point x="-28" y="665" type="line"/>
			<point x="-54" y="684"/>
			<point x="-97" y="698"/>
			<point x="-157" y="698" type="curve"/>
			<point x="-300" y="698"/>
			<point x="-379" y="616"/>
			<point x="-394" y="510" type="curve" smooth="yes"/>
			<point x="-399" y="472"/>
			<point x="-398" y="436"/>
			<point x="-388" y="402" type="curve"/>
			<point x="-472" y="361"/>
			<point x="-525" y="294"/>
			<point x="-539" y="199" type="curve" smooth="yes"/>
			<point x="-555" y="80"/>
			<point x="-474" y="-14"/>
		</contour>
		<contour>
			<point x="8" y="213" type="curve" smooth="yes"/>
			<point x="13" y="246"/>
			<point x="32" y="275"/>
			<point x="64" y="292" type="curve"/>
			<point x="64" y="294" type="line"/>
			<point x="169" y="156" type="line"/>
			<point x="145" y="139"/>
			<point x="119" y="130"/>
			<point x="91" y="130" type="curve" smooth="yes"/>
			<point x="31" y="130"/>
			<point x="1" y="164"/>
		</contour>
		<contour>
			<point x="-375" y="213" type="curve" smooth="yes"/>
			<point x="-370" y="245"/>
			<point x="-352" y="274"/>
			<point x="-321" y="291" type="curve"/>
			<point x="-214" y="163" type="line"/>
			<point x="-240" y="142"/>
			<point x="-268" y="130"/>
			<point x="-299" y="130" type="curve" smooth="yes"/>
			<point x="-355" y="130"/>
			<point x="-382" y="164"/>
		</contour>
	</outline>
</glyph>
<glyph name="ampersand_ampersand_ampersand.rem" format="2">
	<advance width="600"/>
	<outline>
		<contour>
			<point x="-842" y="-14" type="curve"/>
			<point x="-762" y="-14"/>
			<point x="-686" y="18"/>
			<point x="-631" y="71" type="curve"/>
			<point x="-596" y="19"/>
			<point x="-531" y="-14"/>
			<point x="-442" y="-14" type="curve"/>
			<point x="-362" y="-14"/>
			<point x="-286" y="16"/>
			<point x="-231" y="67" type="curve"/>
			<point x="-196" y="18"/>
			<point x="-132" y="-14"/>
			<point x="-48" y="-14" type="curve" smooth="yes"/>
			<point x="34" y="-14"/>
			<point x="104" y="10"/>
			<point x="164" y="52" type="curve"/>
			<point x="206" y="0" type="line"/>
			<point x="414" y="0" type="line"/>
			<point x="280" y="172" type="line"/>
			<point x="328" y="242"/>
			<point x="364" y="326"/>
			<point x="390" y="416" type="curve"/>
			<point x="233" y="416" type="line"/>
			<point x="220" y="370"/>
			<point x="205" y="328"/>
			<point x="186" y="291" type="curve"/>
			<point x="98" y="404" type="line" smooth="yes"/>
			<point x="68" y="442"/>
			<point x="64" y="465"/>
			<point x="68" y="487" type="curve" smooth="yes"/>
			<point x="73" y="523"/>
			<point x="103" y="545"/>
			<point x="146" y="545" type="curve" smooth="yes"/>
			<point x="183" y="545"/>
			<point x="212" y="525"/>
			<point x="240" y="506" type="curve"/>
			<point x="262" y="665" type="line"/>
			<point x="236" y="684"/>
			<point x="191" y="698"/>
			<point x="138" y="698" type="curve" smooth="yes"/>
			<point x="-10" y="698"/>
			<point x="-92" y="615"/>
			<point x="-107" y="509" type="curve" smooth="yes"/>
			<point x="-112" y="474"/>
			<point x="-110" y="442"/>
			<point x="-101" y="411" type="curve"/>
			<point x="-153" y="386"/>
			<point x="-195" y="350"/>
			<point x="-224" y="305" type="curve"/>
			<point x="-307" y="404" type="line" smooth="yes"/>
			<point x="-333" y="435"/>
			<point x="-336" y="465"/>
			<point x="-332" y="487" type="curve" smooth="yes"/>
			<point x="-327" y="523"/>
			<point x="-297" y="545"/>
			<point x="-259" y="545" type="curve"/>
			<point x="-217" y="545"/>
			<point x="-188" y="525"/>
			<point x="-160" y="506" type="curve"/>
			<point x="-138" y="665" type="line"/>
			<point x="-164" y="684"/>
			<point x="-207" y="698"/>
			<point x="-267" y="698" type="curve"/>
			<point x="-410" y="698"/>
			<point x="-492" y="615"/>
			<point x="-507" y="509" type="curve" smooth="yes"/>
			<point x="-512" y="473"/>
			<point x="-511" y="438"/>
			<point x="-502" y="405" type="curve"/>
			<point x="-555" y="380"/>
			<point x="-597" y="344"/>
			<point x="-625" y="297" type="curve"/>
			<point x="-714" y="404" type="line" smooth="yes"/>
			<point x="-741" y="437"/>
			<point x="-745" y="466"/>
			<point x="-741" y="488" type="curve" smooth="yes"/>
			<point x="-736" y="524"/>
			<point x="-707" y="545"/>
			<point x="-669" y="545" type="curve"/>
			<point x="-627" y="545"/>
			<point x="-598" y="525"/>
			<point x="-570" y="506" type="curve"/>
			<point x="-538" y="665" type="line"/>
			<point x="-564" y="684"/>
			<point x="-617" y="698"/>
			<point x="-677" y="698" type="curve"/>
			<point x="-820" y="698"/>
			<point x="-901" y="616"/>
			<point x="-916" y="510" type="curve" smooth="yes"/>
			<point x="-921" y="472"/>
			<point x="-920" y="435"/>
			<point x="-910" y="401" type="curve"/>
			<point x="-993" y="360"/>
			<point x="-1045" y="294"/>
			<point x="-1059" y="199" type="curve" smooth="yes"/>
			<point x="-1075" y="80"/>
			<point x="-984" y="-14"/>
		</contour>
		<contour>
			<point x="-98" y="213" type="curve" smooth="yes"/>
			<point x="-93" y="246"/>
			<point x="-74" y="275"/>
			<point x="-32" y="292" type="curve"/>
			<point x="-32" y="293" type="line"/>
			<point x="79" y="156" type="line"/>
			<point x="53" y="139"/>
			<point x="25" y="130"/>
			<point x="-5" y="130" type="curve" smooth="yes"/>
			<point x="-72" y="130"/>
			<point x="-105" y="164"/>
		</contour>
		<contour>
			<point x="-895" y="213" type="curve" smooth="yes"/>
			<point x="-890" y="245"/>
			<point x="-872" y="274"/>
			<point x="-840" y="291" type="curve"/>
			<point x="-725" y="163" type="line"/>
			<point x="-750" y="142"/>
			<point x="-779" y="130"/>
			<point x="-809" y="130" type="curve" smooth="yes"/>
			<point x="-865" y="130"/>
			<point x="-902" y="164"/>
		</contour>
		<contour>
			<point x="-495" y="213" type="curve" smooth="yes"/>
			<point x="-490" y="245"/>
			<point x="-472" y="273"/>
			<point x="-433" y="290" type="curve"/>
			<point x="-321" y="163" type="line"/>
			<point x="-347" y="141"/>
			<point x="-377" y="130"/>
			<point x="-409" y="130" type="curve" smooth="yes"/>
			<point x="-472" y="130"/>
			<point x="-502" y="164"/>
		</contour>
		<contour>
			<point x="-657" y="132" type="line"/>
			<point x="-658" y="133" type="line"/>
			<point x="-657" y="133" type="line"/>
		</contour>
	</outline>
</glyph>
<glyph name="asciicircum_equal.cLig" format="2">
	<advance width="600"/>
	<outline>
		<contour>
			<point x="-467" y="314" type="line"/>
			<point x="-302" y="314" type="line"/>
			<point x="-181" y="527" type="line"/>
			<point x="-118" y="314" type="line"/>
			<point x="448" y="314" type="line"/>
			<point x="471" y="474" type="line"/>
			<point x="-11" y="474" type="line"/>
			<point x="-78" y="672" type="line"/>
			<point x="-250" y="672" type="line"/>
		</contour>
		<contour>
			<point x="-68" y="82" type="line"/>
			<point x="416" y="82" type="line"/>
			<point x="439" y="242" type="line"/>
			<point x="-45" y="242" type="line"/>
		</contour>
	</outline>
</glyph>
<glyph name="asciitilde_asciitilde.cLig" format="2">
	<advance width="600"/>
	<outline>
		<contour>
			<point x="-102" y="168" type="curve"/>
			<point x="12" y="168"/>
			<point x="34" y="287"/>
			<point x="103" y="287" type="curve"/>
			<point x="170" y="287"/>
			<point x="171" y="168"/>
			<point x="309" y="168" type="curve"/>
			<point x="412" y="168"/>
			<point x="493" y="255"/>
			<point x="548" y="452" type="curve"/>
			<point x="401" y="452" type="line"/>
			<point x="374" y="381"/>
			<point x="348" y="343"/>
			<point x="305" y="342" type="curve"/>
			<point x="234" y="343"/>
			<point x="254" y="459"/>
			<point x="111" y="459" type="curve"/>
			<point x="-21" y="459"/>
			<point x="-31" y="344"/>
			<point x="-94" y="343" type="curve"/>
			<point x="-155" y="344"/>
			<point x="-156" y="459"/>
			<point x="-285" y="459" type="curve"/>
			<point x="-398" y="459"/>
			<point x="-476" y="376"/>
			<point x="-531" y="177" type="curve"/>
			<point x="-384" y="177" type="line"/>
			<point x="-359" y="250"/>
			<point x="-338" y="287"/>
			<point x="-290" y="287" type="curve"/>
			<point x="-228" y="287"/>
			<point x="-225" y="168"/>
		</contour>
	</outline>
</glyph>
<glyph name="asciitilde_asciitilde_asciitilde.rem" format="2">
	<advance width="600"/>
	<outline>
		<contour>
			<point x="-574" y="167" type="curve"/>
			<point x="-472" y="167"/>
			<point x="-435" y="285"/>
			<point x="-367" y="285" type="curve"/>
			<point x="-293" y="285"/>
			<point x="-278" y="167"/>
			<point x="-164" y="167" type="curve"/>
			<point x="-57" y="167"/>
			<point x="-23" y="285"/>
			<point x="40" y="285" type="curve" smooth="yes"/>
			<point x="116" y="285"/>
			<point x="135" y="167"/>
			<point x="261" y="167" type="curve" smooth="yes"/>
			<point x="358" y="167"/>
			<point x="466" y="254"/>
			<point x="504" y="452" type="curve"/>
			<point x="355" y="452" type="line"/>
			<point x="336" y="389"/>
			<point x="301" y="347"/>
			<point x="252" y="347" type="curve" smooth="yes"/>
			<point x="180" y="347"/>
			<point x="183" y="461"/>
			<point x="59" y="461" type="curve"/>
			<point x="-55" y="461"/>
			<point x="-90" y="348"/>
			<point x="-149" y="348" type="curve"/>
			<point x="-224" y="348"/>
			<point x="-217" y="461"/>
			<point x="-350" y="461" type="curve"/>
			<point x="-466" y="461"/>
			<point x="-499" y="348"/>
			<point x="-555" y="348" type="curve" smooth="yes"/>
			<point x="-631" y="348"/>
			<point x="-647" y="461"/>
			<point x="-764" y="461" type="curve" smooth="yes"/>
			<point x="-874" y="461"/>
			<point x="-978" y="380"/>
			<point x="-1015" y="177" type="curve"/>
			<point x="-863" y="177" type="line"/>
			<point x="-845" y="250"/>
			<point x="-819" y="285"/>
			<point x="-771" y="285" type="curve" smooth="yes"/>
			<point x="-693" y="285"/>
			<point x="-688" y="167"/>
		</contour>
	</outline>
</glyph>
<glyph name="asciitilde_greater.cLig" format="2">
	<advance width="600"/>
	<outline>
		<contour>
			<point x="106" y="629" type="line"/>
			<point x="270" y="400" type="line"/>
			<point x="-73" y="400" type="line"/>
			<point x="-82" y="363"/>
			<point x="-100" y="335"/>
			<point x="-135" y="335" type="curve" smooth="yes"/>
			<point x="-192" y="335"/>
			<point x="-219" y="448"/>
			<point x="-326" y="448" type="curve" smooth="yes"/>
			<point x="-429" y="448"/>
			<point x="-498" y="374"/>
			<point x="-521" y="177" type="curve"/>
			<point x="-379" y="177" type="line"/>
			<point x="-374" y="239"/>
			<point x="-356" y="272"/>
			<point x="-324" y="272" type="curve" smooth="yes"/>
			<point x="-273" y="272"/>
			<point x="-235" y="165"/>
			<point x="-126" y="165" type="curve" smooth="yes"/>
			<point x="-79" y="165"/>
			<point x="-37" y="181"/>
			<point x="-4" y="228" type="curve"/>
			<point x="238" y="228" type="line"/>
			<point x="13" y="0" type="line"/>
			<point x="232" y="0" type="line"/>
			<point x="537" y="314" type="line"/>
			<point x="314" y="629" type="line"/>
		</contour>
	</outline>
</glyph>
<glyph name="asciitilde_hyphen.cLig" format="2">
	<advance width="600"/>
	<outline>
		<contour>
			<point x="466" y="390" type="line"/>
			<point x="-7" y="390" type="line"/>
			<point x="-16" y="353"/>
			<point x="-34" y="325"/>
			<point x="-69" y="325" type="curve" smooth="yes"/>
			<point x="-126" y="325"/>
			<point x="-153" y="438"/>
			<point x="-260" y="438" type="curve" smooth="yes"/>
			<point x="-363" y="438"/>
			<point x="-432" y="364"/>
			<point x="-455" y="167" type="curve"/>
			<point x="-313" y="167" type="line"/>
			<point x="-308" y="229"/>
			<point x="-290" y="262"/>
			<point x="-258" y="262" type="curve" smooth="yes"/>
			<point x="-207" y="262"/>
			<point x="-169" y="155"/>
			<point x="-60" y="155" type="curve" smooth="yes"/>
			<point x="-13" y="155"/>
			<point x="29" y="171"/>
			<point x="62" y="218" type="curve"/>
			<point x="441" y="218" type="line"/>
		</contour>
	</outline>
</glyph>
<glyph name="aster_comp" format="2">
	<advance width="600"/>
	<outline>
		<contour>
			<point x="267" y="550" type="curve" smooth="yes"/>
			<point x="277" y="550"/>
			<point x="287" y="555"/>
			<point x="293" y="576" type="curve" smooth="yes"/>
			<point x="350" y="790" type="line"/>
			<point x="183" y="790" type="line"/>
			<point x="240" y="576" type="line" smooth="yes"/>
			<point x="246" y="555"/>
			<point x="257" y="550"/>
		</contour>
		<contour>
			<point x="240" y="524" type="curve" smooth="yes"/>
			<point x="183" y="310" type="line"/>
			<point x="350" y="310" type="line"/>
			<point x="293" y="524" type="line" smooth="yes"/>
			<point x="287" y="545"/>
			<point x="277" y="550"/>
			<point x="267" y="550" type="curve" smooth="yes"/>
			<point x="257" y="550"/>
			<point x="246" y="545"/>
		</contour>
	</outline>
	<guideline x="197" y="720" angle="90" identifier="1OQmg4YAm5"/>
</glyph>
<glyph name="asterisk_asterisk_slash.rem" format="2">
	<advance width="600"/>
	<outline>
		<contour>
			<point x="-1022" y="117" type="line"/>
			<point x="-870" y="251" type="line"/>
			<point x="-946" y="69" type="line"/>
			<point x="-763" y="69" type="line"/>
			<point x="-789" y="250" type="line"/>
			<point x="-677" y="117" type="line"/>
			<point x="-562" y="274" type="line"/>
			<point x="-737" y="321" type="line"/>
			<point x="-548" y="368" type="line"/>
			<point x="-616" y="526" type="line"/>
			<point x="-770" y="390" type="line"/>
			<point x="-692" y="575" type="line"/>
			<point x="-875" y="575" type="line"/>
			<point x="-850" y="392" type="line"/>
			<point x="-965" y="528" type="line"/>
			<point x="-1078" y="370" type="line"/>
			<point x="-900" y="322" type="line"/>
			<point x="-1090" y="275" type="line"/>
		</contour>
		<contour>
			<point x="-443" y="117" type="line"/>
			<point x="-291" y="251" type="line"/>
			<point x="-367" y="69" type="line"/>
			<point x="-184" y="69" type="line"/>
			<point x="-210" y="250" type="line"/>
			<point x="-98" y="117" type="line"/>
			<point x="17" y="274" type="line"/>
			<point x="-158" y="321" type="line"/>
			<point x="31" y="368" type="line"/>
			<point x="-37" y="526" type="line"/>
			<point x="-191" y="390" type="line"/>
			<point x="-113" y="575" type="line"/>
			<point x="-296" y="575" type="line"/>
			<point x="-271" y="392" type="line"/>
			<point x="-386" y="528" type="line"/>
			<point x="-499" y="370" type="line"/>
			<point x="-321" y="322" type="line"/>
			<point x="-511" y="275" type="line"/>
		</contour>
		<contour>
			<point x="379" y="792" type="line"/>
			<point x="-72" y="-163" type="line"/>
			<point x="123" y="-163" type="line"/>
			<point x="575" y="792" type="line"/>
		</contour>
	</outline>
</glyph>
<glyph name="asterisk_greater.cLig" format="2">
	<advance width="600"/>
	<outline>
		<contour>
			<point x="101" y="645" type="line"/>
			<point x="74" y="468" type="line"/>
			<point x="369" y="320" type="line"/>
			<point x="35" y="180" type="line"/>
			<point x="7" y="-14" type="line"/>
			<point x="492" y="209" type="line"/>
			<point x="522" y="423" type="line"/>
		</contour>
		<contour>
			<point x="-42" y="514" type="line"/>
			<point x="-194" y="380" type="line"/>
			<point x="-118" y="562" type="line"/>
			<point x="-301" y="562" type="line"/>
			<point x="-275" y="381" type="line"/>
			<point x="-387" y="514" type="line"/>
			<point x="-502" y="357" type="line"/>
			<point x="-327" y="310" type="line"/>
			<point x="-516" y="263" type="line"/>
			<point x="-448" y="105" type="line"/>
			<point x="-294" y="241" type="line"/>
			<point x="-372" y="56" type="line"/>
			<point x="-189" y="56" type="line"/>
			<point x="-214" y="239" type="line"/>
			<point x="-99" y="103" type="line"/>
			<point x="14" y="261" type="line"/>
			<point x="-164" y="309" type="line"/>
			<point x="26" y="356" type="line"/>
		</contour>
	</outline>
</glyph>
<glyph name="bar_bar_bar.cLig" format="2">
	<advance width="600"/>
	<outline>
		<contour>
			<point x="184" y="792" type="line"/>
			<point x="50" y="-163" type="line"/>
			<point x="231" y="-163" type="line"/>
			<point x="365" y="792" type="line"/>
		</contour>
		<contour>
			<point x="-816" y="792" type="line"/>
			<point x="-950" y="-163" type="line"/>
			<point x="-769" y="-163" type="line"/>
			<point x="-635" y="792" type="line"/>
		</contour>
		<contour>
			<point x="-316" y="792" type="line"/>
			<point x="-450" y="-163" type="line"/>
			<point x="-269" y="-163" type="line"/>
			<point x="-135" y="792" type="line"/>
		</contour>
	</outline>
</glyph>
<glyph name="bar_bar_bar_greater.cLig" format="2">
	<advance width="600"/>
	<outline>
		<contour>
			<point x="-397" y="-79" type="line"/>
			<point x="-217" y="-79" type="line"/>
			<point x="327" y="208" type="line"/>
			<point x="357" y="422" type="line"/>
			<point x="-107" y="708" type="line"/>
			<point x="-287" y="708" type="line"/>
		</contour>
		<contour>
			<point x="-957" y="-80" type="line"/>
			<point x="-777" y="-80" type="line"/>
			<point x="-667" y="707" type="line"/>
			<point x="-847" y="707" type="line"/>
		</contour>
		<contour>
			<point x="-1517" y="-80" type="line"/>
			<point x="-1337" y="-80" type="line"/>
			<point x="-1227" y="707" type="line"/>
			<point x="-1407" y="707" type="line"/>
		</contour>
		<contour>
			<point x="-136" y="518" type="line"/>
			<point x="189" y="324" type="line"/>
			<point x="-189" y="130" type="line"/>
		</contour>
	</outline>
</glyph>
<glyph name="bar_bar_equal.med" format="2">
	<advance width="600"/>
	<outline>
		<contour>
			<point x="55" y="-55" type="line"/>
			<point x="235" y="-55" type="line"/>
			<point x="259" y="118" type="line"/>
			<point x="579" y="118" type="line"/>
			<point x="602" y="278" type="line"/>
			<point x="282" y="278" type="line"/>
			<point x="292" y="351" type="line"/>
			<point x="612" y="351" type="line"/>
			<point x="635" y="511" type="line"/>
			<point x="315" y="511" type="line"/>
			<point x="339" y="684" type="line"/>
			<point x="159" y="684" type="line"/>
		</contour>
		<contour>
			<point x="-621" y="118" type="line"/>
			<point x="-301" y="118" type="line"/>
			<point x="-325" y="-55" type="line"/>
			<point x="-145" y="-55" type="line"/>
			<point x="-41" y="684" type="line"/>
			<point x="-221" y="684" type="line"/>
			<point x="-245" y="511" type="line"/>
			<point x="-565" y="511" type="line"/>
			<point x="-588" y="351" type="line"/>
			<point x="-268" y="351" type="line"/>
			<point x="-278" y="278" type="line"/>
			<point x="-598" y="278" type="line"/>
		</contour>
	</outline>
</glyph>
<glyph name="bar_bar_equal.rem" format="2">
	<advance width="600"/>
	<outline>
		<contour>
			<point x="-941" y="684" type="line"/>
			<point x="-1045" y="-55" type="line"/>
			<point x="-865" y="-55" type="line"/>
			<point x="-761" y="684" type="line"/>
		</contour>
		<contour>
			<point x="-561" y="684" type="line"/>
			<point x="-665" y="-55" type="line"/>
			<point x="-485" y="-55" type="line"/>
			<point x="-461" y="118" type="line"/>
			<point x="429" y="118" type="line"/>
			<point x="452" y="278" type="line"/>
			<point x="-438" y="278" type="line"/>
			<point x="-428" y="351" type="line"/>
			<point x="462" y="351" type="line"/>
			<point x="485" y="511" type="line"/>
			<point x="-405" y="511" type="line"/>
			<point x="-381" y="684" type="line"/>
		</contour>
	</outline>
</glyph>
<glyph name="bar_bar_greater.cLig" format="2">
	<advance width="600"/>
	<outline>
		<contour>
			<point x="-827" y="708" type="line"/>
			<point x="-937" y="-79" type="line"/>
			<point x="-757" y="-79" type="line"/>
			<point x="-647" y="708" type="line"/>
		</contour>
		<contour>
			<point x="-377" y="-79" type="line"/>
			<point x="-197" y="-79" type="line"/>
			<point x="347" y="208" type="line"/>
			<point x="377" y="422" type="line"/>
			<point x="-87" y="708" type="line"/>
			<point x="-267" y="708" type="line"/>
		</contour>
		<contour>
			<point x="-116" y="518" type="line"/>
			<point x="209" y="324" type="line"/>
			<point x="-169" y="130" type="line"/>
		</contour>
	</outline>
</glyph>
<glyph name="bar_bar_hyphen.fina" format="2">
	<advance width="600"/>
	<outline>
		<contour>
			<point x="175" y="-55" type="line"/>
			<point x="355" y="-55" type="line"/>
			<point x="459" y="684" type="line"/>
			<point x="279" y="684" type="line"/>
		</contour>
		<contour>
			<point x="-605" y="228" type="line"/>
			<point x="-165" y="228" type="line"/>
			<point x="-205" y="-55" type="line"/>
			<point x="-25" y="-55" type="line"/>
			<point x="79" y="684" type="line"/>
			<point x="-101" y="684" type="line"/>
			<point x="-141" y="400" type="line"/>
			<point x="-581" y="400" type="line"/>
		</contour>
	</outline>
</glyph>
<glyph name="bar_bar_hyphen.init" format="2">
	<advance width="600"/>
	<outline>
		<contour>
			<point x="-65" y="-55" type="line"/>
			<point x="115" y="-55" type="line"/>
			<point x="155" y="228" type="line"/>
			<point x="595" y="228" type="line"/>
			<point x="619" y="400" type="line"/>
			<point x="179" y="400" type="line"/>
			<point x="219" y="684" type="line"/>
			<point x="39" y="684" type="line"/>
		</contour>
		<contour>
			<point x="-445" y="-55" type="line"/>
			<point x="-265" y="-55" type="line"/>
			<point x="-161" y="684" type="line"/>
			<point x="-341" y="684" type="line"/>
		</contour>
	</outline>
</glyph>
<glyph name="bar_bar_hyphen.med" format="2">
	<advance width="600"/>
	<outline>
		<contour>
			<point x="55" y="-55" type="line"/>
			<point x="235" y="-55" type="line"/>
			<point x="275" y="228" type="line"/>
			<point x="595" y="228" type="line"/>
			<point x="619" y="400" type="line"/>
			<point x="299" y="400" type="line"/>
			<point x="339" y="684" type="line"/>
			<point x="159" y="684" type="line"/>
		</contour>
		<contour>
			<point x="-605" y="228" type="line"/>
			<point x="-285" y="228" type="line"/>
			<point x="-325" y="-55" type="line"/>
			<point x="-145" y="-55" type="line"/>
			<point x="-41" y="684" type="line"/>
			<point x="-221" y="684" type="line"/>
			<point x="-261" y="400" type="line"/>
			<point x="-581" y="400" type="line"/>
		</contour>
	</outline>
</glyph>
<glyph name="bar_bracketright.cLig" format="2">
	<advance width="600"/>
	<outline>
		<contour>
			<point x="-145" y="-163" type="line"/>
			<point x="331" y="-163" type="line"/>
			<point x="465" y="792" type="line"/>
			<point x="-11" y="792" type="line"/>
			<point x="-30" y="654" type="line"/>
			<point x="264" y="654" type="line"/>
			<point x="168" y="-27" type="line"/>
			<point x="-126" y="-27" type="line"/>
		</contour>
		<contour>
			<point x="-274" y="-163" type="line"/>
			<point x="-140" y="792" type="line"/>
			<point x="-321" y="792" type="line"/>
			<point x="-455" y="-163" type="line"/>
		</contour>
	</outline>
</glyph>
<glyph name="bar_equal.fina" format="2">
	<advance width="600"/>
	<outline>
		<contour>
			<point x="-20" y="118" type="line"/>
			<point x="299" y="118" type="line"/>
			<point x="275" y="-55" type="line"/>
			<point x="455" y="-55" type="line"/>
			<point x="559" y="684" type="line"/>
			<point x="379" y="684" type="line"/>
			<point x="355" y="511" type="line"/>
			<point x="36" y="511" type="line"/>
			<point x="13" y="351" type="line"/>
			<point x="332" y="351" type="line"/>
			<point x="322" y="278" type="line"/>
			<point x="3" y="278" type="line"/>
		</contour>
	</outline>
</glyph>
<glyph name="bar_equal.med" format="2">
	<advance width="600"/>
	<outline>
		<contour>
			<point x="-21" y="118" type="line"/>
			<point x="184" y="118" type="line"/>
			<point x="160" y="-55" type="line"/>
			<point x="340" y="-55" type="line"/>
			<point x="364" y="118" type="line"/>
			<point x="579" y="118" type="line"/>
			<point x="602" y="278" type="line"/>
			<point x="387" y="278" type="line"/>
			<point x="397" y="351" type="line"/>
			<point x="612" y="351" type="line"/>
			<point x="635" y="511" type="line"/>
			<point x="420" y="511" type="line"/>
			<point x="444" y="684" type="line"/>
			<point x="264" y="684" type="line"/>
			<point x="240" y="511" type="line"/>
			<point x="35" y="511" type="line"/>
			<point x="12" y="351" type="line"/>
			<point x="217" y="351" type="line"/>
			<point x="207" y="278" type="line"/>
			<point x="2" y="278" type="line"/>
		</contour>
	</outline>
</glyph>
<glyph name="bar_equal.rem" format="2">
	<advance width="600"/>
	<outline>
		<contour>
			<point x="-341" y="684" type="line"/>
			<point x="-445" y="-55" type="line"/>
			<point x="-265" y="-55" type="line"/>
			<point x="-241" y="118" type="line"/>
			<point x="429" y="118" type="line"/>
			<point x="452" y="278" type="line"/>
			<point x="-218" y="278" type="line"/>
			<point x="-208" y="351" type="line"/>
			<point x="462" y="351" type="line"/>
			<point x="485" y="511" type="line"/>
			<point x="-185" y="511" type="line"/>
			<point x="-161" y="684" type="line"/>
		</contour>
	</outline>
</glyph>
<glyph name="bar_equal_greater.rem" format="2">
	<advance width="600"/>
	<outline>
		<contour>
			<point x="-999" y="629" type="line"/>
			<point x="-1087" y="0" type="line"/>
			<point x="-907" y="0" type="line"/>
			<point x="-890" y="118" type="line"/>
			<point x="88" y="118" type="line"/>
			<point x="-23" y="0" type="line"/>
			<point x="206" y="0" type="line"/>
			<point x="492" y="310" type="line"/>
			<point x="277" y="629" type="line"/>
			<point x="65" y="629" type="line"/>
			<point x="145" y="511" type="line"/>
			<point x="-836" y="511" type="line"/>
			<point x="-819" y="629" type="line"/>
		</contour>
		<contour>
			<point x="276" y="317" type="line"/>
			<point x="239" y="278" type="line"/>
			<point x="-868" y="278" type="line"/>
			<point x="-858" y="351" type="line"/>
			<point x="253" y="351" type="line"/>
		</contour>
	</outline>
</glyph>
<glyph name="bar_greater.cLig" format="2">
	<advance width="600"/>
	<outline>
		<contour>
			<point x="-367" y="-79" type="line"/>
			<point x="-187" y="-79" type="line"/>
			<point x="357" y="208" type="line"/>
			<point x="387" y="422" type="line"/>
			<point x="-77" y="708" type="line"/>
			<point x="-257" y="708" type="line"/>
		</contour>
		<contour>
			<point x="-106" y="518" type="line"/>
			<point x="219" y="324" type="line"/>
			<point x="-159" y="130" type="line"/>
		</contour>
	</outline>
</glyph>
<glyph name="braceleft_braceleft.cLig" format="2">
	<advance width="600"/>
	<outline>
		<contour>
			<point x="-87" y="-163" type="line"/>
			<point x="-68" y="-26" type="line"/>
			<point x="-191" y="-26" type="line" smooth="yes"/>
			<point x="-228" y="-26"/>
			<point x="-247" y="-14"/>
			<point x="-247" y="11" type="curve" smooth="yes"/>
			<point x="-247" y="71"/>
			<point x="-134" y="103"/>
			<point x="-134" y="205" type="curve" smooth="yes"/>
			<point x="-134" y="249"/>
			<point x="-171" y="294"/>
			<point x="-245" y="312" type="curve"/>
			<point x="-175" y="321"/>
			<point x="-97" y="360"/>
			<point x="-97" y="439" type="curve" smooth="yes"/>
			<point x="-97" y="507"/>
			<point x="-169" y="560"/>
			<point x="-169" y="609" type="curve" smooth="yes"/>
			<point x="-169" y="641"/>
			<point x="-148" y="655"/>
			<point x="-105" y="655" type="curve" smooth="yes"/>
			<point x="232" y="655" type="line"/>
			<point x="165" y="644"/>
			<point x="127" y="619"/>
			<point x="127" y="569" type="curve"/>
			<point x="127" y="517"/>
			<point x="199" y="479"/>
			<point x="199" y="436" type="curve" smooth="yes"/>
			<point x="199" y="408"/>
			<point x="176" y="392"/>
			<point x="131" y="392" type="curve" smooth="yes"/>
			<point x="8" y="392" type="line"/>
			<point x="-13" y="233" type="line"/>
			<point x="87" y="233" type="line" smooth="yes"/>
			<point x="139" y="233"/>
			<point x="155" y="220"/>
			<point x="155" y="197" type="curve" smooth="yes"/>
			<point x="155" y="120"/>
			<point x="34" y="86"/>
			<point x="34" y="-32" type="curve" smooth="yes"/>
			<point x="34" y="-108"/>
			<point x="94" y="-163"/>
			<point x="193" y="-163" type="curve" smooth="yes"/>
			<point x="417" y="-163" type="line"/>
			<point x="436" y="-26" type="line"/>
			<point x="297" y="-26" type="line" smooth="yes"/>
			<point x="260" y="-26"/>
			<point x="241" y="-14"/>
			<point x="241" y="11" type="curve" smooth="yes"/>
			<point x="241" y="67"/>
			<point x="356" y="110"/>
			<point x="356" y="210" type="curve" smooth="yes"/>
			<point x="356" y="254"/>
			<point x="319" y="294"/>
			<point x="245" y="312" type="curve"/>
			<point x="316" y="320"/>
			<point x="393" y="349"/>
			<point x="393" y="433" type="curve" smooth="yes"/>
			<point x="393" y="499"/>
			<point x="321" y="546"/>
			<point x="321" y="602" type="curve" smooth="yes"/>
			<point x="321" y="629"/>
			<point x="342" y="655"/>
			<point x="395" y="655" type="curve" smooth="yes"/>
			<point x="531" y="655" type="line"/>
			<point x="551" y="792" type="line"/>
			<point x="-191" y="792" type="line" smooth="yes"/>
			<point x="-286" y="792"/>
			<point x="-360" y="729"/>
			<point x="-360" y="642" type="curve" smooth="yes"/>
			<point x="-360" y="557"/>
			<point x="-291" y="496"/>
			<point x="-291" y="448" type="curve" smooth="yes"/>
			<point x="-291" y="418"/>
			<point x="-314" y="392"/>
			<point x="-339" y="392" type="curve" smooth="yes"/>
			<point x="-462" y="392" type="line"/>
			<point x="-483" y="233" type="line"/>
			<point x="-383" y="233" type="line" smooth="yes"/>
			<point x="-348" y="233"/>
			<point x="-335" y="210"/>
			<point x="-335" y="189" type="curve" smooth="yes"/>
			<point x="-335" y="117"/>
			<point x="-454" y="86"/>
			<point x="-454" y="-32" type="curve" smooth="yes"/>
			<point x="-454" y="-108"/>
			<point x="-394" y="-163"/>
			<point x="-295" y="-163" type="curve" smooth="yes"/>
		</contour>
	</outline>
</glyph>
<glyph name="braceleft_numbersign.cLig" format="2">
	<advance width="600"/>
	<outline>
		<contour>
			<point x="-530" y="233" type="line"/>
			<point x="-437" y="233" type="line" smooth="yes"/>
			<point x="-402" y="233"/>
			<point x="-389" y="210"/>
			<point x="-389" y="189" type="curve" smooth="yes"/>
			<point x="-389" y="117"/>
			<point x="-508" y="86"/>
			<point x="-508" y="-32" type="curve" smooth="yes"/>
			<point x="-508" y="-108"/>
			<point x="-448" y="-163"/>
			<point x="-349" y="-163" type="curve" smooth="yes"/>
			<point x="-141" y="-163" type="line"/>
			<point x="-122" y="-26" type="line"/>
			<point x="-245" y="-26" type="line" smooth="yes"/>
			<point x="-282" y="-26"/>
			<point x="-301" y="-14"/>
			<point x="-301" y="11" type="curve" smooth="yes"/>
			<point x="-301" y="71"/>
			<point x="-188" y="103"/>
			<point x="-188" y="205" type="curve" smooth="yes"/>
			<point x="-188" y="249"/>
			<point x="-225" y="294"/>
			<point x="-299" y="312" type="curve"/>
			<point x="-229" y="321"/>
			<point x="-151" y="360"/>
			<point x="-151" y="439" type="curve" smooth="yes"/>
			<point x="-151" y="507"/>
			<point x="-223" y="560"/>
			<point x="-223" y="609" type="curve" smooth="yes"/>
			<point x="-223" y="641"/>
			<point x="-202" y="655"/>
			<point x="-159" y="655" type="curve" smooth="yes"/>
			<point x="-26" y="655" type="line"/>
			<point x="-6" y="792" type="line"/>
			<point x="-245" y="792" type="line" smooth="yes"/>
			<point x="-340" y="792"/>
			<point x="-414" y="729"/>
			<point x="-414" y="642" type="curve" smooth="yes"/>
			<point x="-414" y="557"/>
			<point x="-345" y="496"/>
			<point x="-345" y="448" type="curve" smooth="yes"/>
			<point x="-345" y="418"/>
			<point x="-368" y="392"/>
			<point x="-393" y="392" type="curve" smooth="yes"/>
			<point x="-509" y="392" type="line"/>
		</contour>
		<contour>
			<point x="-76" y="289" type="line"/>
			<point x="-96" y="148" type="line"/>
			<point x="-1" y="148" type="line"/>
			<point x="-36" y="0" type="line"/>
			<point x="107" y="0" type="line"/>
			<point x="142" y="148" type="line"/>
			<point x="232" y="148" type="line"/>
			<point x="197" y="0" type="line"/>
			<point x="339" y="0" type="line"/>
			<point x="374" y="148" type="line"/>
			<point x="470" y="148" type="line"/>
			<point x="490" y="289" type="line"/>
			<point x="407" y="289" type="line"/>
			<point x="433" y="399" type="line"/>
			<point x="528" y="399" type="line"/>
			<point x="548" y="540" type="line"/>
			<point x="466" y="540" type="line"/>
			<point x="500" y="684" type="line"/>
			<point x="358" y="684" type="line"/>
			<point x="324" y="540" type="line"/>
			<point x="233" y="540" type="line"/>
			<point x="267" y="684" type="line"/>
			<point x="125" y="684" type="line"/>
			<point x="91" y="540" type="line"/>
			<point x="-41" y="540" type="line"/>
			<point x="-61" y="399" type="line"/>
			<point x="58" y="399" type="line"/>
			<point x="32" y="289" type="line"/>
		</contour>
		<contour>
			<point x="175" y="289" type="line"/>
			<point x="200" y="399" type="line"/>
			<point x="291" y="399" type="line"/>
			<point x="265" y="289" type="line"/>
		</contour>
	</outline>
</glyph>
<glyph name="braceright_numbersign.cLig" format="2">
	<advance width="600"/>
	<outline>
		<contour>
			<point x="-590" y="-164" type="line"/>
			<point x="-351" y="-164" type="line" smooth="yes"/>
			<point x="-256" y="-164"/>
			<point x="-183" y="-101"/>
			<point x="-183" y="-13" type="curve" smooth="yes"/>
			<point x="-183" y="72"/>
			<point x="-252" y="133"/>
			<point x="-252" y="181" type="curve" smooth="yes"/>
			<point x="-252" y="211"/>
			<point x="-229" y="237"/>
			<point x="-203" y="237" type="curve" smooth="yes"/>
			<point x="-158" y="237" type="line"/>
			<point x="-136" y="396" type="line"/>
			<point x="-160" y="396" type="line" smooth="yes"/>
			<point x="-194" y="396"/>
			<point x="-208" y="419"/>
			<point x="-208" y="440" type="curve" smooth="yes"/>
			<point x="-208" y="512"/>
			<point x="-89" y="542"/>
			<point x="-89" y="661" type="curve" smooth="yes"/>
			<point x="-89" y="737"/>
			<point x="-149" y="792"/>
			<point x="-248" y="792" type="curve" smooth="yes"/>
			<point x="-456" y="792" type="line"/>
			<point x="-475" y="655" type="line"/>
			<point x="-352" y="655" type="line" smooth="yes"/>
			<point x="-314" y="655"/>
			<point x="-296" y="643"/>
			<point x="-296" y="618" type="curve" smooth="yes"/>
			<point x="-295" y="558"/>
			<point x="-409" y="526"/>
			<point x="-409" y="424" type="curve" smooth="yes"/>
			<point x="-408" y="379"/>
			<point x="-372" y="334"/>
			<point x="-298" y="316" type="curve"/>
			<point x="-369" y="308"/>
			<point x="-446" y="269"/>
			<point x="-446" y="189" type="curve" smooth="yes"/>
			<point x="-445" y="121"/>
			<point x="-374" y="69"/>
			<point x="-374" y="20" type="curve" smooth="yes"/>
			<point x="-375" y="-12"/>
			<point x="-394" y="-26"/>
			<point x="-438" y="-26" type="curve" smooth="yes"/>
			<point x="-571" y="-26" type="line"/>
		</contour>
		<contour>
			<point x="-65" y="289" type="line"/>
			<point x="-85" y="148" type="line"/>
			<point x="10" y="148" type="line"/>
			<point x="-25" y="0" type="line"/>
			<point x="118" y="0" type="line"/>
			<point x="153" y="148" type="line"/>
			<point x="243" y="148" type="line"/>
			<point x="208" y="0" type="line"/>
			<point x="350" y="0" type="line"/>
			<point x="385" y="148" type="line"/>
			<point x="481" y="148" type="line"/>
			<point x="501" y="289" type="line"/>
			<point x="418" y="289" type="line"/>
			<point x="444" y="399" type="line"/>
			<point x="539" y="399" type="line"/>
			<point x="559" y="540" type="line"/>
			<point x="477" y="540" type="line"/>
			<point x="511" y="684" type="line"/>
			<point x="369" y="684" type="line"/>
			<point x="335" y="540" type="line"/>
			<point x="244" y="540" type="line"/>
			<point x="278" y="684" type="line"/>
			<point x="136" y="684" type="line"/>
			<point x="102" y="540" type="line"/>
			<point x="-30" y="540" type="line"/>
			<point x="-50" y="399" type="line"/>
			<point x="69" y="399" type="line"/>
			<point x="43" y="289" type="line"/>
		</contour>
		<contour>
			<point x="186" y="289" type="line"/>
			<point x="211" y="399" type="line"/>
			<point x="302" y="399" type="line"/>
			<point x="276" y="289" type="line"/>
		</contour>
	</outline>
</glyph>
<glyph name="bracketleft_bracketleft.cLig" format="2">
	<advance width="600"/>
	<outline>
		<contour>
			<point x="416" y="-26" type="line"/>
			<point x="225" y="-26" type="line"/>
			<point x="321" y="655" type="line"/>
			<point x="512" y="655" type="line"/>
			<point x="531" y="792" type="line"/>
			<point x="160" y="792" type="line"/>
			<point x="25" y="-163" type="line"/>
			<point x="396" y="-163" type="line"/>
		</contour>
		<contour>
			<point x="-29" y="-26" type="line"/>
			<point x="-269" y="-26" type="line"/>
			<point x="-173" y="655" type="line"/>
			<point x="67" y="655" type="line"/>
			<point x="86" y="792" type="line"/>
			<point x="-334" y="792" type="line"/>
			<point x="-469" y="-163" type="line"/>
			<point x="-49" y="-163" type="line"/>
		</contour>
	</outline>
</glyph>
<glyph name="bracketleft_numbersign.cLig" format="2">
	<advance width="600"/>
	<outline>
		<contour>
			<point x="-85" y="289" type="line"/>
			<point x="-105" y="148" type="line"/>
			<point x="-10" y="148" type="line"/>
			<point x="-45" y="0" type="line"/>
			<point x="98" y="0" type="line"/>
			<point x="133" y="148" type="line"/>
			<point x="223" y="148" type="line"/>
			<point x="188" y="0" type="line"/>
			<point x="330" y="0" type="line"/>
			<point x="365" y="148" type="line"/>
			<point x="461" y="148" type="line"/>
			<point x="481" y="289" type="line"/>
			<point x="398" y="289" type="line"/>
			<point x="424" y="399" type="line"/>
			<point x="519" y="399" type="line"/>
			<point x="539" y="540" type="line"/>
			<point x="457" y="540" type="line"/>
			<point x="491" y="684" type="line"/>
			<point x="349" y="684" type="line"/>
			<point x="315" y="540" type="line"/>
			<point x="224" y="540" type="line"/>
			<point x="258" y="684" type="line"/>
			<point x="116" y="684" type="line"/>
			<point x="82" y="540" type="line"/>
			<point x="-50" y="540" type="line"/>
			<point x="-70" y="399" type="line"/>
			<point x="49" y="399" type="line"/>
			<point x="23" y="289" type="line"/>
		</contour>
		<contour>
			<point x="166" y="289" type="line"/>
			<point x="191" y="399" type="line"/>
			<point x="282" y="399" type="line"/>
			<point x="256" y="289" type="line"/>
		</contour>
		<contour>
			<point x="-123" y="-26" type="line"/>
			<point x="-317" y="-26" type="line"/>
			<point x="-221" y="655" type="line"/>
			<point x="-27" y="655" type="line"/>
			<point x="-8" y="792" type="line"/>
			<point x="-382" y="792" type="line"/>
			<point x="-517" y="-163" type="line"/>
			<point x="-143" y="-163" type="line"/>
		</contour>
	</outline>
</glyph>
<glyph name="bracketright_bracketright.cLig" format="2">
	<advance width="600"/>
	<outline>
		<contour>
			<point x="-401" y="655" type="line"/>
			<point x="-210" y="655" type="line"/>
			<point x="-306" y="-26" type="line"/>
			<point x="-497" y="-26" type="line"/>
			<point x="-516" y="-163" type="line"/>
			<point x="-145" y="-163" type="line"/>
			<point x="-10" y="792" type="line"/>
			<point x="-381" y="792" type="line"/>
		</contour>
		<contour>
			<point x="44" y="655" type="line"/>
			<point x="284" y="655" type="line"/>
			<point x="188" y="-26" type="line"/>
			<point x="-52" y="-26" type="line"/>
			<point x="-71" y="-163" type="line"/>
			<point x="349" y="-163" type="line"/>
			<point x="484" y="792" type="line"/>
			<point x="64" y="792" type="line"/>
		</contour>
	</outline>
</glyph>
<glyph name="colon_colon_equal.cLig" format="2">
	<advance width="600"/>
	<outline>
		<contour>
			<point x="-813" y="308" type="curve" smooth="yes"/>
			<point x="-733" y="308"/>
			<point x="-690" y="339"/>
			<point x="-679" y="415" type="curve" smooth="yes"/>
			<point x="-666" y="501"/>
			<point x="-710" y="535"/>
			<point x="-793" y="535" type="curve" smooth="yes"/>
			<point x="-875" y="535"/>
			<point x="-918" y="504"/>
			<point x="-929" y="429" type="curve" smooth="yes"/>
			<point x="-942" y="342"/>
			<point x="-899" y="308"/>
		</contour>
		<contour>
			<point x="-399" y="308" type="curve" smooth="yes"/>
			<point x="-319" y="308"/>
			<point x="-276" y="339"/>
			<point x="-265" y="415" type="curve" smooth="yes"/>
			<point x="-252" y="501"/>
			<point x="-296" y="535"/>
			<point x="-379" y="535" type="curve" smooth="yes"/>
			<point x="-461" y="535"/>
			<point x="-504" y="504"/>
			<point x="-515" y="429" type="curve" smooth="yes"/>
			<point x="-528" y="342"/>
			<point x="-485" y="308"/>
		</contour>
		<contour>
			<point x="-85" y="314" type="line"/>
			<point x="399" y="314" type="line"/>
			<point x="422" y="474" type="line"/>
			<point x="-62" y="474" type="line"/>
		</contour>
		<contour>
			<point x="-117" y="82" type="line"/>
			<point x="367" y="82" type="line"/>
			<point x="390" y="242" type="line"/>
			<point x="-94" y="242" type="line"/>
		</contour>
		<contour>
			<point x="-855" y="9" type="curve" smooth="yes"/>
			<point x="-775" y="9"/>
			<point x="-732" y="40"/>
			<point x="-721" y="116" type="curve" smooth="yes"/>
			<point x="-708" y="202"/>
			<point x="-752" y="236"/>
			<point x="-835" y="236" type="curve" smooth="yes"/>
			<point x="-917" y="236"/>
			<point x="-960" y="205"/>
			<point x="-971" y="130" type="curve" smooth="yes"/>
			<point x="-984" y="43"/>
			<point x="-941" y="9"/>
		</contour>
		<contour>
			<point x="-441" y="9" type="curve" smooth="yes"/>
			<point x="-361" y="9"/>
			<point x="-318" y="40"/>
			<point x="-307" y="116" type="curve" smooth="yes"/>
			<point x="-294" y="202"/>
			<point x="-338" y="236"/>
			<point x="-421" y="236" type="curve" smooth="yes"/>
			<point x="-503" y="236"/>
			<point x="-546" y="205"/>
			<point x="-557" y="130" type="curve" smooth="yes"/>
			<point x="-570" y="43"/>
			<point x="-527" y="9"/>
		</contour>
	</outline>
</glyph>
<glyph name="colon_equal.cLig" format="2">
	<advance width="600"/>
	<outline>
		<contour>
			<point x="-309" y="308" type="curve" smooth="yes"/>
			<point x="-229" y="308"/>
			<point x="-186" y="339"/>
			<point x="-175" y="415" type="curve" smooth="yes"/>
			<point x="-162" y="501"/>
			<point x="-206" y="535"/>
			<point x="-289" y="535" type="curve" smooth="yes"/>
			<point x="-371" y="535"/>
			<point x="-414" y="504"/>
			<point x="-425" y="429" type="curve" smooth="yes"/>
			<point x="-438" y="342"/>
			<point x="-395" y="308"/>
		</contour>
		<contour>
			<point x="-36" y="314" type="line"/>
			<point x="448" y="314" type="line"/>
			<point x="471" y="474" type="line"/>
			<point x="-13" y="474" type="line"/>
		</contour>
		<contour>
			<point x="-68" y="82" type="line"/>
			<point x="416" y="82" type="line"/>
			<point x="439" y="242" type="line"/>
			<point x="-45" y="242" type="line"/>
		</contour>
		<contour>
			<point x="-351" y="9" type="curve" smooth="yes"/>
			<point x="-271" y="9"/>
			<point x="-228" y="40"/>
			<point x="-217" y="116" type="curve" smooth="yes"/>
			<point x="-204" y="202"/>
			<point x="-248" y="236"/>
			<point x="-331" y="236" type="curve" smooth="yes"/>
			<point x="-413" y="236"/>
			<point x="-456" y="205"/>
			<point x="-467" y="130" type="curve" smooth="yes"/>
			<point x="-480" y="43"/>
			<point x="-437" y="9"/>
		</contour>
	</outline>
</glyph>
<glyph name="colon_less.cLig.x" format="2">
	<advance width="600"/>
	<outline>
		<contour>
			<point x="399" y="-14" type="line"/>
			<point x="426" y="164" type="line"/>
			<point x="134" y="311" type="line"/>
			<point x="465" y="451" type="line"/>
			<point x="493" y="645" type="line"/>
			<point x="8" y="422" type="line"/>
			<point x="-22" y="208" type="line"/>
		</contour>
		<contour>
			<point x="-280" y="351" type="curve" smooth="yes"/>
			<point x="-200" y="351"/>
			<point x="-157" y="382"/>
			<point x="-146" y="458" type="curve" smooth="yes"/>
			<point x="-133" y="544"/>
			<point x="-177" y="578"/>
			<point x="-260" y="578" type="curve" smooth="yes"/>
			<point x="-342" y="578"/>
			<point x="-385" y="547"/>
			<point x="-396" y="472" type="curve" smooth="yes"/>
			<point x="-409" y="385"/>
			<point x="-366" y="351"/>
		</contour>
		<contour>
			<point x="-325" y="31" type="curve" smooth="yes"/>
			<point x="-245" y="31"/>
			<point x="-202" y="62"/>
			<point x="-191" y="138" type="curve" smooth="yes"/>
			<point x="-178" y="224"/>
			<point x="-222" y="258"/>
			<point x="-305" y="258" type="curve" smooth="yes"/>
			<point x="-387" y="258"/>
			<point x="-430" y="227"/>
			<point x="-441" y="152" type="curve" smooth="yes"/>
			<point x="-454" y="65"/>
			<point x="-411" y="31"/>
		</contour>
	</outline>
</glyph>
<glyph name="cordinal" format="2">
	<advance width="600"/>
	<outline>
		<contour>
			<point x="383" y="226" type="curve" smooth="yes"/>
			<point x="426" y="226"/>
			<point x="459" y="231"/>
			<point x="484" y="238" type="curve"/>
			<point x="498" y="358" type="line"/>
			<point x="477" y="353"/>
			<point x="450" y="349"/>
			<point x="418" y="349" type="curve" smooth="yes"/>
			<point x="345" y="349"/>
			<point x="289" y="383"/>
			<point x="302" y="470" type="curve" smooth="yes"/>
			<point x="313" y="544"/>
			<point x="362" y="573"/>
			<point x="431" y="573" type="curve" smooth="yes"/>
			<point x="467" y="573"/>
			<point x="503" y="566"/>
			<point x="528" y="556" type="curve"/>
			<point x="544" y="673" type="line"/>
			<point x="519" y="684"/>
			<point x="469" y="695"/>
			<point x="408" y="695" type="curve" smooth="yes"/>
			<point x="255" y="695"/>
			<point x="157" y="610"/>
			<point x="140" y="489" type="curve" smooth="yes"/>
			<point x="114" y="311"/>
			<point x="229" y="226"/>
		</contour>
	</outline>
</glyph>
<glyph name="dollar_greater.cLig" format="2">
	<advance width="600"/>
	<outline>
		<contour>
			<point x="-479" y="-93" type="line"/>
			<point x="-359" y="-93" type="line"/>
			<point x="-333" y="-10" type="line"/>
			<point x="-322" y="-11"/>
			<point x="-312" y="-11"/>
			<point x="-301" y="-11" type="curve" smooth="yes"/>
			<point x="-131" y="-11"/>
			<point x="-28" y="80"/>
			<point x="-28" y="233" type="curve" smooth="yes"/>
			<point x="-28" y="347"/>
			<point x="-86" y="390"/>
			<point x="-207" y="423" type="curve"/>
			<point x="-171" y="537" type="line"/>
			<point x="-105" y="526"/>
			<point x="-43" y="503"/>
			<point x="57" y="461" type="curve" smooth="yes"/>
			<point x="391" y="321" type="line"/>
			<point x="77" y="198" type="line"/>
			<point x="51" y="13" type="line"/>
			<point x="522" y="208" type="line"/>
			<point x="552" y="422" type="line"/>
			<point x="121" y="609" type="line" smooth="yes"/>
			<point x="18" y="653"/>
			<point x="-46" y="675"/>
			<point x="-105" y="686" type="curve"/>
			<point x="-77" y="774" type="line"/>
			<point x="-198" y="774" type="line"/>
			<point x="-224" y="695" type="line"/>
			<point x="-253" y="695" type="line" smooth="yes"/>
			<point x="-429" y="695"/>
			<point x="-525" y="605"/>
			<point x="-525" y="459" type="curve" smooth="yes"/>
			<point x="-525" y="336"/>
			<point x="-455" y="294"/>
			<point x="-346" y="266" type="curve"/>
			<point x="-382" y="154" type="line"/>
			<point x="-435" y="165"/>
			<point x="-495" y="187"/>
			<point x="-547" y="222" type="curve"/>
			<point x="-570" y="59" type="line"/>
			<point x="-540" y="39"/>
			<point x="-497" y="21"/>
			<point x="-448" y="8" type="curve"/>
		</contour>
		<contour>
			<point x="-335" y="490" type="curve" smooth="yes"/>
			<point x="-335" y="528"/>
			<point x="-310" y="543"/>
			<point x="-257" y="543" type="curve" smooth="yes"/>
			<point x="-255" y="543" type="line"/>
			<point x="-288" y="444" type="line"/>
			<point x="-326" y="456"/>
			<point x="-335" y="467"/>
		</contour>
		<contour>
			<point x="-217" y="198" type="curve" smooth="yes"/>
			<point x="-217" y="159"/>
			<point x="-248" y="146"/>
			<point x="-298" y="145" type="curve"/>
			<point x="-265" y="247" type="line"/>
			<point x="-231" y="238"/>
			<point x="-217" y="226"/>
		</contour>
	</outline>
</glyph>
<glyph name="dotaccent.cap" format="2">
	<advance width="600"/>
	<outline>
		<contour>
			<point x="373" y="732" type="curve" smooth="yes"/>
			<point x="453" y="732"/>
			<point x="478" y="759"/>
			<point x="484" y="818" type="curve" smooth="yes"/>
			<point x="490" y="878"/>
			<point x="454" y="901"/>
			<point x="383" y="901" type="curve" smooth="yes"/>
			<point x="303" y="901"/>
			<point x="276" y="875"/>
			<point x="271" y="811" type="curve" smooth="yes"/>
			<point x="267" y="759"/>
			<point x="297" y="732"/>
		</contour>
	</outline>
	<anchor name="_top" x="360" y="684"/>
	<guideline x="213" y="703" angle="0"/>
	<guideline x="221" y="620" angle="0"/>
</glyph>
<glyph name="eight.den" format="2">
	<advance width="600"/>
	<outline>
		<contour>
			<point x="273" y="-8" type="curve" smooth="yes"/>
			<point x="398" y="-8"/>
			<point x="455" y="45"/>
			<point x="455" y="119" type="curve" smooth="yes"/>
			<point x="455" y="169"/>
			<point x="424" y="193"/>
			<point x="376" y="206" type="curve"/>
			<point x="428" y="216"/>
			<point x="474" y="252"/>
			<point x="474" y="314" type="curve" smooth="yes"/>
			<point x="474" y="382"/>
			<point x="417" y="418"/>
			<point x="309" y="418" type="curve" smooth="yes"/>
			<point x="209" y="418"/>
			<point x="138" y="377"/>
			<point x="138" y="296" type="curve" smooth="yes"/>
			<point x="138" y="251"/>
			<point x="165" y="223"/>
			<point x="210" y="212" type="curve"/>
			<point x="149" y="203"/>
			<point x="103" y="167"/>
			<point x="103" y="101" type="curve" smooth="yes"/>
			<point x="103" y="24"/>
			<point x="173" y="-8"/>
		</contour>
		<contour>
			<point x="303" y="242" type="curve" smooth="yes"/>
			<point x="276" y="242"/>
			<point x="260" y="257"/>
			<point x="260" y="282" type="curve" smooth="yes"/>
			<point x="260" y="315"/>
			<point x="277" y="332"/>
			<point x="310" y="332" type="curve" smooth="yes"/>
			<point x="337" y="332"/>
			<point x="353" y="318"/>
			<point x="353" y="292" type="curve" smooth="yes"/>
			<point x="353" y="260"/>
			<point x="336" y="242"/>
		</contour>
		<contour>
			<point x="276" y="81" type="curve" smooth="yes"/>
			<point x="248" y="81"/>
			<point x="232" y="96"/>
			<point x="232" y="122" type="curve" smooth="yes"/>
			<point x="232" y="156"/>
			<point x="249" y="173"/>
			<point x="283" y="173" type="curve" smooth="yes"/>
			<point x="311" y="173"/>
			<point x="327" y="159"/>
			<point x="327" y="132" type="curve" smooth="yes"/>
			<point x="327" y="99"/>
			<point x="310" y="81"/>
		</contour>
	</outline>
</glyph>
<glyph name="equal.fina" format="2">
	<advance width="600"/>
	<outline>
		<contour>
			<point x="13" y="351" type="line"/>
			<point x="463" y="351" type="line"/>
			<point x="486" y="511" type="line"/>
			<point x="36" y="511" type="line"/>
		</contour>
		<contour>
			<point x="-20" y="118" type="line"/>
			<point x="430" y="118" type="line"/>
			<point x="453" y="278" type="line"/>
			<point x="3" y="278" type="line"/>
		</contour>
	</outline>
</glyph>
<glyph name="equal.med" format="2">
	<advance width="600"/>
	<outline>
		<contour>
			<point x="12" y="351" type="line"/>
			<point x="612" y="351" type="line"/>
			<point x="635" y="511" type="line"/>
			<point x="35" y="511" type="line"/>
		</contour>
		<contour>
			<point x="-21" y="118" type="line"/>
			<point x="579" y="118" type="line"/>
			<point x="602" y="278" type="line"/>
			<point x="2" y="278" type="line"/>
		</contour>
	</outline>
</glyph>
<glyph name="equal_bar.rem" format="2">
	<advance width="600"/>
	<outline>
		<contour>
			<point x="355" y="-55" type="line"/>
			<point x="459" y="684" type="line"/>
			<point x="279" y="684" type="line"/>
			<point x="255" y="511" type="line"/>
			<point x="-415" y="511" type="line"/>
			<point x="-438" y="351" type="line"/>
			<point x="232" y="351" type="line"/>
			<point x="222" y="278" type="line"/>
			<point x="-448" y="278" type="line"/>
			<point x="-471" y="118" type="line"/>
			<point x="199" y="118" type="line"/>
			<point x="175" y="-55" type="line"/>
		</contour>
	</outline>
</glyph>
<glyph name="equal_bar_bar.rem" format="2">
	<advance width="600"/>
	<outline>
		<contour>
			<point x="355" y="-55" type="line"/>
			<point x="459" y="684" type="line"/>
			<point x="279" y="684" type="line"/>
			<point x="175" y="-55" type="line"/>
		</contour>
		<contour>
			<point x="-25" y="-55" type="line"/>
			<point x="79" y="684" type="line"/>
			<point x="-101" y="684" type="line"/>
			<point x="-125" y="511" type="line"/>
			<point x="-1015" y="511" type="line"/>
			<point x="-1038" y="351" type="line"/>
			<point x="-148" y="351" type="line"/>
			<point x="-158" y="278" type="line"/>
			<point x="-1048" y="278" type="line"/>
			<point x="-1071" y="118" type="line"/>
			<point x="-181" y="118" type="line"/>
			<point x="-205" y="-55" type="line"/>
		</contour>
	</outline>
</glyph>
<glyph name="equal_less_less.rem" format="2">
	<advance width="600"/>
	<outline>
		<contour>
			<point x="571" y="629" type="line"/>
			<point x="345" y="629" type="line"/>
			<point x="47" y="316" type="line"/>
			<point x="270" y="0" type="line"/>
			<point x="484" y="0" type="line"/>
			<point x="261" y="307" type="line"/>
		</contour>
		<contour>
			<point x="173" y="629" type="line"/>
			<point x="-50" y="629" type="line"/>
			<point x="-160" y="511" type="line"/>
			<point x="-1015" y="511" type="line"/>
			<point x="-1038" y="351" type="line"/>
			<point x="-87" y="351" type="line"/>
		</contour>
		<contour>
			<point x="-98" y="278" type="line"/>
			<point x="-1048" y="278" type="line"/>
			<point x="-1071" y="118" type="line"/>
			<point x="-196" y="118" type="line"/>
			<point x="-118" y="0" type="line"/>
			<point x="88" y="0" type="line"/>
		</contour>
	</outline>
</glyph>
<glyph name="exclam_asciitilde.cLig" format="2">
	<advance width="600"/>
	<outline>
		<contour>
			<point x="-360" y="-63" type="line"/>
			<point x="-187" y="-63" type="line"/>
			<point x="-73" y="82" type="line"/>
			<point x="294" y="82" type="line"/>
			<point x="317" y="242" type="line"/>
			<point x="52" y="242" type="line"/>
			<point x="97" y="299" type="line"/>
			<point x="118" y="295"/>
			<point x="142" y="292"/>
			<point x="168" y="292" type="curve" smooth="yes"/>
			<point x="240" y="292"/>
			<point x="299" y="321"/>
			<point x="334" y="363" type="curve"/>
			<point x="357" y="532" type="line"/>
			<point x="308" y="480"/>
			<point x="270" y="461"/>
			<point x="220" y="455" type="curve"/>
			<point x="366" y="642" type="line"/>
			<point x="194" y="642" type="line"/>
			<point x="68" y="482" type="line"/>
			<point x="13" y="504"/>
			<point x="-44" y="530"/>
			<point x="-117" y="530" type="curve" smooth="yes"/>
			<point x="-185" y="530"/>
			<point x="-258" y="502"/>
			<point x="-293" y="460" type="curve"/>
			<point x="-317" y="290" type="line"/>
			<point x="-270" y="342"/>
			<point x="-203" y="368"/>
			<point x="-139" y="368" type="curve" smooth="yes"/>
			<point x="-102" y="368"/>
			<point x="-70" y="358"/>
			<point x="-39" y="346" type="curve"/>
			<point x="-120" y="242" type="line"/>
			<point x="-323" y="242" type="line"/>
			<point x="-346" y="82" type="line"/>
			<point x="-246" y="82" type="line"/>
		</contour>
	</outline>
</glyph>
<glyph name="exclam_equal_equal.cLig" format="2">
	<advance width="600"/>
	<outline>
		<contour>
			<point x="-1094" y="45" type="line"/>
			<point x="-569" y="45" type="line"/>
			<point x="-662" y="-87" type="line"/>
			<point x="-489" y="-87" type="line"/>
			<point x="-396" y="45" type="line"/>
			<point x="406" y="45" type="line"/>
			<point x="427" y="191" type="line"/>
			<point x="-293" y="191" type="line"/>
			<point x="-246" y="257" type="line"/>
			<point x="436" y="257" type="line"/>
			<point x="456" y="403" type="line"/>
			<point x="-143" y="403" type="line"/>
			<point x="-97" y="469" type="line"/>
			<point x="466" y="469" type="line"/>
			<point x="486" y="615" type="line"/>
			<point x="6" y="615" type="line"/>
			<point x="64" y="697" type="line"/>
			<point x="-108" y="697" type="line"/>
			<point x="-166" y="615" type="line"/>
			<point x="-1014" y="615" type="line"/>
			<point x="-1034" y="469" type="line"/>
			<point x="-269" y="469" type="line"/>
			<point x="-316" y="403" type="line"/>
			<point x="-1044" y="403" type="line"/>
			<point x="-1064" y="257" type="line"/>
			<point x="-419" y="257" type="line"/>
			<point x="-466" y="191" type="line"/>
			<point x="-1073" y="191" type="line"/>
		</contour>
	</outline>
</glyph>
<glyph name="exclam_exclam.cLig" format="2">
	<advance width="600"/>
	<outline>
		<contour>
			<point x="-298" y="255" type="line"/>
			<point x="-158" y="255" type="line"/>
			<point x="-77" y="574" type="line"/>
			<point x="-61" y="684" type="line"/>
			<point x="-274" y="684" type="line"/>
			<point x="-290" y="574" type="line"/>
		</contour>
		<contour>
			<point x="-258" y="-12" type="curve" smooth="yes"/>
			<point x="-184" y="-12"/>
			<point x="-146" y="15"/>
			<point x="-136" y="81" type="curve" smooth="yes"/>
			<point x="-123" y="164"/>
			<point x="-167" y="195"/>
			<point x="-243" y="195" type="curve" smooth="yes"/>
			<point x="-317" y="195"/>
			<point x="-355" y="168"/>
			<point x="-365" y="103" type="curve" smooth="yes"/>
			<point x="-378" y="19"/>
			<point x="-334" y="-12"/>
		</contour>
		<contour>
			<point x="156" y="255" type="line"/>
			<point x="296" y="255" type="line"/>
			<point x="377" y="574" type="line"/>
			<point x="393" y="684" type="line"/>
			<point x="180" y="684" type="line"/>
			<point x="164" y="574" type="line"/>
		</contour>
		<contour>
			<point x="196" y="-12" type="curve" smooth="yes"/>
			<point x="270" y="-12"/>
			<point x="308" y="15"/>
			<point x="318" y="81" type="curve" smooth="yes"/>
			<point x="331" y="164"/>
			<point x="287" y="195"/>
			<point x="211" y="195" type="curve" smooth="yes"/>
			<point x="137" y="195"/>
			<point x="99" y="168"/>
			<point x="89" y="103" type="curve" smooth="yes"/>
			<point x="76" y="19"/>
			<point x="120" y="-12"/>
		</contour>
	</outline>
</glyph>
<glyph name="five.numr" format="2">
	<advance width="600"/>
	<outline>
		<contour>
			<point x="310" y="366" type="curve" smooth="yes"/>
			<point x="408" y="366"/>
			<point x="469" y="421"/>
			<point x="469" y="505" type="curve" smooth="yes"/>
			<point x="469" y="564"/>
			<point x="434" y="591"/>
			<point x="360" y="591" type="curve" smooth="yes"/>
			<point x="350" y="591"/>
			<point x="340" y="591"/>
			<point x="331" y="590" type="curve"/>
			<point x="337" y="630" type="line"/>
			<point x="477" y="630" type="line"/>
			<point x="488" y="718" type="line"/>
			<point x="246" y="718" type="line"/>
			<point x="217" y="508" type="line"/>
			<point x="251" y="513"/>
			<point x="275" y="515"/>
			<point x="296" y="515" type="curve" smooth="yes"/>
			<point x="339" y="515"/>
			<point x="355" y="508"/>
			<point x="355" y="488" type="curve" smooth="yes"/>
			<point x="355" y="466"/>
			<point x="339" y="455"/>
			<point x="306" y="455" type="curve" smooth="yes"/>
			<point x="275" y="455"/>
			<point x="236" y="463"/>
			<point x="200" y="482" type="curve"/>
			<point x="187" y="394" type="line"/>
			<point x="208" y="381"/>
			<point x="254" y="366"/>
		</contour>
	</outline>
</glyph>
<glyph name="four.den" format="2">
	<advance width="600"/>
	<outline>
		<contour>
			<point x="268" y="0" type="line"/>
			<point x="391" y="0" type="line"/>
			<point x="400" y="62" type="line"/>
			<point x="434" y="62" type="line"/>
			<point x="447" y="161" type="line"/>
			<point x="413" y="161" type="line"/>
			<point x="448" y="410" type="line"/>
			<point x="251" y="410" type="line"/>
			<point x="106" y="161" type="line"/>
			<point x="93" y="63" type="line"/>
			<point x="277" y="63" type="line"/>
		</contour>
		<contour>
			<point x="216" y="161" type="line"/>
			<point x="314" y="331" type="line"/>
			<point x="290" y="161" type="line"/>
		</contour>
	</outline>
</glyph>
<glyph name="four.numr" format="2">
	<advance width="600"/>
	<outline>
		<contour>
			<point x="313" y="372" type="line"/>
			<point x="423" y="372" type="line"/>
			<point x="430" y="422" type="line"/>
			<point x="457" y="422" type="line"/>
			<point x="469" y="510" type="line"/>
			<point x="442" y="510" type="line"/>
			<point x="471" y="717" type="line"/>
			<point x="294" y="717" type="line"/>
			<point x="180" y="510" type="line"/>
			<point x="168" y="423" type="line"/>
			<point x="320" y="423" type="line"/>
		</contour>
		<contour>
			<point x="276" y="510" type="line"/>
			<point x="351" y="645" type="line"/>
			<point x="332" y="510" type="line"/>
		</contour>
	</outline>
</glyph>
<glyph name="g.ss01" format="2">
	<advance width="600"/>
	<outline>
		<contour>
			<point x="205" y="-204" type="curve" smooth="yes"/>
			<point x="351" y="-204"/>
			<point x="497" y="-150"/>
			<point x="526" y="58" type="curve" smooth="yes"/>
			<point x="591" y="523" type="line"/>
			<point x="359" y="523" type="line" smooth="yes"/>
			<point x="172" y="523"/>
			<point x="59" y="437"/>
			<point x="36" y="277" type="curve" smooth="yes"/>
			<point x="34" y="263" type="line" smooth="yes"/>
			<point x="14" y="123"/>
			<point x="64" y="23"/>
			<point x="183" y="23" type="curve" smooth="yes"/>
			<point x="243" y="23"/>
			<point x="295" y="55"/>
			<point x="340" y="119" type="curve"/>
			<point x="334" y="76" type="line" smooth="yes"/>
			<point x="322" y="-14"/>
			<point x="270" y="-54"/>
			<point x="186" y="-54" type="curve" smooth="yes"/>
			<point x="118" y="-54"/>
			<point x="65" y="-30"/>
			<point x="29" y="-7" type="curve"/>
			<point x="8" y="-157" type="line"/>
			<point x="52" y="-183"/>
			<point x="123" y="-204"/>
		</contour>
		<contour>
			<point x="287" y="167" type="curve" smooth="yes"/>
			<point x="239" y="167"/>
			<point x="223" y="211"/>
			<point x="232" y="271" type="curve" smooth="yes"/>
			<point x="233" y="278" type="line" smooth="yes"/>
			<point x="243" y="345"/>
			<point x="279" y="375"/>
			<point x="346" y="375" type="curve" smooth="yes"/>
			<point x="375" y="375" type="line"/>
			<point x="357" y="243" type="line" smooth="yes"/>
			<point x="349" y="189"/>
			<point x="324" y="167"/>
		</contour>
	</outline>
	<anchor name="top" x="366" y="523"/>
</glyph>
<glyph name="grave.cap" format="2">
	<advance width="600"/>
	<outline>
		<contour>
			<point x="488" y="741" type="line"/>
			<point x="466" y="884" type="line"/>
			<point x="264" y="884" type="line"/>
			<point x="353" y="741" type="line"/>
		</contour>
	</outline>
	<anchor name="_top" x="413" y="684"/>
</glyph>
<glyph name="greater_colon.cLig.x" format="2">
	<advance width="600"/>
	<outline>
		<contour>
			<point x="-475" y="-14" type="line"/>
			<point x="10" y="209" type="line"/>
			<point x="40" y="423" type="line"/>
			<point x="-381" y="645" type="line"/>
			<point x="-408" y="467" type="line"/>
			<point x="-116" y="322" type="line"/>
			<point x="-447" y="180" type="line"/>
		</contour>
		<contour>
			<point x="320" y="351" type="curve" smooth="yes"/>
			<point x="400" y="351"/>
			<point x="443" y="382"/>
			<point x="454" y="458" type="curve" smooth="yes"/>
			<point x="467" y="544"/>
			<point x="423" y="578"/>
			<point x="340" y="578" type="curve" smooth="yes"/>
			<point x="258" y="578"/>
			<point x="215" y="547"/>
			<point x="204" y="472" type="curve" smooth="yes"/>
			<point x="191" y="385"/>
			<point x="234" y="351"/>
		</contour>
		<contour>
			<point x="275" y="31" type="curve" smooth="yes"/>
			<point x="355" y="31"/>
			<point x="398" y="62"/>
			<point x="409" y="138" type="curve" smooth="yes"/>
			<point x="422" y="224"/>
			<point x="378" y="258"/>
			<point x="295" y="258" type="curve" smooth="yes"/>
			<point x="213" y="258"/>
			<point x="170" y="227"/>
			<point x="159" y="152" type="curve" smooth="yes"/>
			<point x="146" y="65"/>
			<point x="189" y="31"/>
		</contour>
	</outline>
</glyph>
<glyph name="greater_equal.cLig" format="2">
	<advance width="600"/>
	<outline>
		<contour>
			<point x="-308" y="151" type="line"/>
			<point x="303" y="342" type="line"/>
			<point x="333" y="556" type="line"/>
			<point x="-224" y="750" type="line"/>
			<point x="-247" y="583" type="line"/>
			<point x="165" y="459" type="line"/>
			<point x="-283" y="324" type="line"/>
		</contour>
		<contour>
			<point x="-340" y="-82" type="line"/>
			<point x="270" y="106" type="line"/>
			<point x="293" y="268" type="line"/>
			<point x="-318" y="80" type="line"/>
		</contour>
	</outline>
</glyph>
<glyph name="greater_equal.fina" format="2">
	<advance width="600"/>
	<outline>
		<contour>
			<point x="-20" y="118" type="line"/>
			<point x="175" y="118" type="line"/>
			<point x="64" y="0" type="line"/>
			<point x="293" y="0" type="line"/>
			<point x="579" y="310" type="line"/>
			<point x="364" y="629" type="line"/>
			<point x="152" y="629" type="line"/>
			<point x="232" y="511" type="line"/>
			<point x="35" y="511" type="line"/>
			<point x="12" y="351" type="line"/>
			<point x="340" y="351" type="line"/>
			<point x="363" y="317" type="line"/>
			<point x="326" y="278" type="line"/>
			<point x="2" y="278" type="line"/>
		</contour>
	</outline>
</glyph>
<glyph name="greater_equal.init" format="2">
	<advance width="600"/>
	<outline>
		<contour>
			<point x="283" y="351" type="line"/>
			<point x="611" y="351" type="line"/>
			<point x="634" y="511" type="line"/>
			<point x="381" y="511" type="line"/>
			<point x="303" y="629" type="line"/>
			<point x="97" y="629" type="line"/>
		</contour>
		<contour>
			<point x="12" y="0" type="line"/>
			<point x="235" y="0" type="line"/>
			<point x="345" y="118" type="line"/>
			<point x="579" y="118" type="line"/>
			<point x="602" y="278" type="line"/>
			<point x="272" y="278" type="line"/>
		</contour>
	</outline>
</glyph>
<glyph name="greater_equal.med" format="2">
	<advance width="600"/>
	<outline>
		<contour>
			<point x="28" y="0" type="line"/>
			<point x="257" y="0" type="line"/>
			<point x="366" y="118" type="line"/>
			<point x="579" y="118" type="line"/>
			<point x="602" y="278" type="line"/>
			<point x="513" y="278" type="line"/>
			<point x="543" y="310" type="line"/>
			<point x="515" y="351" type="line"/>
			<point x="612" y="351" type="line"/>
			<point x="635" y="511" type="line"/>
			<point x="408" y="511" type="line"/>
			<point x="328" y="629" type="line"/>
			<point x="116" y="629" type="line"/>
			<point x="196" y="511" type="line"/>
			<point x="35" y="511" type="line"/>
			<point x="12" y="351" type="line"/>
			<point x="304" y="351" type="line"/>
			<point x="327" y="317" type="line"/>
			<point x="290" y="278" type="line"/>
			<point x="2" y="278" type="line"/>
			<point x="-21" y="118" type="line"/>
			<point x="139" y="118" type="line"/>
		</contour>
	</outline>
</glyph>
<glyph name="greater_equal.rem" format="2">
	<advance width="600"/>
	<outline>
		<contour>
			<point x="-282" y="351" type="line"/>
			<point x="462" y="351" type="line"/>
			<point x="485" y="511" type="line"/>
			<point x="-184" y="511" type="line"/>
			<point x="-262" y="629" type="line"/>
			<point x="-468" y="629" type="line"/>
		</contour>
		<contour>
			<point x="-553" y="0" type="line"/>
			<point x="-330" y="0" type="line"/>
			<point x="-220" y="118" type="line"/>
			<point x="429" y="118" type="line"/>
			<point x="452" y="278" type="line"/>
			<point x="-293" y="278" type="line"/>
		</contour>
	</outline>
</glyph>
<glyph name="greater_greater_equal.rem" format="2">
	<advance width="600"/>
	<outline>
		<contour>
			<point x="-1156" y="0" type="line"/>
			<point x="-930" y="0" type="line"/>
			<point x="-632" y="313" type="line"/>
			<point x="-855" y="629" type="line"/>
			<point x="-1069" y="629" type="line"/>
			<point x="-846" y="322" type="line"/>
		</contour>
		<contour>
			<point x="-487" y="351" type="line"/>
			<point x="463" y="351" type="line"/>
			<point x="486" y="511" type="line"/>
			<point x="-389" y="511" type="line"/>
			<point x="-467" y="629" type="line"/>
			<point x="-673" y="629" type="line"/>
		</contour>
		<contour>
			<point x="-758" y="0" type="line"/>
			<point x="-535" y="0" type="line"/>
			<point x="-425" y="118" type="line"/>
			<point x="430" y="118" type="line"/>
			<point x="453" y="278" type="line"/>
			<point x="-498" y="278" type="line"/>
		</contour>
	</outline>
</glyph>
<glyph name="greater_greater_hyphen.med" format="2">
	<advance width="600"/>
	<outline>
		<contour>
			<point x="-94" y="0" type="line"/>
			<point x="133" y="0" type="line"/>
			<point x="339" y="228" type="line"/>
			<point x="596" y="228" type="line"/>
			<point x="620" y="400" type="line"/>
			<point x="358" y="400" type="line"/>
			<point x="200" y="629" type="line"/>
			<point x="-8" y="629" type="line"/>
			<point x="203" y="323" type="line"/>
		</contour>
		<contour>
			<point x="-395" y="629" type="line"/>
			<point x="-231" y="400" type="line"/>
			<point x="-581" y="400" type="line"/>
			<point x="-605" y="228" type="line"/>
			<point x="-263" y="228" type="line"/>
			<point x="-488" y="0" type="line"/>
			<point x="-269" y="0" type="line"/>
			<point x="36" y="314" type="line"/>
			<point x="-187" y="629" type="line"/>
		</contour>
	</outline>
</glyph>
<glyph name="greater_greater_hyphen.rem" format="2">
	<advance width="600"/>
	<outline>
		<contour>
			<point x="-1135" y="0" type="line"/>
			<point x="-908" y="0" type="line"/>
			<point x="-624" y="314" type="line"/>
			<point x="-841" y="629" type="line"/>
			<point x="-1049" y="629" type="line"/>
			<point x="-837" y="321" type="line"/>
		</contour>
		<contour>
			<point x="-745" y="0" type="line"/>
			<point x="-518" y="0" type="line"/>
			<point x="-312" y="228" type="line"/>
			<point x="455" y="228" type="line"/>
			<point x="479" y="400" type="line"/>
			<point x="-293" y="400" type="line"/>
			<point x="-451" y="629" type="line"/>
			<point x="-659" y="629" type="line"/>
			<point x="-451" y="324" type="line"/>
		</contour>
	</outline>
</glyph>
<glyph name="greater_hyphen.fina" format="2">
	<advance width="600"/>
	<outline>
		<contour>
			<point x="115" y="629" type="line"/>
			<point x="279" y="400" type="line"/>
			<point x="19" y="400" type="line"/>
			<point x="-5" y="228" type="line"/>
			<point x="247" y="228" type="line"/>
			<point x="22" y="0" type="line"/>
			<point x="241" y="0" type="line"/>
			<point x="546" y="314" type="line"/>
			<point x="323" y="629" type="line"/>
		</contour>
	</outline>
</glyph>
<glyph name="greater_hyphen.init" format="2">
	<advance width="600"/>
	<outline>
		<contour>
			<point x="45" y="0" type="line"/>
			<point x="272" y="0" type="line"/>
			<point x="478" y="228" type="line"/>
			<point x="595" y="228" type="line"/>
			<point x="619" y="400" type="line"/>
			<point x="497" y="400" type="line"/>
			<point x="339" y="629" type="line"/>
			<point x="131" y="629" type="line"/>
			<point x="339" y="324" type="line"/>
		</contour>
	</outline>
</glyph>
<glyph name="greater_hyphen.med" format="2">
	<advance width="600"/>
	<outline>
		<contour>
			<point x="115" y="629" type="line"/>
			<point x="279" y="400" type="line"/>
			<point x="19" y="400" type="line"/>
			<point x="-5" y="228" type="line"/>
			<point x="247" y="228" type="line"/>
			<point x="22" y="0" type="line"/>
			<point x="241" y="0" type="line"/>
			<point x="462" y="228" type="line"/>
			<point x="595" y="228" type="line"/>
			<point x="619" y="400" type="line"/>
			<point x="485" y="400" type="line"/>
			<point x="323" y="629" type="line"/>
		</contour>
	</outline>
</glyph>
<glyph name="greater_hyphen.rem" format="2">
	<advance width="600"/>
	<outline>
		<contour>
			<point x="-525" y="0" type="line"/>
			<point x="-298" y="0" type="line"/>
			<point x="-92" y="228" type="line"/>
			<point x="475" y="228" type="line"/>
			<point x="499" y="400" type="line"/>
			<point x="-73" y="400" type="line"/>
			<point x="-231" y="629" type="line"/>
			<point x="-439" y="629" type="line"/>
			<point x="-231" y="324" type="line"/>
		</contour>
	</outline>
</glyph>
<glyph name="hungarumlaut.cap" format="2">
	<advance width="600"/>
	<outline>
		<contour>
			<point x="368" y="741" type="line"/>
			<point x="491" y="741" type="line"/>
			<point x="597" y="884" type="line"/>
			<point x="429" y="884" type="line"/>
		</contour>
		<contour>
			<point x="158" y="741" type="line"/>
			<point x="282" y="741" type="line"/>
			<point x="387" y="884" type="line"/>
			<point x="220" y="884" type="line"/>
		</contour>
	</outline>
	<anchor name="_top" x="316" y="684"/>
</glyph>
<glyph name="hyphen.init" format="2">
	<advance width="600"/>
	<outline>
		<contour>
			<point x="619" y="400" type="line"/>
			<point x="169" y="400" type="line"/>
			<point x="145" y="228" type="line"/>
			<point x="595" y="228" type="line"/>
		</contour>
	</outline>
</glyph>
<glyph name="hyphen_braceright.rem" format="2">
	<advance width="600"/>
	<outline>
		<contour>
			<point x="-90" y="-163" type="line"/>
			<point x="149" y="-163" type="line" smooth="yes"/>
			<point x="242" y="-163"/>
			<point x="313" y="-97"/>
			<point x="313" y="-11" type="curve" smooth="yes"/>
			<point x="313" y="72"/>
			<point x="247" y="122"/>
			<point x="247" y="175" type="curve" smooth="yes"/>
			<point x="247" y="211"/>
			<point x="270" y="237"/>
			<point x="342" y="237" type="curve" smooth="yes"/>
			<point x="432" y="237" type="line"/>
			<point x="454" y="396" type="line"/>
			<point x="391" y="396" type="line" smooth="yes"/>
			<point x="311" y="396"/>
			<point x="292" y="430"/>
			<point x="292" y="458" type="curve" smooth="yes"/>
			<point x="292" y="531"/>
			<point x="408" y="553"/>
			<point x="408" y="661" type="curve" smooth="yes"/>
			<point x="408" y="735"/>
			<point x="351" y="792"/>
			<point x="253" y="792" type="curve" smooth="yes"/>
			<point x="45" y="792" type="line"/>
			<point x="25" y="655" type="line"/>
			<point x="149" y="655" type="line" smooth="yes"/>
			<point x="186" y="655"/>
			<point x="204" y="643"/>
			<point x="204" y="618" type="curve" smooth="yes"/>
			<point x="204" y="568"/>
			<point x="93" y="546"/>
			<point x="93" y="471" type="curve" smooth="yes"/>
			<point x="93" y="429"/>
			<point x="133" y="404"/>
			<point x="191" y="396" type="curve"/>
			<point x="-429" y="396" type="line"/>
			<point x="-454" y="232" type="line"/>
			<point x="166" y="232" type="line"/>
			<point x="107" y="223"/>
			<point x="53" y="200"/>
			<point x="53" y="150" type="curve" smooth="yes"/>
			<point x="53" y="99"/>
			<point x="127" y="65"/>
			<point x="127" y="20" type="curve" smooth="yes"/>
			<point x="127" y="-12"/>
			<point x="106" y="-26"/>
			<point x="63" y="-26" type="curve" smooth="yes"/>
			<point x="-71" y="-26" type="line"/>
		</contour>
	</outline>
</glyph>
<glyph name="hyphen_greater_greater.rem" format="2">
	<advance width="600"/>
	<outline>
		<contour>
			<point x="-17" y="0" type="line"/>
			<point x="211" y="0" type="line"/>
			<point x="492" y="314" type="line"/>
			<point x="276" y="629" type="line"/>
			<point x="68" y="629" type="line"/>
			<point x="279" y="324" type="line"/>
		</contour>
		<contour>
			<point x="-323" y="629" type="line"/>
			<point x="-159" y="400" type="line"/>
			<point x="-1031" y="400" type="line"/>
			<point x="-1055" y="228" type="line"/>
			<point x="-191" y="228" type="line"/>
			<point x="-416" y="0" type="line"/>
			<point x="-197" y="0" type="line"/>
			<point x="108" y="314" type="line"/>
			<point x="-115" y="629" type="line"/>
		</contour>
	</outline>
</glyph>
<glyph name="hyphen_less_less.rem" format="2">
	<advance width="600"/>
	<outline>
		<contour>
			<point x="510" y="629" type="line"/>
			<point x="283" y="629" type="line"/>
			<point x="-1" y="315" type="line"/>
			<point x="216" y="0" type="line"/>
			<point x="424" y="0" type="line"/>
			<point x="212" y="308" type="line"/>
		</contour>
		<contour>
			<point x="120" y="629" type="line"/>
			<point x="-107" y="629" type="line"/>
			<point x="-313" y="401" type="line"/>
			<point x="-1080" y="401" type="line"/>
			<point x="-1104" y="229" type="line"/>
			<point x="-332" y="229" type="line"/>
			<point x="-174" y="0" type="line"/>
			<point x="34" y="0" type="line"/>
			<point x="-174" y="305" type="line"/>
		</contour>
	</outline>
</glyph>
<glyph name="less_asciitilde_asciitilde.cLig" format="2">
	<advance width="600"/>
	<outline>
		<contour>
			<point x="-701" y="-1" type="line"/>
			<point x="-865" y="228" type="line"/>
			<point x="-610" y="228" type="line"/>
			<point x="-578" y="185"/>
			<point x="-533" y="168"/>
			<point x="-489" y="168" type="curve"/>
			<point x="-380" y="168"/>
			<point x="-349" y="285"/>
			<point x="-284" y="285" type="curve" smooth="yes"/>
			<point x="-212" y="285"/>
			<point x="-205" y="171"/>
			<point x="-94" y="171" type="curve" smooth="yes"/>
			<point x="8" y="171"/>
			<point x="43" y="285"/>
			<point x="108" y="285" type="curve" smooth="yes"/>
			<point x="178" y="285"/>
			<point x="192" y="171"/>
			<point x="310" y="171" type="curve" smooth="yes"/>
			<point x="410" y="171"/>
			<point x="514" y="254"/>
			<point x="554" y="451" type="curve"/>
			<point x="406" y="451" type="line"/>
			<point x="388" y="394"/>
			<point x="358" y="349"/>
			<point x="310" y="349" type="curve"/>
			<point x="246" y="349"/>
			<point x="236" y="459"/>
			<point x="117" y="459" type="curve" smooth="yes"/>
			<point x="8" y="459"/>
			<point x="-18" y="350"/>
			<point x="-84" y="350" type="curve" smooth="yes"/>
			<point x="-156" y="350"/>
			<point x="-149" y="459"/>
			<point x="-274" y="459" type="curve"/>
			<point x="-376" y="459"/>
			<point x="-403" y="343"/>
			<point x="-467" y="343" type="curve" smooth="yes"/>
			<point x="-499" y="343"/>
			<point x="-511" y="362"/>
			<point x="-528" y="400" type="curve"/>
			<point x="-833" y="400" type="line"/>
			<point x="-608" y="628" type="line"/>
			<point x="-827" y="628" type="line"/>
			<point x="-1132" y="314" type="line"/>
			<point x="-909" y="-1" type="line"/>
		</contour>
	</outline>
	<guideline x="-517" y="456" angle="90" identifier="7Csh7f1Dvf"/>
</glyph>
<glyph name="less_asterisk.cLig" format="2">
	<advance width="600"/>
	<outline>
		<contour>
			<point x="-86" y="-14" type="line"/>
			<point x="-59" y="163" type="line"/>
			<point x="-354" y="311" type="line"/>
			<point x="-20" y="451" type="line"/>
			<point x="8" y="645" type="line"/>
			<point x="-477" y="422" type="line"/>
			<point x="-507" y="208" type="line"/>
		</contour>
		<contour>
			<point x="57" y="117" type="line"/>
			<point x="209" y="251" type="line"/>
			<point x="133" y="69" type="line"/>
			<point x="316" y="69" type="line"/>
			<point x="290" y="250" type="line"/>
			<point x="402" y="117" type="line"/>
			<point x="517" y="274" type="line"/>
			<point x="342" y="321" type="line"/>
			<point x="531" y="368" type="line"/>
			<point x="463" y="526" type="line"/>
			<point x="309" y="390" type="line"/>
			<point x="387" y="575" type="line"/>
			<point x="204" y="575" type="line"/>
			<point x="229" y="392" type="line"/>
			<point x="114" y="528" type="line"/>
			<point x="1" y="370" type="line"/>
			<point x="179" y="322" type="line"/>
			<point x="-11" y="275" type="line"/>
		</contour>
	</outline>
</glyph>
<glyph name="less_bar.cLig" format="2">
	<advance width="600"/>
	<outline>
		<contour>
			<point x="382" y="708" type="line"/>
			<point x="202" y="708" type="line"/>
			<point x="-342" y="421" type="line"/>
			<point x="-372" y="207" type="line"/>
			<point x="92" y="-79" type="line"/>
			<point x="272" y="-79" type="line"/>
		</contour>
		<contour>
			<point x="121" y="111" type="line"/>
			<point x="-204" y="305" type="line"/>
			<point x="174" y="499" type="line"/>
		</contour>
	</outline>
</glyph>
<glyph name="less_bar_bar.cLig" format="2">
	<advance width="600"/>
	<outline>
		<contour>
			<point x="242" y="-79" type="line"/>
			<point x="352" y="708" type="line"/>
			<point x="172" y="708" type="line"/>
			<point x="62" y="-79" type="line"/>
		</contour>
		<contour>
			<point x="-208" y="708" type="line"/>
			<point x="-388" y="708" type="line"/>
			<point x="-932" y="421" type="line"/>
			<point x="-962" y="207" type="line"/>
			<point x="-498" y="-79" type="line"/>
			<point x="-318" y="-79" type="line"/>
		</contour>
		<contour>
			<point x="-469" y="111" type="line"/>
			<point x="-794" y="305" type="line"/>
			<point x="-416" y="499" type="line"/>
		</contour>
	</outline>
</glyph>
<glyph name="less_bar_greater.cLig" format="2">
	<advance width="600"/>
	<outline>
		<contour>
			<point x="-450" y="-163" type="line"/>
			<point x="-270" y="-163" type="line"/>
			<point x="-136" y="792" type="line"/>
			<point x="-316" y="792" type="line"/>
		</contour>
		<contour>
			<point x="-593" y="-78" type="line"/>
			<point x="-567" y="121" type="line"/>
			<point x="-878" y="307" type="line"/>
			<point x="-514" y="492" type="line"/>
			<point x="-483" y="708" type="line"/>
			<point x="-1028" y="422" type="line"/>
			<point x="-1058" y="207" type="line"/>
		</contour>
		<contour>
			<point x="-102" y="-79" type="line"/>
			<point x="442" y="208" type="line"/>
			<point x="472" y="422" type="line"/>
			<point x="8" y="708" type="line"/>
			<point x="-18" y="508" type="line"/>
			<point x="289" y="322" type="line"/>
			<point x="-71" y="138" type="line"/>
		</contour>
	</outline>
</glyph>
<glyph name="less_colon.cLig.x" format="2">
	<advance width="600"/>
	<outline>
		<contour>
			<point x="-46" y="-14" type="line"/>
			<point x="-19" y="164" type="line"/>
			<point x="-311" y="311" type="line"/>
			<point x="20" y="451" type="line"/>
			<point x="48" y="645" type="line"/>
			<point x="-437" y="422" type="line"/>
			<point x="-467" y="208" type="line"/>
		</contour>
		<contour>
			<point x="320" y="351" type="curve" smooth="yes"/>
			<point x="400" y="351"/>
			<point x="443" y="382"/>
			<point x="454" y="458" type="curve" smooth="yes"/>
			<point x="467" y="544"/>
			<point x="423" y="578"/>
			<point x="340" y="578" type="curve" smooth="yes"/>
			<point x="258" y="578"/>
			<point x="215" y="547"/>
			<point x="204" y="472" type="curve" smooth="yes"/>
			<point x="191" y="385"/>
			<point x="234" y="351"/>
		</contour>
		<contour>
			<point x="275" y="31" type="curve" smooth="yes"/>
			<point x="355" y="31"/>
			<point x="398" y="62"/>
			<point x="409" y="138" type="curve" smooth="yes"/>
			<point x="422" y="224"/>
			<point x="378" y="258"/>
			<point x="295" y="258" type="curve" smooth="yes"/>
			<point x="213" y="258"/>
			<point x="170" y="227"/>
			<point x="159" y="152" type="curve" smooth="yes"/>
			<point x="146" y="65"/>
			<point x="189" y="31"/>
		</contour>
	</outline>
</glyph>
